<ttFont>
<head>
    <!-- Most of this table will be recalculated by the compiler -->
    <tableVersion value="1.0"/>
    <fontRevision value="2.004"/>
    <checkSumAdjustment value="0x9c8f440f"/>
    <magicNumber value="0x5f0f3cf5"/>
    <flags value="00000000 00000011"/>
    <unitsPerEm value="1000"/>
    <created value="Thu Oct  8 10:02:28 2009"/>
    <modified value="Thu Oct  8 10:02:28 2009"/>
    <xMin value="-451"/>
    <yMin value="-316"/>
    <xMax value="731"/>
    <yMax value="1016"/>
    <macStyle value="00000000 00000000"/>
    <lowestRecPPEM value="3"/>
    <fontDirectionHint value="2"/>
    <indexToLocFormat value="0"/>
    <glyphDataFormat value="0"/>
  </head>
          <CharString index="0">
            rmoveto
            20 -15 15 -20 vhcurveto
            0 -8 0 -11 -5 -2 callsubr
            -60 rlineto
            -14 -6 -11 -5 -18 vvcurveto
            -8 7 -32 26 7 5 2 3 6 vhcurveto
            133 59 rlineto
            24 11 4 13 11 vvcurveto
            endchar
          </CharString>
          <CharString index="1">
            rmoveto
            19 -11 12 -20 -24 -4 -17 -12 -2 vhcurveto
            -20 -5 -68 0 -42 hhcurveto
            -43 -67 0 20 -5 hvcurveto
            12 -2 -4 17 -24 hhcurveto
            -19 -12 -12 -19 -82 110 0 66 66 110 0 82 hvcurveto
            return
          </CharString>
          <CharString index="2">
            519 31 rmoveto
            30 -25 0 -15 -42 -10 5 3 -8 vhcurveto
            216 vlineto
            71 -54 84 -144 -43 -102 0 -73 -30 21 -16 24 15 28 9 37 1 vhcurveto
            8 1 1 20 2 vhcurveto
            1 14 13 0 9 hhcurveto
            76 52 -31 -71 hvcurveto
            -177 -3 -123 -50 -96 vvcurveto
            hintmask 10000000
            -69 63 -65 102 37 62 7 31 47 vhcurveto
            hintmask 01000000
            -31 22 48 -1 38 hhcurveto
            28 22 0 31 hvcurveto
            -169 103 rmoveto
            -23 0 -21 -39 -18 vhcurveto
            return
          </CharString>
          <CharString index="3">
            520 581 rmoveto
            30 54 callgsubr
            -129 -81 callgsubr
            -341 hlineto
            -107 -66 -52 -52 -53 -65 52 107 vhcurveto
            341 30 vlineto
            15 26 0 31 30 -26 0 -15 hvcurveto
            -129 -81 callgsubr
            -346 hlineto
            -123 87 -92 100 100 87 92 123 vhcurveto
            -8 callgsubr
            return
          </CharString>
          <CharString index="4">
            rmoveto
            28 -22 22 -28 -28 -22 -22 -28 -28 22 -22 28 28 22 22 28 vhcurveto
            return
          </CharString>
          <CharString index="5">
            -74 callsubr
            hintmask 00100000
            -78 callgsubr
            hintmask 00010000
            -91 callgsubr
            hintmask 00100000
            -16 15 -16 16 11 6 5 6 7 vhcurveto
            hintmask 00010000
            -78 callsubr
            hintmask 00100000
            -94 callsubr
          </CharString>
          <CharString index="6">
            63 callsubr
            -53 callgsubr
            return
          </CharString>
          <CharString index="7">
            hstemhm
            -103 callgsubr
            return
          </CharString>
          <CharString index="8">
            502 103 callsubr
            39 callgsubr
            -69 -267 225 131 vlineto
            -41 0 -16 35 34 0 22 19 vhcurveto
            93 vlineto
            19 0 22 -34 -35 0 -16 -41 vhcurveto
            -131 203 hlineto
            return
          </CharString>
          <CharString index="9">
            245 -58 callgsubr
            73 vlineto
            31 -6 10 -34 vhcurveto
            -373 -81 callgsubr
            -489 -39 callsubr
            return
          </CharString>
          <CharString index="10">
            467 216 rmoveto
            125 -93 99 -112 -112 -93 -99 -125 -127 95 -95 110 110 95 96 126 vhcurveto
            -69 7 rmoveto
            -93 -62 -75 -74 -74 -62 75 93 91 65 65 71 72 64 -65 -91 vhcurveto
            return
          </CharString>
          <CharString index="11">
            -85 callsubr
            26 0 return
          </CharString>
          <CharString index="12">
            -86 callgsubr
            16 hvcurveto
            return
          </CharString>
          <CharString index="13">
            -13 13 20 -21 34 hhcurveto
            27 28 16 17 23 hvcurveto
            20 15 29 22 18 vvcurveto
            endchar
          </CharString>
          <CharString index="14">
            -74 callsubr
            hintmask 10000000
            -78 callgsubr
            hintmask 01000000
            -91 callgsubr
            hintmask 10000000
            -16 15 -16 16 11 6 5 6 7 vhcurveto
            hintmask 01000000
            -78 callsubr
            hintmask 10000000
            -94 callsubr
          </CharString>
          <CharString index="15">
            hlineto
            -96 callsubr
            return
          </CharString>
          <CharString index="16">
            21 callgsubr
            489 25 -87 callsubr
            -24 callgsubr
            25 -202 -212 202 25 -87 callsubr
            -119 -60 callgsubr
            -489 -25 -92 callgsubr
            119 -51 callgsubr
            226 212 -226 -9 callsubr
            return
          </CharString>
          <CharString index="17">
            hlineto
            -95 callsubr
            return
          </CharString>
          <CharString index="18">
            459 125 rmoveto
            104 -129 21 -32 5 vhcurveto
            -68 12 rlineto
            -29 4 -68 12 39 vvcurveto
            26 32 31 95 83 14 -30 -26 3 vhcurveto
            -17 1 2 -17 31 hhcurveto
            59 callgsubr
            hvcurveto
            69 84 callgsubr
            -4 -14 -7 -2 vhcurveto
            21 -44 -44 0 -19 hhcurveto
            -167 -23 -82 -36 -92 105 -17 92 -14 hvcurveto
            49 -8 80 -13 -53 vvcurveto
            -37 -37 -33 -91 -47 -56 11 78 -25 vhcurveto
            18 -5 -4 11 -26 hhcurveto
            104 callgsubr
            hvcurveto
            -97 vlineto
            -16 0 -25 30 9 16 1 37 12 vhcurveto
            return
          </CharString>
          <CharString index="19">
            500 400 rmoveto
            31 -24 0 -16 vhcurveto
            -117 -90 callsubr
            28 hlineto
            -72 -213 -13 -37 -6 -18 -7 -31 rlinecurve
            -1 hlineto
            -5 19 -9 21 -7 19 -93 240 rcurveline
            25 -87 callsubr
            -117 -92 callgsubr
            31 hlineto
            142 -357 rlineto
            4 -10 0 -3 0 vvcurveto
            0 -25 -84 -13 -25 vhcurveto
            return
          </CharString>
          <CharString index="20">
            hlineto
            -87 callgsubr
            return
          </CharString>
          <CharString index="21">
            508 401 rmoveto
            30 -24 0 -18 vhcurveto
            -115 hlineto
            -18 -24 -57 callsubr
            23 0 19 hvcurveto
            49 hlineto
            -50 -298 rlineto
            -1 hlineto
            -4 26 -13 46 -12 41 rrcurveto
            63 -18 -3 11 -35 hhcurveto
            -10 -19 0 -22 -11 hvcurveto
            -3 -7 -40 -138 -4 -20 rrcurveto
            -1 hlineto
            -52 298 rlineto
            49 hlineto
            18 24 0 30 31 -23 0 -19 hvcurveto
            -115 hlineto
            -18 -24 -57 callsubr
            21 0 30 hvcurveto
            60 -336 rlineto
            -23 4 3 -15 40 hhcurveto
            40 3 9 61 18 hvcurveto
            25 88 1 14 3 22 rrcurveto
            1 hlineto
            5 -52 37 -117 4 -8 rrcurveto
            -17 12 18 0 12 hhcurveto
            37 3 16 22 4 hvcurveto
            60 336 rlineto
            30 147 callsubr
            return
          </CharString>
          <CharString index="22">
            -16 -25 -66 callsubr
            return
          </CharString>
          <CharString index="23">
            rmoveto
            -120 76 -9 6 -12 0 -9 -6 rlinecurve
            -118 -75 -33 -21 31 -49 33 20 rlinecurve
            103 62 103 -62 33 -20 31 48 -33 21 rlinecurve
            return
          </CharString>
          <CharString index="24">
            488 103 callsubr
            20 0 21 -34 -35 0 -20 -21 vhcurveto
            -69 -241 489 56 vlineto
            14 27 0 30 31 -26 0 -15 hvcurveto
            -162 -4 callsubr
            -489 -37 hlineto
            -12 callsubr
            return
          </CharString>
          <CharString index="25">
            36 13 -18 54 -36 -11 -109 -33 rcurveline
            -109 33 -36 11 -18 -54 35 -13 rlinecurve
            118 -43 6 -2 7 0 6 2 rlinecurve
            endchar
          </CharString>
          <CharString index="26">
            rmoveto
            47 3 -34 8 -13 hhcurveto
            -19 -29 -11 -44 3 hvcurveto
            13 -203 rlineto
            -15 1 3 -21 28 hhcurveto
            25 5 18 17 1 hvcurveto
            return
          </CharString>
          <CharString index="27">
            13 callgsubr
            16 callsubr
            hintmask 0000101000000000
            11 -16 -35 19 -46 hhcurveto
            -94 -71 -75 -85 -43 17 -33 15 -19 hvcurveto
            hintmask 0000000100000000
            -11 -16 -9 -22 -30 vvcurveto
            -35 14 -25 9 -12 vhcurveto
            hintmask 1000010000010000
            -74 -45 0 -68 -11 vvcurveto
            -86 105 -61 128 128 105 62 85 vhcurveto
            hintmask 0100000100100000
            37 -18 50 -51 27 vhcurveto
            7 -13 -42 22 -90 hhcurveto
            -70 hlineto
            -8 -13 0 2 -8 hvcurveto
            -15 -6 0 14 -12 hvcurveto
            hintmask 0010001010000000
            -11 14 -1 22 0 vvcurveto
            4 2 14 4 10 vhcurveto
            -2 3 38 -23 49 hhcurveto
            92 73 72 89 hvcurveto
            hintmask 0011001001000000
            30 -9 29 -17 28 vhcurveto
            21 12 24 4 13 1 rrcurveto
            -27 6 23 -7 10 hhcurveto
            17 23 12 29 hvcurveto
            -180 -111 rmoveto
            -57 -44 -44 -52 -54 -42 47 53 vhcurveto
            hintmask 1100110010010000
            57 44 44 52 54 42 -47 -53 vhcurveto
            108 -359 rmoveto
            -44 -75 -43 -100 -100 -75 43 44 18 9 32 32 20 vhcurveto
            16 25 9 0 73 hhcurveto
            89 113 0 -86 hvcurveto
            return
          </CharString>
          <CharString index="28">
            rmoveto
            -13 15 -22 1 -15 -13 -77 -70 rcurveline
            -14 -13 -2 -22 13 -14 13 -15 22 -1 15 13 77 70 rcurveline
            14 13 2 22 -13 14 rrcurveto
            194 hmoveto
            -13 15 -22 1 -15 -13 -77 -70 rcurveline
            -14 -13 -2 -22 13 -14 13 -15 22 -1 15 13 77 70 rcurveline
            14 13 2 22 -13 14 rrcurveto
            endchar
          </CharString>
          <CharString index="29">
            28 30 26 16 14 hhcurveto
            10 8 -9 -12 13 hvcurveto
            return
          </CharString>
          <CharString index="30">
            467 30 rmoveto
            31 -24 0 -16 vhcurveto
            -130 509 hlineto
            26 callgsubr
            26 0 14 hvcurveto
            130 -489 -129 -82 callgsubr
            329 -42 callsubr
            return
          </CharString>
          <CharString index="31">
            -15 -59 callgsubr
            return
          </CharString>
          <CharString index="32">
            481 41 rmoveto
            92 vlineto
            39 callgsubr
            -72 -275 vlineto
            329 485 rlineto
            10 15 0 6 10 vvcurveto
            34 -22 0 -19 vhcurveto
            -334 7 callgsubr
            258 vlineto
            -329 -485 rlineto
            -10 -15 0 -6 -10 vvcurveto
            -34 22 0 19 vhcurveto
            352 -5 callsubr
            return
          </CharString>
          <CharString index="33">
            rmoveto
            16 -15 16 -16 -11 -6 -5 -6 -7 vhcurveto
            return
          </CharString>
          <CharString index="34">
            495 643 rmoveto
            30 -12 37 -38 1 vhcurveto
            -30 -1 -20 -24 -25 vvcurveto
            -21 12 -19 20 -7 vhcurveto
            -6 -9 -7 -5 -8 -1 rrcurveto
            23 -38 -56 0 -51 hhcurveto
            -65 -75 0 -50 -32 hvcurveto
            -33 -51 0 -124 -92 vvcurveto
            -91 0 -124 33 -51 vhcurveto
            -50 32 75 0 65 hhcurveto
            66 74 0 50 33 hvcurveto
            33 51 0 124 91 vvcurveto
            80 0 104 -22 59 vhcurveto
            return
          </CharString>
          <CharString index="35">
            100 74 38 51 53 14 -28 -60 vhcurveto
            -227 -39 vlineto
            -16 -25 133 callgsubr
            153 39 callsubr
            return
          </CharString>
          <CharString index="36">
            468 305 rmoveto
            289 -21 28 -185 -185 -21 -27 -290 -289 21 -27 185 return
          </CharString>
          <CharString index="37">
            -17 -36 -45 0 -8 hhcurveto
            -62 -41 34 39 49 86 37 145 4 hvcurveto
            return
          </CharString>
          <CharString index="38">
            -69 callgsubr
            -110 -90 callsubr
            81 -309 -81 -90 callsubr
            261 -22 callsubr
            31 -26 0 -15 hvcurveto
            -111 125 hlineto
            return
          </CharString>
          <CharString index="39">
            -33 callsubr
            hintmask 00010000
            -55 callsubr
          </CharString>
          <CharString index="40">
            32 0 15 -40 -50 callgsubr
            -309 -49 callgsubr
            return
          </CharString>
          <CharString index="41">
            0 -31 -30 return
          </CharString>
          <CharString index="42">
            -20 -100 callsubr
            return
          </CharString>
          <CharString index="43">
            475 41 rmoveto
            58 vlineto
            39 callgsubr
            -38 -269 vlineto
            312 296 rlineto
            21 20 1 3 17 vvcurveto
            34 -22 0 -19 vhcurveto
            -340 97 callgsubr
            -46 -18 callsubr
            26 249 vlineto
            -312 -296 rlineto
            -21 -20 -1 -3 -17 vvcurveto
            -34 22 0 19 vhcurveto
            379 hlineto
            22 6 0 20 15 vvcurveto
            return
          </CharString>
          <CharString index="44">
            45 -213 hlineto
            -90 -81 -12 -32 -79 0 33 32 vhcurveto
            270 4 callsubr
            return
          </CharString>
          <CharString index="45">
            rmoveto
            82 -110 0 -66 -66 -110 0 -82 -19 11 -12 20 24 4 17 12 2 vhcurveto
            20 5 68 0 42 hhcurveto
            43 67 0 -20 5 hvcurveto
            -12 2 4 -17 24 hhcurveto
            19 12 12 19 hvcurveto
            endchar
          </CharString>
          <CharString index="46">
            rmoveto
            -102 callgsubr
            165 hmoveto
            -102 callgsubr
            endchar
          </CharString>
          <CharString index="47">
            512 30 rmoveto
            59 callsubr
            vhcurveto
            -44 232 hlineto
            101 -51 43 -79 -67 -45 -34 -19 -19 vhcurveto
            return
          </CharString>
          <CharString index="48">
            519 31 rmoveto
            30 -25 0 -15 -42 -10 5 3 -8 vhcurveto
            216 vlineto
            71 -54 84 -144 -43 -102 0 -73 -30 21 -16 24 15 28 9 37 1 vhcurveto
            8 1 1 20 2 vhcurveto
            1 14 13 0 9 hhcurveto
            76 52 -31 -71 hvcurveto
            -177 -3 -123 -50 -96 vvcurveto
            hintmask 1000000000000000
            -69 63 -65 102 37 62 7 31 47 vhcurveto
            hintmask 0100000000000000
            -31 22 48 -1 38 hhcurveto
            28 22 0 31 hvcurveto
            -169 103 rmoveto
            -23 0 -21 -39 -18 vhcurveto
            return
          </CharString>
          <CharString index="49">
            28 -6 83 -20 -87 vvcurveto
            -52 -43 -59 -79 -28 -49 4 27 -40 vhcurveto
            -42 27 -4 42 -1 18 rrcurveto
            17 -1 -1 18 -32 hhcurveto
            104 callgsubr
            hvcurveto
            -132 vlineto
            -16 0 -25 30 22 6 14 32 9 vhcurveto
            -30 40 61 -16 64 hhcurveto
            116 72 88 89 hvcurveto
            return
          </CharString>
          <CharString index="50">
            0 -30 -31 return
          </CharString>
          <CharString index="51">
            466 109 rmoveto
            28 -29 0 -6 -16 -10 -2 -20 -7 vhcurveto
            -13 -6 -19 -47 -74 hhcurveto
            -85 -72 70 91 48 28 115 135 21 39 0 -9 hvcurveto
            -35 1 19 -14 24 hhcurveto
            24 21 17 29 73 -104 0 -45 -172 -60 -136 -88 -120 94 -102 126 139 34 98 17 hvcurveto
            return
          </CharString>
          <CharString index="52">
            -16 15 -16 16 11 6 5 6 7 vhcurveto
            hintmask 00001000
            -78 callsubr
            hintmask 00010000
            -94 callsubr
          </CharString>
          <CharString index="53">
            525 263 rmoveto
            144 -118 118 -144 -145 -118 -118 -144 -145 118 -118 145 144 118 118 145 vhcurveto
            -38 hmoveto
            -124 -101 -101 -123 -124 -101 101 124 123 101 101 124 123 101 -101 -123 vhcurveto
            return
          </CharString>
          <CharString index="54">
            -20 47 callgsubr
            hintmask 01100110
            -105 callsubr
            hintmask 10000110
            -70 callsubr
            hintmask 00011000
            return
          </CharString>
          <CharString index="55">
            -96 callsubr
            14 hvcurveto
            return
          </CharString>
          <CharString index="56">
            504 109 rmoveto
            15 -12 13 -16 -22 -4 -19 -6 -2 vhcurveto
            -39 -10 -22 -18 -22 hhcurveto
            -44 -50 51 85 -8 hvcurveto
            172 hlineto
            36 4 11 31 133 -53 74 -72 -35 -42 -20 -52 -30 hvcurveto
            43 -24 -37 29 -54 hhcurveto
            -92 -25 -40 -33 -30 21 -16 24 8 33 3 42 3 hvcurveto
            3 -1 3 3 vvcurveto
            4 14 0 12 49 31 -35 -63 vhcurveto
            -33 vlineto
            -112 -1 -89 -46 -83 vvcurveto
            -59 42 -65 72 50 53 25 44 26 vhcurveto
            -10 7 41 -59 65 hhcurveto
            85 30 95 20 hvcurveto
            -57 142 rmoveto
            -155 hlineto
            64 6 38 64 43 hhcurveto
            return
          </CharString>
          <CharString index="57">
            hstemhm
            240 -48 callgsubr
            return
          </CharString>
          <CharString index="58">
            45 -256 hlineto
            -96 69 -24 73 41 41 10 28 37 vhcurveto
            return
          </CharString>
          <CharString index="59">
            485 301 rmoveto
            160 -86 150 -133 vhcurveto
            -206 -77 callgsubr
            22 -489 -22 -77 callgsubr
            206 hlineto
            131 88 140 161 hvcurveto
            -69 hmoveto
            -117 -58 -123 -111 vhcurveto
            -96 489 96 hlineto
            113 56 -133 -116 hvcurveto
            return
          </CharString>
          <CharString index="60">
            329 51 callgsubr
            return
          </CharString>
          <CharString index="61">
            -77 0 -106 -21 -42 vhcurveto
            -39 -20 -50 -4 -45 hhcurveto
            -45 -49 4 39 -20 hvcurveto
            -22 42 0 106 77 vvcurveto
            70 0 96 22 38 vhcurveto
            38 21 49 1 44 hhcurveto
            45 49 -1 -38 21 hvcurveto
            return
          </CharString>
          <CharString index="62">
            -16 12 -12 16 vhcurveto
            42 -346 hlineto
            -42 -12 -39 -24 -30 vhcurveto
            -27 -22 -29 -16 -31 hhcurveto
            -30 -29 16 27 -22 hvcurveto
            -24 30 -12 39 42 vvcurveto
            346 42 vlineto
            16 12 12 16 hvcurveto
            return
          </CharString>
          <CharString index="63">
            478 581 rmoveto
            30 54 callgsubr
            -181 -101 callsubr
            82 -410 hlineto
            -85 -82 -5 -19 -8 -48 0 26 -29 vhcurveto
            4 5 4 5 16 vvcurveto
            24 -19 20 -25 -23 -22 -15 -32 -63 66 -47 100 89 81 54 91 vhcurveto
            416 1 callsubr
            return
          </CharString>
          <CharString index="64">
            82 callsubr
            45 -21 42 -20 112 68 callsubr
            hintmask 0101010001000000
            -45 callgsubr
            hintmask 0010000000000000
            3 -4 -6 2 -6 hhcurveto
            -98 hlineto
            hintmask 0001000000000000
            -16 -12 -12 -16 hvcurveto
            -5 vlineto
            hintmask 1010000011000000
            3 callsubr
            hintmask 0001000100000000
            -10 7 -6 14 19 vvcurveto
            292 vlineto
            hintmask 0010000000000000
            16 -12 12 -16 vhcurveto
            -98 hlineto
            hintmask 0001000000000000
            -15 -13 -12 -16 hvcurveto
            -5 vlineto
            hintmask 1010000101000000
            -15 callgsubr
            hintmask 0000101000000000
            return
          </CharString>
          <CharString index="65">
            hlineto
            85 callsubr
            return
          </CharString>
          <CharString index="66">
            29 callgsubr
            79 90 94 -21 134 -20 24 callgsubr
            hintmask 0110000001001000
            -62 callgsubr
            hintmask 0010000000100000
            -52 callsubr
            hintmask 1010000101001000
            -63 callsubr
            hintmask 0010001000000000
            -52 callsubr
            hintmask 1010000100001000
            -49 callsubr
            hintmask 0100000000000100
            -41 callgsubr
            hintmask 0001110010010000
            5 callgsubr
            return
          </CharString>
          <CharString index="67">
            rmoveto
            31 54 callgsubr
            return
          </CharString>
          <CharString index="68">
            -30 -77 callgsubr
            return
          </CharString>
          <CharString index="69">
            115 -87 callsubr
            -115 203 115 -53 hlineto
            -14 0 -27 28 28 0 27 14 78 callgsubr
            -281 -90 callsubr
            -99 -489 rlineto
            -26 -22 -83 callgsubr
            71 -10 callsubr
            31 -23 0 -23 hvcurveto
            25 122 rlineto
            111 -122 hlineto
            -14 33 callsubr
            194 hlineto
            return
          </CharString>
          <CharString index="70">
            82 callgsubr
            29 -21 42 -20 112 -20 hstemhm
            57 69 271 69 hintmask 0001010000000000
            -17 callgsubr
            hintmask 0100000000000000
            -20 12 -19 20 -7 vhcurveto
            hintmask 0001000000000000
            -10 -6 -8 -6 -9 hhcurveto
            -5 -6 -2 -3 -4 hvcurveto
            hintmask 0010000000000000
            17 -29 -32 9 -34 hhcurveto
            hintmask 1100000110000000
            -66 callgsubr
            hintmask 0010000010000000
            7 callsubr
            hintmask 0000101000000000
            return
          </CharString>
          <CharString index="71">
            525 644 rmoveto
            30 -12 36 -38 1 vhcurveto
            -30 -1 -20 -24 -25 vvcurveto
            -19 10 -17 17 -9 vhcurveto
            -5 -4 -5 -3 -6 -3 rrcurveto
            3 -4 -6 2 -5 hhcurveto
            -84 hlineto
            return
          </CharString>
          <CharString index="72">
            496 580 rmoveto
            31 -24 0 -16 vhcurveto
            -106 -60 callgsubr
            return
          </CharString>
          <CharString index="73">
            29 callgsubr
            125 61 hstemhm
            111 69 30 80 -76 69 114 69 -40 69 hintmask 0111101100000000
            495 175 rmoveto
            49 -15 103 -97 68 vhcurveto
            69 37 14 46 30 vvcurveto
            65 -81 44 -96 -64 -114 -23 -93 vhcurveto
            -70 -54 vlineto
            -16 -24 -83 callgsubr
            54 -309 -54 -92 callgsubr
            83 -5 callsubr
            453 vlineto
            20 0 13 34 15 vhcurveto
            10 23 25 4 26 hhcurveto
            62 47 -25 -24 -22 -29 -51 -102 -3 hvcurveto
            -12 -1 -16 -7 -23 vvcurveto
            -25 24 -5 0 vhcurveto
            hintmask 1000010010000000
            135 -8 29 -132 -55 vvcurveto
            -77 -61 -43 -53 -7 -9 1 3 -6 vhcurveto
            hintmask 0000001000000000
            24 0 2 -7 10 vhcurveto
            9 -7 -12 7 -13 hhcurveto
            hintmask 1000010010000000
            -21 -20 -15 -27 -37 34 -38 68 92 91 71 110 hvcurveto
            endchar
          </CharString>
          <CharString index="74">
            -74 callsubr
            hintmask 00010000
            -78 callgsubr
            hintmask 00001000
            -91 callgsubr
            return
          </CharString>
          <CharString index="75">
            -16 12 -12 16 vhcurveto
            42 -346 hlineto
            -56 18 -53 35 -42 vhcurveto
            -39 34 49 -25 51 hhcurveto
            52 48 25 39 34 hvcurveto
            36 42 18 53 56 vvcurveto
            342 vlineto
            return
          </CharString>
          <CharString index="76">
            -105 callgsubr
            -22 return
          </CharString>
          <CharString index="77">
            -15 callsubr
            hstemhm
            27 185 -174 185 -52 185 -74 185 -156 185 hintmask 11010100
            496 -7 callgsubr
            -23 hlineto
            -141 265 113 224 rlineto
            22 -22 callsubr
            31 -26 0 -15 hvcurveto
            -104 hlineto
            -57 callgsubr
            23 0 23 hvcurveto
            -71 -146 -77 146 rlineto
            20 23 34 callsubr
            -104 -101 callsubr
            23 hlineto
            120 -225 -133 -264 rlineto
            -22 hlineto
            hintmask 10100000
            -16 -24 -83 callgsubr
            hintmask 10001000
            104 hlineto
            hintmask 10100000
            41 callgsubr
            31 -24 0 -23 hvcurveto
            92 194 rlineto
            hintmask 10001000
            99 -194 rlineto
            hintmask 10000010
            -23 -22 -83 callgsubr
            104 89 callgsubr
          </CharString>
          <CharString index="78">
            -63 callsubr
            hintmask 0010010000000000
            -52 callsubr
            return
          </CharString>
          <CharString index="79">
            -95 callsubr
            173 -87 callsubr
            -52 489 return
          </CharString>
          <CharString index="80">
            31 -6 10 -34 -50 callgsubr
            return
          </CharString>
          <CharString index="81">
            15 25 0 30 return
          </CharString>
          <CharString index="82">
            33 7 9 32 hvcurveto
            return
          </CharString>
          <CharString index="83">
            519 31 rmoveto
            30 -25 0 -15 -42 -10 5 3 -8 vhcurveto
            216 vlineto
            71 -54 84 -144 -43 -102 0 -73 -30 21 -16 24 15 28 9 37 1 vhcurveto
            8 1 1 20 2 vhcurveto
            1 14 13 0 9 hhcurveto
            76 52 -31 -71 hvcurveto
            -177 -3 -123 -50 -96 vvcurveto
            hintmask 11000000
            -69 63 -65 102 37 62 7 31 47 vhcurveto
            8 -11 12 -8 13 -4 rrcurveto
            -39 -25 -37 -45 50 callgsubr
            hintmask 00100000
            43 39 36 53 31 vhcurveto
            28 22 0 31 hvcurveto
            -169 103 rmoveto
            -23 0 -21 -39 -18 vhcurveto
            return
          </CharString>
          <CharString index="84">
            73 -44 callgsubr
            return
          </CharString>
          <CharString index="85">
            hlineto
            41 callgsubr
            return
          </CharString>
          <CharString index="86">
            0 71 callgsubr
            hstem
            40 69 306 69 vstem
            492 41 rmoveto
            26 vlineto
            14 0 27 -28 -28 0 -26 -21 vhcurveto
            -64 hlineto
            7 49 16 35 32 67 rrcurveto
            29 63 28 62 69 vvcurveto
            122 -101 94 -121 -121 -101 -94 -122 -71 30 -65 30 -65 vhcurveto
            31 -65 14 -34 7 -45 rrcurveto
            -64 hlineto
            21 0 26 -28 -28 0 -27 -14 vhcurveto
            -26 vlineto
            -33 8 -8 33 vhcurveto
            103 hlineto
            19 21 0 35 65 -30 70 -25 56 hvcurveto
            -28 67 -24 55 58 vvcurveto
            90 72 65 81 81 72 -65 -90 -59 -23 -54 -31 -72 vhcurveto
            -21 -48 -32 -73 -65 vvcurveto
            -35 22 0 19 vhcurveto
            103 88 callgsubr
          </CharString>
          <CharString index="87">
            37 -30 26 -32 -38 -25 -31 -31 -37 30 -26 32 38 25 31 31 vhcurveto
            return
          </CharString>
          <CharString index="88">
            -200 100 94 15 callgsubr
            hstemhm
            50 69 94 100 37 69 hintmask 00111010
            519 31 rmoveto
            30 -25 0 -15 -42 -10 5 3 -8 vhcurveto
            216 vlineto
            71 -54 84 -144 -43 -102 0 -73 -30 21 -16 24 15 28 9 37 1 vhcurveto
            8 1 1 20 2 vhcurveto
            1 14 13 0 9 hhcurveto
            76 52 -31 -71 hvcurveto
            -177 -3 -123 -50 -96 vvcurveto
            hintmask 01000000
            -69 63 -65 102 37 62 7 31 47 vhcurveto
            hintmask 00100000
            -31 22 48 -1 38 hhcurveto
            28 22 0 31 hvcurveto
            -169 103 rmoveto
            -23 0 -21 -39 -18 vhcurveto
            hintmask 01001010
            -70 callsubr
            return
          </CharString>
          <CharString index="89">
            vlineto
            -68 callgsubr
            return
          </CharString>
          <CharString index="90">
            -32 callsubr
            hintmask 0010000000000000
            43 13 33 38 47 vvcurveto
            return
          </CharString>
          <CharString index="91">
            468 305 rmoveto
            289 -21 28 -185 -185 -21 -27 -290 -270 18 -41 153 -5 vhcurveto
            -28 -25 -22 -36 -36 -84 callgsubr
            40 19 36 29 23 hvcurveto
            164 3 20 36 277 vvcurveto
            -69 9 rmoveto
            -62 0 -71 -11 -54 vhcurveto
            -56 -11 -26 -21 -89 hhcurveto
            -88 -25 21 50 -12 hvcurveto
            -12 51 0 87 55 vvcurveto
            62 0 68 11 46 vhcurveto
            59 13 31 12 82 hhcurveto
            75 35 -9 -55 15 hvcurveto
            12 -47 0 -75 -61 vvcurveto
            return
          </CharString>
          <CharString index="92">
            0 -25 callgsubr
            return
          </CharString>
          <CharString index="93">
            66 callsubr
            hstemhm
            91 69 232 69 -48 69 hintmask 10111000
            482 167 rmoveto
            69 -48 65 -81 19 vhcurveto
            64 22 44 52 62 vvcurveto
            73 -61 82 -111 vhcurveto
            -226 hlineto
            -14 33 callsubr
            27 -489 -27 -82 callgsubr
            246 hlineto
            hintmask 01110100
            113 60 89 78 hvcurveto
            -90 288 rmoveto
            -41 -32 -66 -97 vhcurveto
            -103 202 125 hlineto
            hintmask 11011000
            85 22 -62 -33 hvcurveto
            21 -286 rmoveto
            -49 -39 -59 -87 vhcurveto
            -127 226 138 hlineto
            hintmask 00000100
            85 30 -73 -45 hvcurveto
            endchar
          </CharString>
          <CharString index="94">
            47 callgsubr
            hintmask 01101100
            -105 callsubr
            hintmask 10001100
            -70 callsubr
            return
          </CharString>
          <CharString index="95">
            -16 -24 -83 callgsubr
            376 -5 callsubr
            return
          </CharString>
          <CharString index="96">
            94 59 96 121 vhcurveto
            -24 1 17 -20 25 hhcurveto
            22 20 16 27 hvcurveto
            return
          </CharString>
          <CharString index="97">
            hlineto
            -26 callsubr
            return
          </CharString>
          <CharString index="98">
            -25 hlineto
            -6 callgsubr
            hvcurveto
            return
          </CharString>
          <CharString index="99">
            0 61 214 62 213 54 callsubr
            -213 -28 hlineto
            -17 -14 -14 -17 -18 14 -13 17 hvcurveto
            28 -214 -22 -77 callgsubr
            206 hlineto
            131 88 140 161 hvcurveto
            -69 hmoveto
            -117 -58 -123 -111 vhcurveto
            -96 214 59 hlineto
            17 14 13 18 17 -14 14 -17 hvcurveto
            -59 213 126 callgsubr
          </CharString>
          <CharString index="100">
            rmoveto
            71 -47 59 -66 30 vhcurveto
            56 36 28 57 54 vvcurveto
            74 -73 67 -115 -120 -70 -48 -69 -33 25 -14 20 21 23 17 28 14 -6 10 -3 3 vhcurveto
            31 31 71 0 9 hhcurveto
            68 50 -36 -45 -30 -15 -35 -27 -22 hvcurveto
            -32 -26 -25 -2 -36 -2 rrcurveto
            -57 -4 -15 0 -29 vvcurveto
            -31 24 0 16 vhcurveto
            46 hlineto
            hintmask 10010101
            99 51 -67 -58 -61 -56 -63 -91 -40 -77 11 47 -26 hvcurveto
            5 5 7 6 20 vvcurveto
            24 -19 20 -25 -23 -22 -15 -32 -89 97 -58 123 131 85 92 93 vhcurveto
            endchar
          </CharString>
          <CharString index="101">
            -6 4 callgsubr
            return
          </CharString>
          <CharString index="102">
            hlineto
            -25 callsubr
            return
          </CharString>
          <CharString index="103">
            -92 callgsubr
            37 return
          </CharString>
          <CharString index="104">
            -15 callsubr
            hstemhm
            26 69 -28 69 92 69 92 69 -29 69 hintmask 00000010
            53 callgsubr
            hintmask 01010100
            48 callgsubr
            hintmask 11101000
            -47 callgsubr
            133 -489 -52 vlineto
            hintmask 11011100
            -28 callsubr
            hlineto
            hintmask 01000010
            132 -58 callgsubr
            return
          </CharString>
          <CharString index="105">
            vhcurveto
            -133 return
          </CharString>
          <CharString index="106">
            rmoveto
            101 -77 98 -118 -35 -44 -7 -22 -41 vhcurveto
            190 240 6 callgsubr
            -269 hlineto
            -33 -7 -9 -32 hvcurveto
            -266 vlineto
            -18 0 -23 32 18 4 5 10 8 vhcurveto
            32 27 41 18 58 hhcurveto
            82 45 -73 -65 -80 -71 -60 -84 -28 -64 8 55 -28 hvcurveto
            5 5 8 7 20 vvcurveto
            29 -23 16 -21 -15 -30 -9 -39 -83 84 -70 112 125 99 90 111 vhcurveto
            endchar
          </CharString>
          <CharString index="107">
            rmoveto
            241 -111 69 -95 -111 -101 -83 -121 -114 88 -89 110 52 52 17 41 45 vhcurveto
            -124 -10 -78 -99 -96 hhcurveto
            -9 -36 1 16 -21 hvcurveto
            4 5 5 6 17 vvcurveto
            24 -18 20 -26 -25 -20 -17 -30 -32 18 -71 128 132 123 125 198 vhcurveto
            -78 77 rmoveto
            -55 -54 -57 -83 -81 -53 67 74 87 71 56 72 43 28 -23 -20 16 vhcurveto
            hintmask 00001000
            32 -39 9 return
          </CharString>
          <CharString index="108">
            30 vlineto
            -19 callgsubr
            return
          </CharString>
          <CharString index="109">
            rmoveto
            46 -29 29 -33 -30 -18 -22 -24 vhcurveto
            hintmask 01100000
            -29 22 -19 25 4 6 1 2 5 vhcurveto
            -11 -47 -36 -12 -9 -3 rrcurveto
            -7 -2 -14 -4 -15 vvcurveto
            -11 12 -13 12 24 77 41 82 vhcurveto
            endchar
          </CharString>
          <CharString index="110">
            -15 12 -13 16 vhcurveto
            56 -223 hlineto
            -50 -48 -40 -61 -32 -20 3 11 -15 vhcurveto
            return
          </CharString>
          <CharString index="111">
            -44 callgsubr
            -73 hlineto
            return
          </CharString>
          <CharString index="112">
            210 527 rmoveto
            -102 callgsubr
            195 hmoveto
            -102 callgsubr
            return
          </CharString>
          <CharString index="113">
            -6 15 callgsubr
            return
          </CharString>
          <CharString index="114">
            27 24 35 18 36 hhcurveto
            37 35 -18 -27 24 hvcurveto
            26 -30 14 -39 -40 vvcurveto
            return
          </CharString>
          <CharString index="115">
            -208 62 -31 111 0 111 hstemhm
            260 69 30 69 hintmask 10111000
            428 -106 rmoveto
            75 callsubr
            37 0 17 -34 -35 0 -22 -20 vhcurveto
            -27 134 callgsubr
            84 callsubr
            -40 -99 0 -38 vhcurveto
            hintmask 01000000
            -38 -22 0 -31 hvcurveto
            hintmask 10001000
            141 callgsubr
            endchar
          </CharString>
          <CharString index="116">
            rmoveto
            32 -23 0 -17 vhcurveto
            -122 19 callgsubr
            -32 24 0 17 hvcurveto
            121 hlineto
            16 24 67 callsubr
          </CharString>
          <CharString index="117">
            -90 callsubr
            25 return
          </CharString>
          <CharString index="118">
            0 12 callgsubr
            return
          </CharString>
          <CharString index="119">
            30 33 -32 -96 5 hvcurveto
            -213 -62 rmoveto
            -1 -11 0 -15 -29 vvcurveto
            -19 0 -21 -22 -18 vhcurveto
            -19 -23 -28 -2 -7 hhcurveto
            -41 -23 34 30 43 66 24 79 3 hvcurveto
            return
          </CharString>
          <CharString index="120">
            -42 41 43 -9 32 hhcurveto
            109 97 95 127 hvcurveto
            -69 hmoveto
            -96 -70 -65 -70 -78 -35 88 48 vhcurveto
            73 vlineto
            return
          </CharString>
          <CharString index="121">
            184 22 27 289 return
          </CharString>
          <CharString index="122">
            113 rmoveto
            17 -8 7 -7 6 vhcurveto
            -188 163 188 163 rlineto
            7 6 8 7 17 vvcurveto
            21 -11 11 -11 -6 -2 -1 -8 -10 vhcurveto
            -215 -186 rlineto
            -6 -6 -8 -7 -17 vvcurveto
            -12 5 -10 6 -6 vhcurveto
            218 -188 rlineto
            -8 10 2 -1 6 hhcurveto
            11 11 11 21 hvcurveto
            return
          </CharString>
          <CharString index="123">
            hstemhm
            29 58 -19 69 -57 69 180 14 callgsubr
            return
          </CharString>
          <CharString index="124">
            -98 callgsubr
            hintmask 00100000
            return
          </CharString>
          <CharString index="125">
            84 callsubr
            -40 -99 0 -38 -38 -22 0 -31 -23 16 -8 15 95 140 0 102 return
          </CharString>
          <CharString index="126">
            -6 56 callgsubr
            return
          </CharString>
          <CharString index="127">
            -36 0 -14 40 vhcurveto
            73 hlineto
            -19 callgsubr
            -154 163 rmoveto
            return
          </CharString>
          <CharString index="128">
            -106 callsubr
            -1 159 -74 callsubr
            return
          </CharString>
          <CharString index="129">
            vlineto
            26 callgsubr
            return
          </CharString>
          <CharString index="130">
            372 100 hstem
            183 61 vstem
            344 649 rmoveto
            18 -17 14 -14 -24 -106 -69 -126 -77 37 -37 41 33 18 26 24 27 -20 23 -30 -7 -7 -1 0 vhcurveto
            -4 0 9 6 19 3 72 79 46 hvcurveto
            8 5 10 5 16 vvcurveto
            endchar
          </CharString>
          <CharString index="131">
            27 187 96 187 return
          </CharString>
          <CharString index="132">
            -115 90 -97 119 -10 vhcurveto
            -39 -25 -18 -31 49 callgsubr
            40 53 31 hvcurveto
            return
          </CharString>
          <CharString index="133">
            326 rmoveto
            16 -12 0 -8 vhcurveto
            -46 260 hlineto
            8 0 12 -15 -9 -3 -6 -6 -3 vhcurveto
            -19 -42 -26 -6 -9 -1 rrcurveto
            -8 -11 -1 -14 -13 9 -2 8 9 21 3 19 22 hvcurveto
            -211 -46 vlineto
            -8 -12 0 -16 return
          </CharString>
          <CharString index="134">
            -228 61 -61 126 -44 61 455 61 return
          </CharString>
          <CharString index="135">
            61 225 139 callgsubr
            return
          </CharString>
          <CharString index="136">
            rmoveto
            35 -37 0 -14 vhcurveto
            -346 hlineto
            -14 -37 0 -35 -35 33 0 12 hvcurveto
            358 hlineto
            12 33 0 35 hvcurveto
            return
          </CharString>
          <CharString index="137">
            0 64 callgsubr
            return
          </CharString>
          <CharString index="138">
            rmoveto
            24 -20 20 -24 -24 -20 -20 -24 -24 20 -20 24 24 20 20 24 vhcurveto
            return
          </CharString>
          <CharString index="139">
            -15 13 -13 16 vhcurveto
            97 hlineto
            16 13 13 15 hvcurveto
            return
          </CharString>
          <CharString index="140">
            -59 callgsubr
            25 0 16 hvcurveto
            return
          </CharString>
          <CharString index="141">
            0 31 30 -25 0 -15 hvcurveto
            return
          </CharString>
          <CharString index="142">
            hstemhm
            24 callsubr
            return
          </CharString>
          <CharString index="143">
            -11 51 callsubr
            return
          </CharString>
          <CharString index="144">
            683 vlineto
            12 0 35 -35 -35 0 -35 -12 vhcurveto
            -683 vlineto
            -12 0 -35 35 35 0 35 12 vhcurveto
            return
          </CharString>
          <CharString index="145">
            hlineto
            -17 -14 -14 -17 -17 14 -14 17 hvcurveto
            return
          </CharString>
          <CharString index="146">
            49 callsubr
            hvcurveto
            return
          </CharString>
          <CharString index="147">
            99 rmoveto
            18 -15 17 -20 -24 -7 -19 -12 -5 vhcurveto
            -273 -689 rlineto
            -4 -10 -2 -5 -7 vvcurveto
            116 callgsubr
            24 7 18 11 4 vhcurveto
            274 691 rlineto
            4 10 2 5 7 vvcurveto
            return
          </CharString>
          <CharString index="148">
            -76 98 0 41 145 36 120 64 vhcurveto
            return
          </CharString>
          <CharString index="149">
            rlineto
            21 -42 callsubr
            return
          </CharString>
          <CharString index="150">
            -310 127 rmoveto
            -102 callgsubr
            195 hmoveto
            -102 callgsubr
            return
          </CharString>
          <CharString index="151">
            -64 -62 -35 -59 -52 43 -41 53 60 57 25 42 26 hvcurveto
            -31 42 42 -36 53 hhcurveto
            71 42 76 79 hvcurveto
            -308 -51 rmoveto
            -25 -11 -38 -9 -36 hhcurveto
            -14 -12 10 13 hvcurveto
            return
          </CharString>
          <CharString index="152">
            7 11 6 vhcurveto
            315 571 rlineto
            3 5 1 6 6 vvcurveto
            return
          </CharString>
          <CharString index="153">
            hstemhm
            12 48 callsubr
            return
          </CharString>
          <CharString index="154">
            32 18 18 38 39 vvcurveto
            -98 -325 rmoveto
            return
          </CharString>
          <CharString index="155">
            154 -69 69 return
          </CharString>
          <CharString index="156">
            hlineto
            14 26 0 30 return
          </CharString>
          <CharString index="157">
            271 70 hstem
            525 120 callsubr
            -431 -21 callgsubr
            431 88 callsubr
          </CharString>
          <CharString index="158">
            61 511 61 return
          </CharString>
          <CharString index="159">
            60 callsubr
            hstemhm
            return
          </CharString>
          <CharString index="160">
            61 159 61 291 61 return
          </CharString>
          <CharString index="161">
            61 hstem
            82 69 265 69 vstem
            485 301 rmoveto
            160 -86 150 -133 vhcurveto
            -206 -77 callgsubr
            22 return
          </CharString>
          <CharString index="162">
            28 -22 22 -28 -28 -22 -22 -28 -28 22 -22 28 28 22 22 28 vhcurveto
            endchar
          </CharString>
          <CharString index="163">
            vvcurveto
            60 49 50 61 45 43 -23 -37 15 vhcurveto
            -7 -8 -5 -10 -12 vvcurveto
            -24 20 -20 24 24 20 20 24 92 -84 68 -95 -100 -80 -81 -99 return
          </CharString>
          <CharString index="164">
            hstemhm
            79 callsubr
            return
          </CharString>
          <CharString index="165">
            -16 -24 0 -31 return
          </CharString>
          <CharString index="166">
            31 -25 0 -16 return
          </CharString>
          <CharString index="167">
            40 callgsubr
            33 -25 callgsubr
            return
          </CharString>
          <CharString index="168">
            hstemhm
            29 58 -19 69 -57 69 return
          </CharString>
          <CharString index="169">
            -142 143 hlineto
            12 0 35 -35 -35 0 -35 -12 vhcurveto
            -143 -142 vlineto
            -12 -35 0 -35 -35 35 0 12 hvcurveto
            142 return
          </CharString>
          <CharString index="170">
            hlineto
            -76 callsubr
            return
          </CharString>
          <CharString index="171">
            488 216 rmoveto
            123 -89 98 -106 -48 -45 -18 -31 -34 vhcurveto
            return
          </CharString>
          <CharString index="172">
            62 -56 61 308 61 -28 62 return
          </CharString>
          <CharString index="173">
            0 61 callgsubr
            return
          </CharString>
          <CharString index="174">
            0 31 hvcurveto
            endchar
          </CharString>
          <CharString index="175">
            -20 74 callgsubr
            return
          </CharString>
          <CharString index="176">
            97 callsubr
            113 61 return
          </CharString>
          <CharString index="177">
            -11 71 callgsubr
            return
          </CharString>
          <CharString index="178">
            115 callgsubr
            -80 -21 callgsubr
            80 88 callsubr
          </CharString>
          <CharString index="179">
            59 58 53 63 74 58 -73 -87 vhcurveto
            endchar
          </CharString>
          <CharString index="180">
            vlineto
            17 -14 14 -17 -17 -14 -14 -17 vhcurveto
            return
          </CharString>
          <CharString index="181">
            109 69 241 69 return
          </CharString>
          <CharString index="182">
            39 -28 44 -71 14 vhcurveto
            return
          </CharString>
          <CharString index="183">
            61 249 64 198 61 hstemhm
            44 89 -60 89 13 89 118 69 -40 69 hintmask 01101110
            480 return
          </CharString>
          <CharString index="184">
            507 144 rmoveto
            19 -15 16 -20 -19 -16 -16 -19 -41 -8 -44 -35 -48 -37 28 29 -38 vhcurveto
            return
          </CharString>
          <CharString index="185">
            hstemhm
            56 69 251 69 -48 98 return
          </CharString>
          <CharString index="186">
            75 69 236 69 return
          </CharString>
          <CharString index="187">
            -13 1 -23 4 -23 5 rrcurveto
            6 -22 -34 8 -25 hhcurveto
            -41 -3 -28 -5 -13 7 -21 37 hvcurveto
            return
          </CharString>
          <CharString index="188">
            hlineto
            14 115 rlineto
            37 5 -24 10 -15 hhcurveto
            -31 -4 -29 -12 -1 hvcurveto
            -15 -121 rlineto
            return
          </CharString>
          <CharString index="189">
            -6 65 callsubr
            return
          </CharString>
          <CharString index="190">
            hstem
            166 50 94 50 vstem
            310 return
          </CharString>
          <CharString index="191">
            44 -2 23 -18 -20 vvcurveto
            return
          </CharString>
          <CharString index="192">
            -26 callsubr
            hvcurveto
            return
          </CharString>
          <CharString index="193">
            560 rmoveto
            78 -39 56 -48 -49 -38 -58 -75 -78 39 -56 48 49 38 58 75 vhcurveto
            return
          </CharString>
          <CharString index="194">
            49 95 callgsubr
            -29 return
          </CharString>
          <CharString index="195">
            hlineto
            86 callgsubr
            hvcurveto
            endchar
          </CharString>
          <CharString index="196" raw="1">
            fc7d7206 0b  
          </CharString>
          <CharString index="197">
            61 hstemhm
            273 48 callsubr
            -69 154 return
          </CharString>
          <CharString index="198">
            92 callsubr
            95 70 0 70 return
          </CharString>
          <CharString index="199">
            hstemhm
            4 70 0 70 0 70 return
          </CharString>
          <CharString index="200">
            rmoveto
            74 -37 59 -50 -50 -37 -59 -74 -74 37 -59 50 50 37 59 74 vhcurveto
            return
          </CharString>
          <CharString index="201">
            rmoveto
            13 -7 21 -37 -24 -35 -8 -6 -24 vhcurveto
            -4 -1 -30 -7 -23 -2 1 return
          </CharString>
          <CharString index="202">
            509 51 callgsubr
            return
          </CharString>
          <CharString index="203">
            72 -2 callgsubr
            return
          </CharString>
          <CharString index="204">
            61 315 61 return
          </CharString>
          <CharString index="205">
            21 -21 611 -20 hstem
            80 -21 167 71 167 -20 vstem
            464 return
          </CharString>
          <CharString index="206">
            rlineto
            7 5 4 9 9 vvcurveto
            17 -14 14 -17 -8 -7 -3 -4 -5 vhcurveto
            return
          </CharString>
          <CharString index="207">
            hlineto
            -17 -59 callgsubr
            25 0 18 hvcurveto
            return
          </CharString>
          <CharString index="208">
            hlineto
            -19 -16 -16 -19 -20 16 -15 19 hvcurveto
            return
          </CharString>
          <CharString index="209">
            hstemhm
            33 56 65 57 236 57 -56 56 return
          </CharString>
          <CharString index="210">
            41 rmoveto
            89 vlineto
            return
          </CharString>
          <CharString index="211">
            -83 61 297 61 297 61 hstem
            228 69 cntrmask 11100000
            467 return
          </CharString>
          <CharString index="212">
            61 callsubr
            180 69 -26 58 -4 69 -58 58 return
          </CharString>
          <CharString index="213">
            hlineto
            -11 -9 -8 -10 -2 hvcurveto
            -4 -16 rlineto
            -14 -4 11 -14 15 hhcurveto
            return
          </CharString>
          <CharString index="214" raw="1">
            85c854c8 0b  
          </CharString>
          <CharString index="215">
            -23 16 -8 15 95 140 0 102 75 callsubr
            return
          </CharString>
          <CharString index="216">
            152 -21 140 70 140 -20 hstem
            495 306 rmoveto
            return
          </CharString>
          <CharString index="217">
            132 callsubr
            hstemhm
            120 90 18 69 18 90 return
          </CharString>
          <CharString index="218">
            11 callsubr
            70 64 return
          </CharString>
          <CharString index="219">
            82 -42 callsubr
            return
          </CharString>
          <CharString index="220">
            hstemhm
            96 69 -69 152 return
          </CharString>
          <CharString index="221">
            -15 callsubr
            hstem
            return
          </CharString>
          <CharString index="222">
            93 56 226 56 return
          </CharString>
          <CharString index="223">
            rlineto
            -9 -13 0 -2 -20 vvcurveto
            -33 9 -7 31 vhcurveto
            252 return
          </CharString>
          <CharString index="224">
            16 -6 -18 0 -8 hhcurveto
            -34 0 -22 -19 hvcurveto
            -42 vlineto
            return
          </CharString>
          <CharString index="225">
            0 69 callsubr
            return
          </CharString>
          <CharString index="226">
            -200 100 89 51 callsubr
            return
          </CharString>
          <CharString index="227">
            306 rmoveto
            115 callgsubr
            return
          </CharString>
          <CharString index="228">
            64 49 -20 40 64 -59 64 hstemhm
            hintmask 11100000
            439 return
          </CharString>
          <CharString index="229">
            69 callgsubr
            56 return
          </CharString>
          <CharString index="230">
            -309 vlineto
            -36 -21 133 callgsubr
            return
          </CharString>
          <CharString index="231">
            30 -2 -20 0 -18 hhcurveto
            -32 hlineto
            -15 -26 0 -30 return
          </CharString>
          <CharString index="232">
            -32 -4 -66 -82 -55 vhcurveto
            -17 -12 -42 -28 -58 vvcurveto
            return
          </CharString>
          <CharString index="233">
            23 30 1 26 20 18 -5 -8 17 vhcurveto
            endchar
          </CharString>
          <CharString index="234">
            16 199 94 199 return
          </CharString>
          <CharString index="235">
            61 -55 61 hstemhm
            return
          </CharString>
          <CharString index="236">
            35 80 35 -31 35 -14 34 -28 34 0 35 return
          </CharString>
          <CharString index="237">
            119 callgsubr
            -55 61 hstemhm
            return
          </CharString>
          <CharString index="238">
            -13 -9 -4 -18 9 -14 rlinecurve
            1 hlineto
            8 -13 return
          </CharString>
          <CharString index="239">
            -15 callsubr
            52 90 return
          </CharString>
          <CharString index="240">
            -2 callgsubr
            97 69 return
          </CharString>
          <CharString index="241">
            90 94 -2 callgsubr
            return
          </CharString>
          <CharString index="242">
            hstemhm
            11 160 -9 160 return
          </CharString>
          <CharString index="243">
            38 69 273 69 return
          </CharString>
          <CharString index="244">
            140 callgsubr
            hstemhm
            return
          </CharString>
          <CharString index="245">
            64 49 -20 hstemhm
            return
          </CharString>
          <CharString index="246">
            35 -35 0 -12 return
          </CharString>
          <CharString index="247">
            hlineto
            -17 -14 -10 -12 -12 14 -9 17 hvcurveto
            return
          </CharString>
          <CharString index="248">
            135 callsubr
            31 160 return
          </CharString>
          <CharString index="249">
            90 hstem
            -390 90 75 90 vstem
            -300 return
          </CharString>
          <CharString index="250">
            96 callgsubr
            97 69 return
          </CharString>
          <CharString index="251">
            0 61 373 -21 104 94 -61 61 hstemhm
            return
          </CharString>
          <CharString index="252">
            61 -55 96 callgsubr
            return
          </CharString>
          <CharString index="253">
            vlineto
            18 0 16 -22 -21 0 -17 -17 vhcurveto
            return
          </CharString>
          <CharString index="254">
            21 0 31 hvcurveto
            return
          </CharString>
        <CharString name=".notdef">
          173 endchar
        </CharString>
        <CharString name="A">
          11 callsubr
          hstem
          24 callsubr
          vstem
          -106 callgsubr
          endchar
        </CharString>
        <CharString name="AE">
          -32 callgsubr
        </CharString>
        <CharString name="AE.dup">
          -32 callgsubr
        </CharString>
        <CharString name="AEacute">
          0 61 122 61 42 139 callgsubr
          83 -2 callgsubr
          23 151 90 56 0 151 -36 56 -48 56 hintmask 0000000000100000
          499 103 callsubr
          hintmask 0000000010000000
          14 0 27 -28 vhcurveto
          hintmask 1010000100100000
          -28 0 -27 -14 hvcurveto
          -69 -123 225 vlineto
          hintmask 1111001101000000
          -38 callsubr
          hintmask 0101000100100000
          -25 callsubr
          -235 203 rmoveto
          -99 hlineto
          62 306 rlineto
          37 hlineto
          hintmask 0000110000000000
          105 222 -107 callsubr
        </CharString>
        <CharString name="Aacute">
          11 callsubr
          91 -21 134 -20 35 callsubr
          hintmask 11100110
          -106 callgsubr
          hintmask 00011000
          107 232 -107 callsubr
        </CharString>
        <CharString name="Abreve">
          111 callsubr
          49 -20 35 callsubr
          hintmask 11100110
          -106 callgsubr
          hintmask 00011000
          177 215 -94 callgsubr
        </CharString>
        <CharString name="Abreveacute">
          111 callsubr
          69 64 -59 64 65 -20 35 callsubr
          hintmask 1110000110000000
          -106 callgsubr
          hintmask 0001011000000000
          177 215 -106 callsubr
          -70 150 rmoveto
          20 -15 15 -20 vhcurveto
          0 -8 0 -11 -5 -2 callsubr
          -60 rlineto
          -14 -6 -11 -5 -18 vvcurveto
          hintmask 0000100000000000
          -8 7 -32 26 vhcurveto
          hintmask 0000010000000000
          7 5 2 3 6 hvcurveto
          hintmask 0000100000000000
          133 59 rlineto
          24 11 4 13 11 vvcurveto
          endchar
        </CharString>
        <CharString name="Abrevedotbelow">
          -200 100 100 12 callgsubr
          70 138 callsubr
          27 187 -1 100 -3 187 hintmask 0111111010000000
          -106 callgsubr
          177 215 -106 callsubr
          hintmask 1000000100000000
          -126 -905 rmoveto
          55 callsubr
        </CharString>
        <CharString name="Abrevegrave">
          111 callsubr
          49 -20 40 64 -59 64 35 callsubr
          hintmask 1110000110000000
          -106 callgsubr
          hintmask 0001110000000000
          177 215 -106 callsubr
          -70 91 rmoveto
          -8 -7 -32 -26 vhcurveto
          hintmask 0000001000000000
          -7 -5 2 3 -6 hvcurveto
          hintmask 0000010000000000
          -133 59 rlineto
          -24 11 -4 13 11 vvcurveto
          20 15 15 20 vhcurveto
          0 8 0 11 -5 vhcurveto
          hintmask 0000001000000000
          133 -60 rlineto
          14 -6 11 -5 -18 vvcurveto
          endchar
        </CharString>
        <CharString name="Abrevehookabove">
          111 callsubr
          279 -20 35 callsubr
          hintmask 11100110
          -106 callgsubr
          hintmask 00011100
          177 215 -106 callsubr
          -77 181 -107 callgsubr
        </CharString>
        <CharString name="Abrevetilde">
          111 callsubr
          89 65 -10 65 35 callsubr
          hintmask 11100011
          -106 callgsubr
          hintmask 00010100
          177 215 21 callsubr
          hintmask 00001000
          -78 callgsubr
          hintmask 00000100
          -91 callgsubr
          hintmask 00001000
          -16 15 -16 16 11 6 5 6 7 vhcurveto
          hintmask 00000100
          -78 callsubr
          hintmask 00001000
          -94 callsubr
        </CharString>
        <CharString name="Acaron">
          11 callsubr
          35 callsubr
          vstemhm
          -106 callgsubr
          128 168 rmoveto
          -82 callsubr
        </CharString>
        <CharString name="Acircumflex">
          11 callsubr
          35 callsubr
          vstemhm
          -106 callgsubr
          129 181 -105 callgsubr
          endchar
        </CharString>
        <CharString name="Acircumflexacute">
          11 callsubr
          316 -20 35 callsubr
          hintmask 11101100
          -106 callgsubr
          hintmask 00010000
          129 181 -31 callsubr
          163 -107 callsubr
        </CharString>
        <CharString name="Acircumflexdotbelow">
          -200 100 100 12 callgsubr
          hstemhm
          27 187 -1 100 -3 187 hintmask 01111010
          -106 callgsubr
          129 181 -105 callgsubr
          hintmask 10000100
          -78 -871 rmoveto
          55 callsubr
        </CharString>
        <CharString name="Acircumflexgrave">
          11 callsubr
          35 callsubr
          vstemhm
          -106 callgsubr
          129 181 -85 callgsubr
        </CharString>
        <CharString name="Acircumflexhookabove">
          11 callsubr
          392 -20 35 callsubr
          hintmask 11101100
          -106 callgsubr
          hintmask 00010000
          129 181 -105 callgsubr
          69 194 -107 callgsubr
        </CharString>
        <CharString name="Acircumflextilde">
          11 callsubr
          202 65 -10 65 35 callsubr
          hintmask 11100110
          -106 callgsubr
          hintmask 00001000
          129 181 rmoveto
          -118 43 -6 2 -7 0 -6 -2 rlinecurve
          -118 -43 -36 -13 18 -54 36 11 rlinecurve
          109 33 109 -33 36 -11 18 54 -35 13 rlinecurve
          47 172 -68 callsubr
        </CharString>
        <CharString name="Adblgrave">
          11 callsubr
          35 callsubr
          vstemhm
          -106 callgsubr
          133 145 -100 callgsubr
        </CharString>
        <CharString name="Adieresis">
          11 callsubr
          60 90 hstemhm
          27 187 -94 90 100 187 -182 90 hintmask 11101010
          -106 callgsubr
          hintmask 00010101
          -52 168 rmoveto
          -102 callgsubr
          195 hmoveto
          -102 callgsubr
          endchar
        </CharString>
        <CharString name="Adotbelow">
          -200 100 100 12 callgsubr
          hstemhm
          27 187 -1 100 -3 187 hintmask 01111010
          -106 callgsubr
          hintmask 10000100
          51 -690 rmoveto
          55 callsubr
        </CharString>
        <CharString name="Agrave">
          11 callsubr
          91 -21 134 -20 35 callsubr
          hintmask 11100110
          -106 callgsubr
          hintmask 00011000
          106 173 -101 callgsubr
        </CharString>
        <CharString name="Ahookabove">
          11 callsubr
          92 -21 230 -20 35 callsubr
          hintmask 11100110
          -106 callgsubr
          hintmask 00011100
          99 284 -107 callgsubr
        </CharString>
        <CharString name="Alpha">
          11 callsubr
          hstem
          24 callsubr
          vstem
          -106 callgsubr
          endchar
        </CharString>
        <CharString name="Amacron">
          11 callsubr
          80 63 35 callsubr
          hintmask 11101100
          -106 callgsubr
          hintmask 00010000
          190 174 -89 callgsubr
        </CharString>
        <CharString name="Aogonek">
          -203 54 149 12 callgsubr
          hstemhm
          27 187 73 59 -36 187 hintmask 01111010
          497 30 rmoveto
          13 -5 10 -12 5 vhcurveto
          3 -6 -22 0 -15 hhcurveto
          -121 523 rlineto
          38 -9 -14 1 -31 hhcurveto
          -29 -16 0 -38 -9 hvcurveto
          -121 -524 rlineto
          -14 -23 0 -2 -6 hvcurveto
          -11 -6 -6 -10 -13 vvcurveto
          -30 26 0 17 vhcurveto
          102 hlineto
          18 24 0 30 31 -20 0 -36 hvcurveto
          23 104 rlineto
          162 hlineto
          23 -104 -4 callgsubr
          24 0 18 hvcurveto
          hintmask 11000100
          -39 -25 -26 -36 49 callgsubr
          36 53 31 hvcurveto
          21 -6 0 6 hhcurveto
          hintmask 00100010
          17 43 callgsubr
          -169 196 rmoveto
          -132 hlineto
          66 314 rlineto
          endchar
        </CharString>
        <CharString name="Aogonekacute">
          -203 54 149 12 callgsubr
          91 -2 callgsubr
          27 187 73 59 -36 187 hintmask 0111001010000000
          497 30 rmoveto
          13 -5 10 -12 5 vhcurveto
          3 -6 -22 0 -15 hhcurveto
          -121 523 rlineto
          38 -9 -14 1 -31 hhcurveto
          -29 -16 0 -38 -9 hvcurveto
          -121 -524 rlineto
          -14 -23 0 -2 -6 hvcurveto
          -11 -6 -6 -10 -13 vvcurveto
          -30 26 0 17 vhcurveto
          102 hlineto
          18 24 0 30 31 -20 0 -36 hvcurveto
          23 104 rlineto
          162 hlineto
          23 -104 -4 callgsubr
          24 0 18 hvcurveto
          hintmask 1100000100000000
          -39 -25 -26 -36 49 callgsubr
          36 53 31 hvcurveto
          21 -6 0 6 hhcurveto
          hintmask 0010000010000000
          17 43 callgsubr
          -169 196 rmoveto
          -132 hlineto
          66 314 rlineto
          hintmask 0000110000000000
          107 232 -107 callsubr
        </CharString>
        <CharString name="Aring">
          0 61 104 61 397 38 68 38 131 callgsubr
          hintmask 11101001
          -106 callgsubr
          hintmask 00110101
          48 155 -65 callgsubr
          vhcurveto
          hintmask 00000010
          56 41 35 37 hvcurveto
          endchar
        </CharString>
        <CharString name="Aringacute">
          0 61 104 61 397 128 callgsubr
          131 callgsubr
          hintmask 1110010010000000
          -106 callgsubr
          hintmask 0011001010000000
          48 155 -65 callgsubr
          vhcurveto
          hintmask 0000100100000000
          56 41 35 37 hvcurveto
          9 191 -107 callsubr
        </CharString>
        <CharString name="Atilde">
          11 callsubr
          60 65 -10 65 35 callsubr
          hintmask 11100110
          -106 callgsubr
          hintmask 00001000
          176 211 -68 callsubr
        </CharString>
        <CharString name="B">
          -14 callsubr
        </CharString>
        <CharString name="Beta">
          -14 callsubr
        </CharString>
        <CharString name="C">
          36 callsubr
          hstem
          40 69 306 69 vstem
          -75 callgsubr
          -183 112 -134 130 116 86 89 90 hvcurveto
          endchar
        </CharString>
        <CharString name="Cacute">
          69 callgsubr
          40 69 306 69 hintmask 11001100
          -75 callgsubr
          -183 112 -134 130 116 86 89 90 hvcurveto
          hintmask 00110000
          -88 604 -107 callsubr
        </CharString>
        <CharString name="Ccaron">
          36 callsubr
          hstemhm
          40 69 306 69 vstemhm
          -75 callgsubr
          -183 112 -134 130 116 86 89 90 hvcurveto
          -67 540 rmoveto
          -82 callsubr
        </CharString>
        <CharString name="Ccedilla">
          36 callsubr
          hstemhm
          40 69 164 69 0 69 -39 69 -26 69 hintmask 11101010
          -75 callgsubr
          hvcurveto
          hintmask 10010100
          -179 107 -132 126 -6 vhcurveto
          -13 134 callgsubr
          18 callsubr
          39 -28 44 -71 14 vhcurveto
          6 vlineto
          hintmask 00000010
          85 24 57 73 74 vvcurveto
          endchar
        </CharString>
        <CharString name="Ccircumflex">
          36 callsubr
          hstemhm
          40 69 306 69 vstemhm
          -75 callgsubr
          -183 112 -134 130 116 86 89 90 hvcurveto
          -66 553 -105 callgsubr
          endchar
        </CharString>
        <CharString name="Cdotaccent">
          36 callsubr
          52 100 hstemhm
          40 69 131 100 75 69 hintmask 11010100
          -75 callgsubr
          -183 112 -134 130 116 86 89 90 hvcurveto
          hintmask 00101000
          -144 556 rmoveto
          55 callsubr
        </CharString>
        <CharString name="Chi">
          -30 callsubr
        </CharString>
        <CharString name="D">
          0 61 489 61 hstem
          82 69 265 69 vstem
          -48 callsubr
          endchar
        </CharString>
        <CharString name="Dcaron">
          -15 callsubr
          hstemhm
          82 69 265 69 vstemhm
          -48 callsubr
          -89 407 rmoveto
          -82 callsubr
        </CharString>
        <CharString name="Dcroat">
          -8 callsubr
        </CharString>
        <CharString name="Ddotbelow">
          33 callgsubr
          hstemhm
          82 69 -1 100 166 69 hintmask 01110100
          -48 callsubr
          hintmask 10001000
          -166 -451 rmoveto
          55 callsubr
        </CharString>
        <CharString name="Delta">
          0 67 556 -20 hstem
          490 22 rmoveto
          0 0 4 -5 14 vhcurveto
          -168 547 rlineto
          33 -10 -12 3 -33 hhcurveto
          -23 -22 0 -33 -10 hvcurveto
          -168 -550 rlineto
          -5 -15 0 -3 0 vvcurveto
          -22 20 0 15 vhcurveto
          386 hlineto
          15 20 0 22 hvcurveto
          -85 45 rmoveto
          -286 hlineto
          115 378 28 95 rlineto
          1 hlineto
          3 -13 7 -28 17 -54 rrcurveto
          endchar
        </CharString>
        <CharString name="Dlinebelow">
          142 callgsubr
          82 69 265 69 hintmask 01111000
          -48 callsubr
          hintmask 10000000
          -27 -451 -89 callgsubr
        </CharString>
        <CharString name="E">
          23 callgsubr
          -10 callgsubr
          hintmask 11111010
          -99 callsubr
          hintmask 10110100
          -98 callsubr
          395 hlineto
          hintmask 00000010
          -25 callsubr
          endchar
        </CharString>
        <CharString name="Eacute">
          23 callgsubr
          83 -21 134 -20 -10 callgsubr
          hintmask 1110011010000000
          -99 callsubr
          hintmask 1010010100000000
          -98 callsubr
          395 hlineto
          hintmask 0000000010000000
          -25 callsubr
          hintmask 0001100000000000
          -133 731 -107 callsubr
        </CharString>
        <CharString name="Ebreve">
          23 callgsubr
          62 64 49 -20 -10 callgsubr
          hintmask 1110011010000000
          -99 callsubr
          hintmask 1010010100000000
          -98 callsubr
          395 hlineto
          hintmask 0000000010000000
          -25 callsubr
          hintmask 0001100000000000
          -63 714 -94 callgsubr
        </CharString>
        <CharString name="Ecaron">
          23 callgsubr
          -10 callgsubr
          hintmask 11111010
          -99 callsubr
          hintmask 10110100
          -98 callsubr
          395 hlineto
          hintmask 00000010
          -25 callsubr
          hintmask 00000000
          -112 667 rmoveto
          -82 callsubr
        </CharString>
        <CharString name="Ecircumflex">
          23 callgsubr
          -10 callgsubr
          hintmask 11111010
          -99 callsubr
          hintmask 10110100
          -98 callsubr
          395 hlineto
          hintmask 00000010
          -25 callsubr
          hintmask 00000000
          -111 680 -105 callgsubr
          endchar
        </CharString>
        <CharString name="Ecircumflexacute">
          23 callgsubr
          308 -20 -10 callgsubr
          hintmask 11101101
          -99 callsubr
          hintmask 10101010
          -98 callsubr
          395 hlineto
          hintmask 00000001
          132 callgsubr
          -111 680 -31 callsubr
          163 -107 callsubr
        </CharString>
        <CharString name="Ecircumflexdotbelow">
          -200 100 100 28 callsubr
          hstemhm
          97 69 47 100 -16 69 45 69 -47 69 hintmask 0111101010000000
          -99 callsubr
          hintmask 0101100100000000
          -98 callsubr
          395 hlineto
          hintmask 0000000010000000
          -25 callsubr
          -111 680 -105 callgsubr
          hintmask 1000010000000000
          -78 -871 rmoveto
          55 callsubr
        </CharString>
        <CharString name="Ecircumflexgrave">
          23 callgsubr
          -10 callgsubr
          hintmask 11111010
          -99 callsubr
          hintmask 10110100
          -98 callsubr
          395 hlineto
          hintmask 00000010
          -25 callsubr
          hintmask 00000000
          -111 680 -85 callgsubr
        </CharString>
        <CharString name="Ecircumflexhookabove">
          23 callgsubr
          384 -20 -10 callgsubr
          hintmask 11101101
          -99 callsubr
          hintmask 10101010
          -98 callsubr
          395 hlineto
          hintmask 00000001
          132 callgsubr
          -111 680 -105 callgsubr
          69 194 -107 callgsubr
        </CharString>
        <CharString name="Ecircumflextilde">
          23 callgsubr
          194 65 -10 65 -10 callgsubr
          hintmask 1110011010000000
          -99 callsubr
          hintmask 1010010100000000
          -98 callsubr
          395 hlineto
          hintmask 0000000010000000
          -25 callsubr
          hintmask 0000100000000000
          -111 680 31 callgsubr
          hintmask 0001000000000000
          -78 callgsubr
          hintmask 0000100000000000
          -91 callgsubr
          hintmask 0001000000000000
          -16 15 -16 16 11 6 5 6 7 vhcurveto
          hintmask 0000100000000000
          -78 callsubr
          hintmask 0001000000000000
          -94 callsubr
        </CharString>
        <CharString name="Edblgrave">
          23 callgsubr
          -10 callgsubr
          hintmask 11111010
          -99 callsubr
          hintmask 10110100
          -98 callsubr
          395 hlineto
          hintmask 00000010
          -25 callsubr
          hintmask 00001000
          -78 644 -100 callgsubr
        </CharString>
        <CharString name="Edieresis">
          23 callgsubr
          52 90 hstemhm
          97 69 -46 90 87 69 -51 90 6 69 -47 69 hintmask 1110101001000000
          -99 callsubr
          hintmask 1010100010000000
          -98 callsubr
          395 hlineto
          hintmask 0000000001000000
          -25 callsubr
          hintmask 0001010100000000
          -292 667 rmoveto
          -102 callgsubr
          195 hmoveto
          -102 callgsubr
          endchar
        </CharString>
        <CharString name="Edotaccent">
          23 callgsubr
          63 100 hstemhm
          97 69 47 100 -16 69 45 69 -47 69 hintmask 1110101010000000
          -99 callsubr
          hintmask 1010100100000000
          -98 callsubr
          395 hlineto
          hintmask 0000000010000000
          -25 callsubr
          hintmask 0001010000000000
          -189 683 rmoveto
          55 callsubr
        </CharString>
        <CharString name="Edotbelow">
          -200 100 100 28 callsubr
          hstemhm
          97 69 47 100 -16 69 45 69 -47 69 hintmask 0111101010000000
          -99 callsubr
          hintmask 0101100100000000
          -98 callsubr
          395 hlineto
          hintmask 0000000010000000
          -25 callsubr
          hintmask 1000010000000000
          -189 -191 rmoveto
          55 callsubr
        </CharString>
        <CharString name="Egrave">
          23 callgsubr
          83 -21 134 -20 -10 callgsubr
          hintmask 1110011010000000
          -99 callsubr
          hintmask 1010010100000000
          -98 callsubr
          395 hlineto
          hintmask 0000000010000000
          -25 callsubr
          hintmask 0001100000000000
          -134 672 -101 callgsubr
        </CharString>
        <CharString name="Ehookabove">
          23 callgsubr
          84 -21 230 -20 -10 callgsubr
          hintmask 1110011010000000
          -99 callsubr
          hintmask 1010010100000000
          -98 callsubr
          395 hlineto
          hintmask 0000000010000000
          -25 callsubr
          hintmask 0001101000000000
          -141 783 -107 callgsubr
        </CharString>
        <CharString name="Emacron">
          23 callgsubr
          72 63 -10 callgsubr
          hintmask 11101101
          -99 callsubr
          hintmask 10101010
          -98 callsubr
          395 hlineto
          hintmask 00000001
          132 callgsubr
          -50 673 -89 callgsubr
        </CharString>
        <CharString name="Eng">
          -11 88 -77 -25 callgsubr
          -59 70 hstemhm
          97 69 184 70 0 70 hintmask 00011000
          490 306 rmoveto
          157 -63 159 -138 -48 -42 -19 -31 -33 vhcurveto
          hintmask 01101000
          29 -7 10 -33 -50 callgsubr
          -489 -28 callgsubr
          367 hlineto
          hintmask 00010010
          68 8 49 56 66 hhcurveto
          102 29 -127 -119 -94 0 -113 -43 -31 hvcurveto
          hintmask 10000100
          6 -7 -10 3 -10 hhcurveto
          -24 -20 -20 -24 -24 20 -20 24 hvcurveto
          hintmask 00000010
          128 12 167 150 hvcurveto
          endchar
        </CharString>
        <CharString name="Eogonek">
          -203 54 149 28 callsubr
          -10 callgsubr
          hintmask 01111101
          -99 callsubr
          hintmask 11011010
          -98 callsubr
          285 hlineto
          -39 -25 -26 -36 50 callgsubr
          hintmask 01000001
          43 34 36 53 31 vhcurveto
          29 88 callgsubr
        </CharString>
        <CharString name="Eogonekacute">
          -203 54 149 28 callsubr
          83 -21 134 -20 -10 callgsubr
          hintmask 0111001101000000
          -99 callsubr
          hintmask 1101001010000000
          -98 callsubr
          285 hlineto
          -39 -25 -26 -36 50 callgsubr
          hintmask 0100000001000000
          43 34 36 53 31 vhcurveto
          29 -5 callsubr
          hintmask 0000110000000000
          -133 731 -107 callsubr
        </CharString>
        <CharString name="Epsilon">
          23 callgsubr
          -10 callgsubr
          hintmask 11111010
          -99 callsubr
          hintmask 10110100
          -98 callsubr
          395 hlineto
          hintmask 00000010
          -25 callsubr
          endchar
        </CharString>
        <CharString name="Ereversed">
          23 callgsubr
          hstemhm
          26 69 -47 69 45 69 131 69 hintmask 11101110
          502 30 rmoveto
          59 callsubr
          vhcurveto
          -30 489 30 hlineto
          15 26 0 31 30 -26 0 -15 hvcurveto
          -373 hlineto
          -34 -6 -10 -31 hvcurveto
          -73 vlineto
          -20 0 -21 35 34 0 22 19 vhcurveto
          53 245 -203 -131 vlineto
          41 0 16 -35 -34 0 -22 -19 vhcurveto
          -93 vlineto
          -19 0 -22 34 35 0 16 41 vhcurveto
          131 -225 hlineto
          hintmask 10010000
          -267 69 hlineto
          20 0 21 -35 -34 0 -22 -19 vhcurveto
          -89 vlineto
          -32 7 -9 33 vhcurveto
          395 89 callgsubr
        </CharString>
        <CharString name="Eta">
          66 callsubr
          hstem
          138 callgsubr
          vstem
          -91 callsubr
          endchar
        </CharString>
        <CharString name="Eth">
          -8 callsubr
        </CharString>
        <CharString name="Etilde">
          23 callgsubr
          52 65 -10 65 -10 callgsubr
          hintmask 1110011010000000
          -99 callsubr
          hintmask 1010010100000000
          -98 callsubr
          395 hlineto
          hintmask 0000000010000000
          -25 callsubr
          hintmask 0000100000000000
          -64 710 -74 callsubr
          hintmask 0001000000000000
          -78 callgsubr
          hintmask 0000100000000000
          -91 callgsubr
          hintmask 0001000000000000
          -16 15 -16 16 11 6 5 6 7 vhcurveto
          hintmask 0000100000000000
          -78 callsubr
          hintmask 0001000000000000
          -94 callsubr
        </CharString>
        <CharString name="Euro">
          -11 62 0 62 98 62 66 62 97 62 0 62 hstemhm
          116 70 211 70 hintmask 01111011
          467 18 rmoveto
          95 vlineto
          16 -13 13 -16 vhcurveto
          -12 hlineto
          -15 -12 -11 -14 -2 hvcurveto
          -38 -5 -33 -28 -38 hhcurveto
          -41 -29 33 36 -21 hvcurveto
          -16 28 -11 31 -7 32 rrcurveto
          143 105 callgsubr
          -156 hlineto
          -1 11 0 11 11 vvcurveto
          11 0 11 1 11 vhcurveto
          183 105 callgsubr
          -178 hlineto
          7 31 11 31 16 29 rrcurveto
          35 21 29 33 41 hhcurveto
          38 33 -28 -38 5 hvcurveto
          -14 2 12 -11 15 hhcurveto
          12 hlineto
          16 13 13 16 hvcurveto
          95 vlineto
          hintmask 10110111
          16 -13 13 -16 vhcurveto
          -4 hlineto
          -9 -8 -4 -6 -5 hvcurveto
          -10 -13 rlineto
          15 -25 -30 8 -31 hhcurveto
          -62 -51 -44 -54 -33 hvcurveto
          -23 -38 -14 -42 -8 -43 rrcurveto
          -36 106 callsubr
          32 hlineto
          -1 -11 0 -11 -11 vvcurveto
          -11 0 -11 1 -11 vhcurveto
          -28 106 callsubr
          40 hlineto
          8 -44 14 -41 23 -39 rrcurveto
          -54 33 51 -44 62 hhcurveto
          31 30 8 15 25 hvcurveto
          10 -12 rlineto
          -7 5 8 -4 9 hhcurveto
          4 hlineto
          16 13 13 16 hvcurveto
          endchar
        </CharString>
        <CharString name="F">
          0 61 214 121 callgsubr
          hstem
          102 69 136 69 45 69 cntrmask 11100000
          490 145 callgsubr
          -381 -77 callgsubr
          33 -489 -33 -77 callgsubr
          154 -87 callsubr
          -52 214 136 hlineto
          -41 0 -16 35 34 0 22 19 vhcurveto
          93 vlineto
          19 0 22 -34 -35 0 -16 -41 vhcurveto
          -136 214 250 -58 callgsubr
          endchar
        </CharString>
        <CharString name="G">
          67 callgsubr
          hstem
          136 callsubr
          vstem
          -95 callgsubr
          endchar
        </CharString>
        <CharString name="Gacute">
          67 callgsubr
          72 -3 callgsubr
          113 callgsubr
          hintmask 11100110
          -95 callgsubr
          hintmask 00011000
          -127 532 -107 callsubr
        </CharString>
        <CharString name="Gamma">
          114 callsubr
          74 callsubr
          vstem
          488 145 callgsubr
          -376 -4 callsubr
          -489 -37 -92 callgsubr
          162 hlineto
          14 27 0 30 31 -26 0 -15 hvcurveto
          -56 489 241 -58 callgsubr
          endchar
        </CharString>
        <CharString name="Gbreve">
          67 callgsubr
          51 64 49 -20 113 callgsubr
          hintmask 11100110
          -95 callgsubr
          hintmask 00011000
          -57 515 -94 callgsubr
        </CharString>
        <CharString name="Gcaron">
          67 callgsubr
          113 callgsubr
          vstemhm
          -95 callgsubr
          -106 468 rmoveto
          -82 callsubr
        </CharString>
        <CharString name="Gcedilla">
          40 callgsubr
          22 53 callsubr
          hstem
          136 callsubr
          vstem
          -95 callgsubr
          -171 -348 -99 callgsubr
        </CharString>
        <CharString name="Gcircumflex">
          67 callgsubr
          113 callgsubr
          vstemhm
          -95 callgsubr
          -105 481 -105 callgsubr
          endchar
        </CharString>
        <CharString name="Gcommaaccent">
          40 callgsubr
          22 53 callsubr
          113 callgsubr
          hintmask 00111110
          -95 callgsubr
          hintmask 11000000
          -171 -348 -99 callgsubr
        </CharString>
        <CharString name="Gdotaccent">
          67 callgsubr
          52 100 hstemhm
          38 69 106 100 67 69 hintmask 11101010
          -95 callgsubr
          hintmask 00010100
          -183 484 rmoveto
          55 callsubr
        </CharString>
        <CharString name="H">
          66 callsubr
          hstem
          138 callgsubr
          vstem
          -91 callsubr
          endchar
        </CharString>
        <CharString name="H_uni0303">
          66 callsubr
          52 76 callgsubr
          138 callgsubr
          hintmask 11100110
          -91 callsubr
          hintmask 00001000
          -64 721 -68 callsubr
        </CharString>
        <CharString name="Hbar">
          0 61 226 61 79 62 61 61 hstem
          138 callgsubr
          vstem
          21 callgsubr
          366 30 hlineto
          46 callgsubr
          -30 61 25 -87 callsubr
          -24 callgsubr
          25 -61 -212 61 25 -87 callsubr
          -119 -60 callgsubr
          -61 -30 38 callsubr
          30 -366 -25 -92 callgsubr
          119 -51 callgsubr
          226 212 -226 -9 callsubr
          -134 318 rmoveto
          -212 79 212 hlineto
          endchar
        </CharString>
        <CharString name="Hbrevebelow">
          -206 64 49 -20 113 144 callgsubr
          212 69 hintmask 00111110
          -91 callsubr
          hintmask 11000100
          -63 -154 -94 callgsubr
        </CharString>
        <CharString name="Hcircumflex">
          0 144 callgsubr
          212 69 vstemhm
          -91 callsubr
          -111 691 -105 callgsubr
          endchar
        </CharString>
        <CharString name="Hdieresis">
          66 callsubr
          52 90 hstemhm
          87 69 -36 90 105 90 -37 69 hintmask 11101001
          -91 callsubr
          hintmask 00010110
          -292 678 rmoveto
          -102 callgsubr
          195 hmoveto
          -102 callgsubr
          endchar
        </CharString>
        <CharString name="Hdotbelow">
          -200 100 100 144 callgsubr
          57 100 55 69 hintmask 01111010
          -91 callsubr
          hintmask 10000100
          -189 -180 rmoveto
          55 callsubr
        </CharString>
        <CharString name="I">
          114 callsubr
          228 69 vstem
          -98 callgsubr
          endchar
        </CharString>
        <CharString name="Iacute">
          -15 callsubr
          83 -21 134 -20 -55 callgsubr
          hintmask 00110000
          -77 742 -107 callsubr
        </CharString>
        <CharString name="Ibreve">
          -15 callsubr
          62 64 49 -20 -55 callgsubr
          hintmask 00110000
          -7 725 -94 callgsubr
        </CharString>
        <CharString name="Icaron">
          -15 callsubr
          hstemhm
          228 69 vstemhm
          -98 callgsubr
          -56 678 rmoveto
          -82 callsubr
        </CharString>
        <CharString name="Icircumflex">
          -15 callsubr
          hstemhm
          228 69 vstemhm
          -98 callgsubr
          -55 691 -105 callgsubr
          endchar
        </CharString>
        <CharString name="Idblgrave">
          -15 callsubr
          hstemhm
          228 69 vstemhm
          17 callsubr
          -22 655 -100 callgsubr
        </CharString>
        <CharString name="Idieresis">
          110 callsubr
          hintmask 11011100
          -98 callgsubr
          hintmask 00110100
          -236 678 rmoveto
          -102 callgsubr
          195 hmoveto
          -102 callgsubr
          endchar
        </CharString>
        <CharString name="Idieresisacute">
          0 61 489 61 52 101 callgsubr
          18 69 18 90 hintmask 11000111
          -98 callgsubr
          hintmask 00111101
          -236 678 rmoveto
          -102 callgsubr
          195 hmoveto
          -102 callgsubr
          -36 205 -107 callsubr
        </CharString>
        <CharString name="Idotaccent">
          -15 callsubr
          63 100 hstemhm
          213 100 -85 -52 callgsubr
          hintmask 00110000
          -133 694 rmoveto
          55 callsubr
        </CharString>
        <CharString name="Idotbelow">
          33 callgsubr
          hstemhm
          213 100 -85 69 hintmask 01101000
          -98 callgsubr
          hintmask 10010000
          -133 -180 rmoveto
          55 callsubr
        </CharString>
        <CharString name="Igrave">
          -15 callsubr
          83 -21 134 -20 -55 callgsubr
          hintmask 00110000
          -78 683 -101 callgsubr
        </CharString>
        <CharString name="Ihookabove">
          -15 callsubr
          84 -21 230 -20 -55 callgsubr
          hintmask 00111000
          -85 794 -107 callgsubr
        </CharString>
        <CharString name="Imacron">
          9 callgsubr
          6 684 -89 callgsubr
        </CharString>
        <CharString name="Imacron.alt">
          9 callgsubr
          -82 684 9 callsubr
        </CharString>
        <CharString name="Iogonek">
          -203 54 149 -25 callgsubr
          hstem
          228 69 vstem
          446 -7 callgsubr
          -108 489 108 -22 callsubr
          31 -26 0 -15 hvcurveto
          -285 -101 callsubr
          108 -489 -108 -101 callsubr
          117 hlineto
          -34 -26 -30 -40 -42 -84 callgsubr
          47 26 41 39 22 hvcurveto
          108 89 callgsubr
        </CharString>
        <CharString name="Iogonekacute">
          -203 54 149 -25 callgsubr
          83 -2 callgsubr
          228 69 hintmask 11100100
          446 -7 callgsubr
          -108 489 108 -22 callsubr
          31 -26 0 -15 hvcurveto
          -285 -101 callsubr
          108 -489 -108 -101 callsubr
          117 hlineto
          -34 -26 -30 -40 -42 -84 callgsubr
          47 26 41 39 22 hvcurveto
          108 -34 callgsubr
          hintmask 00011000
          -77 742 -107 callsubr
        </CharString>
        <CharString name="Iota">
          114 callsubr
          228 69 vstem
          -98 callgsubr
          endchar
        </CharString>
        <CharString name="Itilde">
          -15 callsubr
          52 65 -10 65 -55 callgsubr
          hintmask 00010000
          -8 721 -102 callsubr
        </CharString>
        <CharString name="J">
          70 callsubr
          hstem
          71 89 178 69 vstem
          -44 callsubr
          endchar
        </CharString>
        <CharString name="J_uni030C.cap">
          -11 61 384 -21 104 94 -61 61 hstemhm
          71 89 178 69 hintmask 10011100
          -44 callsubr
          164 -45 2 callsubr
        </CharString>
        <CharString name="Jacute">
          70 callsubr
          83 -2 callgsubr
          71 89 178 69 hintmask 11001100
          -44 callsubr
          hintmask 00110000
          -24 191 -107 callsubr
        </CharString>
        <CharString name="Jcircumflex">
          70 callsubr
          hstemhm
          71 89 178 69 vstemhm
          -44 callsubr
          -2 140 -105 callgsubr
          endchar
        </CharString>
        <CharString name="K">
          114 callsubr
          89 56 193 157 vstem
          -70 callgsubr
          endchar
        </CharString>
        <CharString name="Kappa">
          114 callsubr
          89 56 193 157 vstem
          -70 callgsubr
          endchar
        </CharString>
        <CharString name="Kcedilla">
          60 callsubr
          hstem
          89 56 193 157 vstem
          -70 callgsubr
          -170 -138 -99 callgsubr
        </CharString>
        <CharString name="Kcommaaccent">
          52 callsubr
          89 56 193 157 hintmask 00111100
          -70 callgsubr
          hintmask 11000000
          -170 -138 -99 callgsubr
        </CharString>
        <CharString name="L">
          114 callsubr
          74 callsubr
          vstem
          -83 callsubr
          endchar
        </CharString>
        <CharString name="L_uni0303">
          -15 callsubr
          52 76 callgsubr
          74 callsubr
          hintmask 11001100
          -83 callsubr
          hintmask 00010000
          -169 710 -102 callsubr
        </CharString>
        <CharString name="Lacute">
          -15 callsubr
          83 -2 callgsubr
          74 callsubr
          hintmask 11001100
          -83 callsubr
          hintmask 00110000
          -238 731 -107 callsubr
        </CharString>
        <CharString name="Lambda">
          0 61 477 85 hstem
          29 190 86 190 vstem
          495 30 rmoveto
          31 -21 0 -36 vhcurveto
          -121 525 rlineto
          37 -9 -20 0 -21 hhcurveto
          -10 hlineto
          -20 -21 0 -34 -8 hvcurveto
          -122 -528 rlineto
          -36 -21 -66 callsubr
          -53 callgsubr
          108 -22 callsubr
          59 callsubr
          hvcurveto
          -21 hlineto
          75 331 11 50 14 61 4 35 rlinecurve
          1 hlineto
          4 -28 6 -26 7 -32 88 -391 rcurveline
          -21 hlineto
          -15 33 callsubr
          108 89 callgsubr
        </CharString>
        <CharString name="Lcaron">
          144 callsubr
          74 callsubr
          hintmask 10011100
          -83 callsubr
          -30 495 2 callsubr
        </CharString>
        <CharString name="Lcedilla">
          60 callsubr
          hstem
          74 callsubr
          vstem
          -83 callsubr
          -163 -149 -99 callgsubr
        </CharString>
        <CharString name="Lcommaaccent">
          52 callsubr
          74 callsubr
          hintmask 00111100
          -83 callsubr
          hintmask 11000000
          -163 -149 -99 callgsubr
        </CharString>
        <CharString name="Ldot">
          0 61 206 100 183 61 hstemhm
          109 69 178 100 -37 69 hintmask 11110100
          -83 callsubr
          -32 276 rmoveto
          28 -22 22 -28 vhcurveto
          hintmask 01001000
          -28 -22 -22 -28 -28 22 -22 28 28 22 22 28 hvcurveto
          endchar
        </CharString>
        <CharString name="Ldotbelow">
          33 callgsubr
          hstemhm
          109 69 35 100 106 69 hintmask 01110100
          -83 callsubr
          hintmask 10001000
          -175 -191 rmoveto
          55 callsubr
        </CharString>
        <CharString name="Ldotbelowmacron">
          33 callgsubr
          72 63 hstemhm
          109 69 35 100 106 69 hintmask 11101110
          -83 callsubr
          -175 -191 -103 callsubr
          hintmask 00010000
          30 864 -89 callgsubr
        </CharString>
        <CharString name="Lslash">
          114 callsubr
          74 callsubr
          vstem
          488 103 callsubr
          20 0 21 -34 -35 0 -20 -21 vhcurveto
          -69 -241 248 vlineto
          202 136 109 callgsubr
          -169 -115 rcurveline
          170 56 vlineto
          14 27 0 30 31 -26 0 -15 hvcurveto
          -162 -4 callsubr
          -217 hlineto
          -68 -47 131 callsubr
          18 -4 14 10 35 24 rcurveline
          -201 -37 vlineto
          -12 callsubr
          endchar
        </CharString>
        <CharString name="M">
          -39 callgsubr
        </CharString>
        <CharString name="Mdotbelow">
          -200 100 100 61 165 61 263 61 hstemhm
          57 56 -43 56 80 56 -49 100 85 56 -43 56 hintmask 0101000010000000
          507 30 rmoveto
          31 -21 0 -32 vhcurveto
          489 vlineto
          32 147 callsubr
          hintmask 0001101001000000
          30 -25 0 -15 vhcurveto
          -56 hlineto
          -41 -4 -14 -26 -9 hvcurveto
          -67 -202 -12 -36 -9 -29 -6 -29 rlinecurve
          -1 hlineto
          -10 47 -88 259 -2 6 rrcurveto
          24 -10 -25 0 -14 hhcurveto
          -56 hlineto
          -15 -25 0 -30 hvcurveto
          hintmask 0101010000000000
          -31 21 0 32 vhcurveto
          -489 vlineto
          -32 -21 0 -31 hvcurveto
          hintmask 0100100000000000
          -30 25 0 15 vhcurveto
          112 callsubr
          hintmask 0110011010000000
          31 -21 0 -32 vhcurveto
          477 1 vlineto
          11 -46 64 -192 4 -13 8 -23 13 -38 5 -7 rrcurveto
          -8 6 12 -7 12 hhcurveto
          13 14 8 14 8 hvcurveto
          3 6 85 253 12 53 rrcurveto
          1 -477 hlineto
          -32 -21 -83 callgsubr
          hintmask 0100000001000000
          112 callsubr
          hintmask 1000000100000000
          -194 -180 rmoveto
          55 callsubr
        </CharString>
        <CharString name="Mu">
          -39 callgsubr
        </CharString>
        <CharString name="N">
          114 callsubr
          115 callsubr
          vstem
          -96 callgsubr
          endchar
        </CharString>
        <CharString name="Nacute">
          -15 callsubr
          83 -2 callgsubr
          115 callsubr
          hintmask 11001100
          -96 callgsubr
          hintmask 00110000
          -127 192 -107 callsubr
        </CharString>
        <CharString name="Ncaron">
          -15 callsubr
          hstemhm
          115 callsubr
          vstemhm
          -96 callgsubr
          -106 128 rmoveto
          -82 callsubr
        </CharString>
        <CharString name="Ncedilla">
          60 callsubr
          hstem
          115 callsubr
          vstem
          -96 callgsubr
          -171 -688 -99 callgsubr
        </CharString>
        <CharString name="Ncommaaccent">
          52 callsubr
          115 callsubr
          hintmask 00111100
          -96 callgsubr
          hintmask 11000000
          -171 -688 -99 callgsubr
        </CharString>
        <CharString name="Ndotaccent">
          -15 callsubr
          52 100 hstemhm
          93 56 64 100 62 56 hintmask 11010100
          -96 callgsubr
          hintmask 00101000
          -183 133 rmoveto
          55 callsubr
        </CharString>
        <CharString name="Ndotbelow">
          33 callgsubr
          hstemhm
          93 56 64 100 62 56 hintmask 01110100
          -96 callgsubr
          hintmask 10001000
          -183 -730 rmoveto
          55 callsubr
        </CharString>
        <CharString name="Ntilde">
          -15 callsubr
          52 76 callgsubr
          115 callsubr
          hintmask 11001100
          -96 callgsubr
          hintmask 00010000
          -58 171 -102 callsubr
        </CharString>
        <CharString name="Nu">
          114 callsubr
          115 callsubr
          vstem
          -96 callgsubr
          endchar
        </CharString>
        <CharString name="O">
          135 callgsubr
          69 274 69 vstem
          -104 callgsubr
          endchar
        </CharString>
        <CharString name="OE">
          -38 callgsubr
        </CharString>
        <CharString name="OE.dup">
          -38 callgsubr
        </CharString>
        <CharString name="Oacute">
          122 callsubr
          69 274 69 hintmask 11001100
          -104 callgsubr
          hintmask 00110000
          -30 458 -107 callsubr
        </CharString>
        <CharString name="Obreve">
          36 callsubr
          51 64 49 -20 70 callgsubr
          hintmask 11001100
          -104 callgsubr
          hintmask 00110000
          40 441 -94 callgsubr
        </CharString>
        <CharString name="Ocaron">
          36 callsubr
          70 callgsubr
          vstemhm
          -104 callgsubr
          -9 394 rmoveto
          -82 callsubr
        </CharString>
        <CharString name="Ocircumflex">
          36 callsubr
          70 callgsubr
          vstemhm
          -104 callgsubr
          -8 407 -105 callgsubr
          endchar
        </CharString>
        <CharString name="Ocircumflexacute">
          36 callsubr
          297 -20 70 callgsubr
          hintmask 11011000
          -104 callgsubr
          hintmask 00100000
          -8 407 -31 callsubr
          163 -107 callsubr
        </CharString>
        <CharString name="Ocircumflexdotbelow">
          119 callsubr
          hstemhm
          56 69 88 100 86 69 hintmask 01110100
          -104 callgsubr
          -8 407 -105 callgsubr
          hintmask 10001000
          -78 -871 rmoveto
          55 callsubr
        </CharString>
        <CharString name="Ocircumflexgrave">
          36 callsubr
          70 callgsubr
          vstemhm
          -104 callgsubr
          -8 407 -85 callgsubr
        </CharString>
        <CharString name="Ocircumflexhookabove">
          36 callsubr
          373 -20 70 callgsubr
          hintmask 11011000
          -104 callgsubr
          hintmask 00100000
          -8 407 -105 callgsubr
          69 194 -107 callgsubr
        </CharString>
        <CharString name="Ocircumflextilde">
          36 callsubr
          183 65 -10 65 70 callgsubr
          hintmask 11001100
          -104 callgsubr
          hintmask 00010000
          -8 407 rmoveto
          -118 43 -6 2 -7 0 -6 -2 rlinecurve
          -118 -43 -36 -13 18 -54 36 11 rlinecurve
          109 33 109 -33 36 -11 18 54 -35 13 rlinecurve
          47 172 -102 callsubr
        </CharString>
        <CharString name="Odblgrave">
          36 callsubr
          70 callgsubr
          vstemhm
          -104 callgsubr
          25 371 -100 callgsubr
        </CharString>
        <CharString name="Odieresis">
          36 callsubr
          41 90 hstemhm
          56 69 -5 90 105 90 -6 69 hintmask 11010010
          -104 callgsubr
          hintmask 00101100
          -189 394 rmoveto
          -102 callgsubr
          195 hmoveto
          -102 callgsubr
          endchar
        </CharString>
        <CharString name="Odotbelow">
          119 callsubr
          hstemhm
          56 69 88 100 86 69 hintmask 01110100
          -104 callgsubr
          hintmask 10001000
          -86 -464 rmoveto
          55 callsubr
        </CharString>
        <CharString name="Ograve">
          122 callsubr
          69 274 69 hintmask 11001100
          -104 callgsubr
          hintmask 00110000
          -31 399 -101 callgsubr
        </CharString>
        <CharString name="Ohookabove">
          36 callsubr
          73 -21 230 -20 70 callgsubr
          hintmask 11001100
          -104 callgsubr
          hintmask 00110000
          -38 510 -107 callgsubr
        </CharString>
        <CharString name="Ohorn">
          36 callsubr
          89 -20 78 callsubr
          hintmask 11111000
          -73 callsubr
          hintmask 00000100
          47 callsubr
          hintmask 11011000
          -46 callsubr
          hintmask 00000100
          21 -38 0 -96 -70 vvcurveto
          endchar
        </CharString>
        <CharString name="Ohornacute">
          36 callsubr
          72 -21 38 -20 116 -20 78 callsubr
          hintmask 11010110
          -73 callsubr
          hintmask 00000001
          47 callsubr
          hintmask 11000110
          -46 callsubr
          hintmask 00000001
          21 -38 0 -96 -70 vvcurveto
          hintmask 00101000
          -57 454 -107 callsubr
        </CharString>
        <CharString name="Ohorndotbelow">
          119 callsubr
          89 -20 hstemhm
          56 69 88 100 63 69 -48 98 hintmask 01111010
          -73 callsubr
          hintmask 00000001
          47 callsubr
          hintmask 01101010
          -46 callsubr
          hintmask 00000001
          21 -38 0 -96 -70 vvcurveto
          hintmask 10000100
          -84 -468 rmoveto
          55 callsubr
        </CharString>
        <CharString name="Ohorngrave">
          36 callsubr
          72 -21 38 -20 116 -20 78 callsubr
          hintmask 11010110
          -73 callsubr
          hintmask 00000001
          47 callsubr
          hintmask 11000110
          -46 callsubr
          hintmask 00000001
          21 -38 0 -96 -70 vvcurveto
          hintmask 00101000
          -58 395 -101 callgsubr
        </CharString>
        <CharString name="Ohornhookabove">
          36 callsubr
          73 -21 37 -20 213 -20 78 callsubr
          hintmask 11010110
          -73 callsubr
          hintmask 00000001
          47 callsubr
          hintmask 11000110
          -46 callsubr
          hintmask 00000001
          21 -38 0 -96 -70 vvcurveto
          hintmask 00101000
          -36 506 -107 callgsubr
        </CharString>
        <CharString name="Ohorntilde">
          36 callsubr
          41 65 -10 65 78 callsubr
          hintmask 11001100
          -73 callsubr
          hintmask 00000010
          47 callsubr
          hintmask 11001100
          -46 callsubr
          hintmask 00000010
          21 -38 0 -96 -70 vvcurveto
          hintmask 00010000
          12 433 -102 callsubr
        </CharString>
        <CharString name="Ohungarumlaut">
          36 callsubr
          70 callgsubr
          vstemhm
          -104 callgsubr
          -168 487 -79 callsubr
        </CharString>
        <CharString name="Omacron">
          36 callsubr
          61 63 70 callgsubr
          hintmask 11011000
          -104 callgsubr
          hintmask 00100000
          53 400 -89 callgsubr
        </CharString>
        <CharString name="Omega">
          -21 callsubr
        </CharString>
        <CharString name="Omicron">
          135 callgsubr
          69 274 69 vstem
          -104 callgsubr
          endchar
        </CharString>
        <CharString name="Oogonek">
          135 callgsubr
          69 274 69 vstem
          -16 callsubr
          endchar
        </CharString>
        <CharString name="Oogonekacute">
          122 callsubr
          69 274 69 hintmask 11001100
          -16 callsubr
          hintmask 00110000
          -30 458 -107 callsubr
        </CharString>
        <CharString name="Orogate">
          85 callgsubr
          vstem
          468 305 rmoveto
          272 -19 41 -156 4 vhcurveto
          122 73 callsubr
          -122 vlineto
          -156 -4 -19 -40 -273 vvcurveto
          -272 19 -40 156 -4 vhcurveto
          -121 147 callgsubr
          121 vlineto
          156 4 19 40 272 vvcurveto
          -69 9 rmoveto
          -62 0 -71 -11 -54 vhcurveto
          -56 -11 -26 -21 -89 hhcurveto
          -88 -25 21 50 -12 hvcurveto
          -12 51 0 87 55 vvcurveto
          62 0 68 11 46 vhcurveto
          59 13 31 12 82 hhcurveto
          75 35 -9 -55 15 hvcurveto
          12 -47 0 -75 -61 vvcurveto
          endchar
        </CharString>
        <CharString name="Oslash">
          135 callgsubr
          56 300 56 vstem
          -64 callgsubr
          endchar
        </CharString>
        <CharString name="Oslash.dup">
          135 callgsubr
          56 300 56 vstem
          -64 callgsubr
          endchar
        </CharString>
        <CharString name="Oslashacute">
          122 callsubr
          56 300 56 hintmask 11001100
          -64 callgsubr
          hintmask 00110000
          44 214 -107 callsubr
        </CharString>
        <CharString name="Otilde">
          36 callsubr
          41 65 -10 65 70 callgsubr
          hintmask 11001100
          -104 callgsubr
          hintmask 00010000
          39 437 -102 callsubr
        </CharString>
        <CharString name="P">
          0 callgsubr
        </CharString>
        <CharString name="Phi">
          0 61 94 61 179 61 94 61 hstem
          40 69 119 69 118 69 vstem
          484 305 rmoveto
          75 -79 65 -108 11 vhcurveto
          94 41 vlineto
          41 callgsubr
          31 -26 0 -15 hvcurveto
          -151 -101 callsubr
          41 -94 hlineto
          -111 -11 -77 -67 -72 vvcurveto
          -76 81 -65 107 -10 vhcurveto
          -94 -41 vlineto
          -76 callsubr
          -53 callgsubr
          151 -22 callsubr
          31 -26 0 -15 hvcurveto
          -41 94 hlineto
          111 12 76 67 71 vvcurveto
          -69 1 rmoveto
          -47 -56 -34 -62 -9 vhcurveto
          179 vlineto
          67 -9 51 -37 -43 vvcurveto
          -187 -90 rmoveto
          -72 10 -47 38 41 vvcurveto
          44 51 37 68 9 vhcurveto
          endchar
        </CharString>
        <CharString name="Pi">
          114 callsubr
          138 callgsubr
          vstem
          21 callgsubr
          489 25 -87 callsubr
          -400 -60 callgsubr
          -489 -25 -92 callgsubr
          119 -51 callgsubr
          489 212 -489 -9 callsubr
          endchar
        </CharString>
        <CharString name="Psi">
          0 61 361 61 67 61 hstem
          78 69 81 69 80 69 vstem
          486 452 rmoveto
          31 -26 0 -10 -71 -2 -74 -39 -55 -9 -74 -71 -22 vhcurveto
          331 35 vlineto
          41 callgsubr
          59 callsubr
          hvcurveto
          -139 -77 callgsubr
          35 -331 hlineto
          -71 21 -10 71 60 vvcurveto
          51 -8 61 -65 -10 -26 0 -31 -24 18 -4 8 -2 vhcurveto
          13 -3 1 -34 -27 vvcurveto
          1 -75 28 -106 121 -21 rrcurveto
          -95 -35 vlineto
          -96 callsubr
          15 hvcurveto
          139 -22 callsubr
          59 callsubr
          hvcurveto
          -35 95 hlineto
          121 21 27 103 1 88 rrcurveto
          14 0 37 14 3 vhcurveto
          8 2 18 4 24 vvcurveto
          endchar
        </CharString>
        <CharString name="Q">
          135 callgsubr
          69 115 69 90 69 vstem
          -71 callsubr
          13 32 0 1 11 vhcurveto
          61 -117 rlineto
          -12 8 11 0 16 hhcurveto
          9 hlineto
          15 17 0 19 6 -20 36 -11 22 hvcurveto
          -8 13 -18 34 -7 13 44 18 18 35 9 81 rrcurveto
          6 54 0 67 46 vvcurveto
          -69 1 rmoveto
          -209 -20 -14 -22 -15 vhcurveto
          -48 87 rlineto
          15 -9 -1 1 -20 hhcurveto
          -11 hlineto
          -14 -18 0 -19 -5 1 -3 3 -5 hvcurveto
          46 -89 rlineto
          -32 hlineto
          -90 -20 28 54 -10 60 callgsubr
          endchar
        </CharString>
        <CharString name="R">
          -97 callgsubr
          endchar
        </CharString>
        <CharString name="Racute">
          -97 callgsubr
          hintmask 11100000
          5 329 -107 callsubr
        </CharString>
        <CharString name="Rcaron">
          -97 callgsubr
          hintmask 11100000
          26 265 rmoveto
          -82 callsubr
        </CharString>
        <CharString name="Rcedilla">
          -97 callgsubr
          -39 -551 -99 callgsubr
        </CharString>
        <CharString name="Rcommaaccent">
          -97 callgsubr
          hintmask 11100000
          -39 -551 -99 callgsubr
        </CharString>
        <CharString name="Rdblgrave">
          -97 callgsubr
          hintmask 11100000
          31 242 -100 callgsubr
        </CharString>
        <CharString name="Rdotaccent">
          -63 callgsubr
          hintmask 11100010
          92 44 -59 -48 hvcurveto
          hintmask 11101000
          -51 281 rmoveto
          55 callsubr
        </CharString>
        <CharString name="Rdotbelow">
          -63 callgsubr
          hintmask 11100010
          92 44 -59 -48 hvcurveto
          hintmask 11101000
          -51 -593 rmoveto
          55 callsubr
        </CharString>
        <CharString name="Rdotbelowmacron">
          -63 callgsubr
          hintmask 11101010
          92 44 -59 -48 hvcurveto
          -51 -593 -103 callsubr
          hintmask 11100000
          139 864 -89 callgsubr
        </CharString>
        <CharString name="Rho">
          0 callgsubr
        </CharString>
        <CharString name="S">
          -11 42 callgsubr
          139 69 -38 65 hintmask 01101100
          -74 callgsubr
          hintmask 10011010
          -58 callsubr
          endchar
        </CharString>
        <CharString name="Sacute">
          69 callgsubr
          52 65 -65 69 47 69 139 69 -38 65 hintmask 0100101100000000
          -74 callgsubr
          hintmask 1000011010000000
          -58 callsubr
          hintmask 0011000000000000
          -103 606 -107 callsubr
        </CharString>
        <CharString name="Scaron">
          -11 42 callgsubr
          139 69 -38 65 hintmask 01101100
          -74 callgsubr
          hintmask 10011010
          -58 callsubr
          hintmask 00000000
          -82 542 rmoveto
          -82 callsubr
        </CharString>
        <CharString name="Scedilla">
          -11 42 callgsubr
          -28 69 -31 69 30 69 -39 69 -38 65 hintmask 0010010000000000
          472 166 rmoveto
          64 -36 42 -12 13 vhcurveto
          -41 40 -27 7 -78 18 -81 18 rcurveline
          -42 12 -38 35 47 vvcurveto
          hintmask 0100100010000000
          51 49 48 71 118 15 -94 -31 6 vhcurveto
          -22 3 11 -6 20 hhcurveto
          59 callgsubr
          hvcurveto
          132 vlineto
          hintmask 0110000100000000
          16 0 25 -30 -24 -5 -17 -30 -8 vhcurveto
          35 -41 -54 12 -45 hhcurveto
          -111 -75 -79 -85 -67 46 -66 83 -24 hvcurveto
          115 -27 rlineto
          hintmask 1001101001000000
          28 -6 83 -20 -87 vvcurveto
          -52 -43 -59 -79 -28 -49 4 27 -40 vhcurveto
          -42 27 -4 42 -1 18 rrcurveto
          17 -1 -1 18 -32 hhcurveto
          104 callgsubr
          hvcurveto
          -132 vlineto
          -16 0 -25 30 22 6 14 32 9 vhcurveto
          32 -24 46 -15 50 -5 rrcurveto
          -26 134 callgsubr
          hintmask 0000010100000000
          18 callsubr
          vhcurveto
          hintmask 0000001001000000
          75 callsubr
          11 vlineto
          97 15 59 79 81 vvcurveto
          endchar
        </CharString>
        <CharString name="Scircumflex">
          -11 42 callgsubr
          139 69 -38 65 hintmask 01101100
          -74 callgsubr
          hintmask 10011010
          -58 callsubr
          hintmask 00000000
          -81 555 -105 callgsubr
          endchar
        </CharString>
        <CharString name="Sdotbelow">
          -200 100 89 42 callgsubr
          -24 100 63 69 -38 65 hintmask 0011010100000000
          -74 callgsubr
          hintmask 0100110010000000
          -58 callsubr
          hintmask 1000001000000000
          -159 -316 rmoveto
          55 callsubr
        </CharString>
        <CharString name="Sigma">
          0 63 487 61 hstem
          415 69 vstem
          484 41 rmoveto
          75 vlineto
          39 callgsubr
          -53 -279 vlineto
          127 220 rlineto
          9 15 0 2 12 vvcurveto
          -140 238 rlineto
          283 -58 callgsubr
          73 vlineto
          31 -6 10 -34 vhcurveto
          -363 hlineto
          -16 -25 0 -31 -5 0 -6 8 -13 hvcurveto
          149 -251 -148 -255 rlineto
          -9 -14 0 -2 -6 vvcurveto
          -28 28 0 13 vhcurveto
          363 88 callgsubr
        </CharString>
        <CharString name="T">
          114 callsubr
          67 69 92 69 92 69 cntrmask 00111000
          498 145 callgsubr
          -391 7 callgsubr
          133 -489 -52 vlineto
          -28 callsubr
          111 callgsubr
        </CharString>
        <CharString name="T_uni0303">
          -15 callsubr
          52 76 callgsubr
          26 69 -28 69 92 69 92 69 -29 69 hintmask 0000000010000000
          53 callgsubr
          hintmask 0100010100000000
          48 callgsubr
          hintmask 1100101000000000
          -47 callgsubr
          133 -489 -52 vlineto
          hintmask 1100011100000000
          -28 callsubr
          hlineto
          hintmask 0100000010000000
          132 -58 callgsubr
          hintmask 0001000000000000
          -60 254 -74 callsubr
          hintmask 0010000000000000
          -78 callgsubr
          hintmask 0001000000000000
          -91 callgsubr
          hintmask 0010000000000000
          -16 15 -16 16 11 6 5 6 7 vhcurveto
          hintmask 0001000000000000
          -78 callsubr
          hintmask 0010000100000000
          -94 callsubr
        </CharString>
        <CharString name="T_uni0308">
          132 callsubr
          hstemhm
          26 69 -28 69 -16 90 18 69 18 90 -16 69 -29 69 hintmask 0000000001000000
          53 callgsubr
          hintmask 0100100010000000
          48 callgsubr
          hintmask 1101001000000000
          -47 callgsubr
          133 -489 -52 vlineto
          hintmask 1100101010000000
          -28 callsubr
          hlineto
          hintmask 0100000001000000
          132 -58 callgsubr
          hintmask 0010010100000000
          -288 211 rmoveto
          -102 callgsubr
          195 hmoveto
          -102 callgsubr
          endchar
        </CharString>
        <CharString name="Tau">
          -3 callsubr
          endchar
        </CharString>
        <CharString name="Tcaron">
          -3 callsubr
          hintmask 00000000
          -108 211 rmoveto
          -82 callsubr
        </CharString>
        <CharString name="Tcedilla">
          -211 62 -31 111 69 -25 callgsubr
          hstemhm
          26 69 -28 69 92 69 30 69 -7 69 -29 69 hintmask 0000000001000000
          53 callgsubr
          hintmask 0001010010000000
          48 callgsubr
          hintmask 0011101000000000
          -47 callgsubr
          133 -489 -52 vlineto
          hintmask 0110011100000000
          -95 callsubr
          52 -27 hlineto
          75 callgsubr
          84 callsubr
          hintmask 1000000000000000
          -40 -99 0 -38 vhcurveto
          hintmask 0100000000000000
          -38 -22 0 -31 hvcurveto
          hintmask 1010001100000000
          108 callsubr
          -1 12 rlineto
          53 hlineto
          hintmask 0011001010000000
          -87 callgsubr
          -52 489 hlineto
          hintmask 0001000001000000
          111 callgsubr
        </CharString>
        <CharString name="Tdotbelow">
          33 callgsubr
          hstemhm
          26 69 -28 69 77 100 -85 69 92 69 -29 69 hintmask 0000000010000000
          53 callgsubr
          hintmask 0010100100000000
          48 callgsubr
          hintmask 0111001000000000
          -47 callgsubr
          133 -489 -52 vlineto
          hintmask 0110101100000000
          -28 callsubr
          hlineto
          hintmask 0010000010000000
          132 -58 callgsubr
          hintmask 1000010000000000
          -185 -647 rmoveto
          55 callsubr
        </CharString>
        <CharString name="Theta">
          -11 61 222 67 222 61 hstem
          56 69 39 69 58 69 39 69 cntrmask 11100000
          -71 callsubr
          14 callsubr
          vhcurveto
          -69 1 rmoveto
          -56 0 -77 -10 -48 vhcurveto
          -55 -13 -22 -20 -92 hhcurveto
          -89 -28 17 65 -11 60 callgsubr
          -39 -24 rmoveto
          47 vlineto
          20 0 21 -35 -11 -21 0 -31 -2 vhcurveto
          -58 hlineto
          30 -2 -20 1 -12 hhcurveto
          104 callgsubr
          hvcurveto
          -47 vlineto
          -20 0 -21 35 11 21 0 31 2 vhcurveto
          58 hlineto
          -30 2 20 -1 12 hhcurveto
          59 callgsubr
          hvcurveto
          endchar
        </CharString>
        <CharString name="Thorn">
          0 61 98 61 226 61 43 61 hstem
          108 70 228 70 vstem
          476 333 rmoveto
          82 -63 92 -121 vhcurveto
          -114 43 52 hlineto
          2 1 23 2 28 vvcurveto
          30 -25 0 -18 vhcurveto
          -138 hlineto
          -18 -25 0 -30 -5 0 -20 22 -5 hvcurveto
          -1 4 33 0 18 hhcurveto
          -489 -52 vlineto
          -2 -1 -23 -2 -28 vvcurveto
          -30 25 0 18 vhcurveto
          138 hlineto
          18 25 0 30 5 0 20 -22 5 hvcurveto
          1 -4 -33 0 -18 hhcurveto
          98 115 vlineto
          117 66 90 84 hvcurveto
          -70 hmoveto
          -47 -39 -66 -99 vhcurveto
          -90 226 100 hlineto
          96 32 -70 -43 hvcurveto
          endchar
        </CharString>
        <CharString name="Tlinebelow">
          142 callgsubr
          26 69 -28 69 92 69 92 69 -29 69 hintmask 00000001
          53 callgsubr
          hintmask 00101010
          48 callgsubr
          hintmask 01110100
          -47 callgsubr
          133 -489 -52 vlineto
          hintmask 01101110
          -28 callsubr
          hlineto
          hintmask 00100001
          132 -58 callgsubr
          hintmask 10000000
          -46 -647 -89 callgsubr
        </CharString>
        <CharString name="U">
          70 callsubr
          hstem
          79 callsubr
          vstem
          -104 callsubr
          endchar
        </CharString>
        <CharString name="U_uni032F">
          -185 -21 49 64 82 71 callgsubr
          57 callsubr
          hintmask 00111100
          -104 callsubr
          hintmask 11000000
          -81 -756 -62 callsubr
        </CharString>
        <CharString name="Uacute">
          70 callsubr
          83 -21 134 -20 57 callsubr
          hintmask 11001100
          -104 callsubr
          hintmask 00110000
          -151 191 -107 callsubr
        </CharString>
        <CharString name="Ubreve">
          70 callsubr
          62 64 49 -20 57 callsubr
          hintmask 11001100
          -104 callsubr
          hintmask 00110000
          -81 174 -94 callgsubr
        </CharString>
        <CharString name="Ucaron">
          70 callsubr
          57 callsubr
          vstemhm
          -104 callsubr
          -130 127 rmoveto
          -82 callsubr
        </CharString>
        <CharString name="Ucircumflex">
          70 callsubr
          57 callsubr
          vstemhm
          -104 callsubr
          -129 140 -105 callgsubr
          endchar
        </CharString>
        <CharString name="Udblgrave">
          70 callsubr
          57 callsubr
          vstemhm
          -104 callsubr
          -96 104 -100 callgsubr
        </CharString>
        <CharString name="Udieresis">
          70 callsubr
          52 90 83 callgsubr
          hintmask 11010010
          -104 callsubr
          hintmask 00101100
          43 callsubr
          endchar
        </CharString>
        <CharString name="Udieresisacute">
          70 callsubr
          52 90 82 -21 134 -20 83 callgsubr
          hintmask 1100010010000000
          -104 callsubr
          hintmask 0011101100000000
          43 callsubr
          -36 205 -107 callsubr
        </CharString>
        <CharString name="Udieresiscaron">
          70 callsubr
          52 90 83 callgsubr
          hintmask 11010010
          -104 callsubr
          hintmask 00101100
          43 callsubr
          -15 141 rmoveto
          -82 callsubr
        </CharString>
        <CharString name="Udieresisgrave">
          70 callsubr
          52 90 82 -21 134 -20 83 callgsubr
          hintmask 1100010010000000
          -104 callsubr
          hintmask 0011101100000000
          43 callsubr
          -37 146 -101 callgsubr
        </CharString>
        <CharString name="Udotbelow">
          -200 100 89 71 callgsubr
          hstemhm
          75 69 69 100 67 69 hintmask 01110100
          -104 callsubr
          hintmask 10001000
          -207 -731 rmoveto
          55 callsubr
        </CharString>
        <CharString name="Ugrave">
          70 callsubr
          83 -21 134 -20 57 callsubr
          hintmask 11001100
          -104 callsubr
          hintmask 00110000
          -152 132 -101 callgsubr
        </CharString>
        <CharString name="Uhookabove">
          70 callsubr
          84 -21 230 -20 57 callsubr
          hintmask 11001100
          -104 callsubr
          hintmask 00110000
          -159 243 -107 callgsubr
        </CharString>
        <CharString name="Uhorn">
          70 callsubr
          -28 61 67 -20 92 callsubr
          cntrmask 00001110
          hintmask 01011110
          -36 callsubr
          hintmask 00101110
          36 callgsubr
          hintmask 11001110
          -45 callsubr
          hintmask 00101110
          5 vlineto
          hintmask 01001110
          15 -12 13 -16 vhcurveto
          -154 hlineto
          hintmask 00101110
          36 callgsubr
          hintmask 11001110
          -32 callsubr
          hintmask 00101110
          43 13 33 38 47 vvcurveto
          endchar
        </CharString>
        <CharString name="Uhornacute">
          70 callsubr
          -28 61 50 -21 38 -20 116 -67 callgsubr
          hintmask 0001010000000000
          -185 128 -107 callsubr
        </CharString>
        <CharString name="Uhorndotbelow">
          -200 100 89 71 callgsubr
          -28 61 67 -20 92 callsubr
          -1 100 -4 70 0 70 hintmask 0010100000000000
          -36 callsubr
          hintmask 0001000001000000
          36 callgsubr
          hintmask 0110000101000000
          -45 callsubr
          hintmask 0001000100000000
          5 vlineto
          hintmask 0010000000000000
          15 -12 13 -16 vhcurveto
          -154 hlineto
          hintmask 0001010000000000
          36 callgsubr
          hintmask 0110001000100000
          -32 callsubr
          hintmask 0001000000000000
          43 13 33 38 47 vvcurveto
          hintmask 1000000010000000
          -212 -794 rmoveto
          55 callsubr
        </CharString>
        <CharString name="Uhorngrave">
          70 callsubr
          -28 61 50 -21 38 -20 116 -67 callgsubr
          hintmask 0001010000000000
          -186 69 -101 callgsubr
        </CharString>
        <CharString name="Uhornhookabove">
          70 callsubr
          -28 61 51 -21 37 -20 213 -67 callgsubr
          hintmask 0001010010000000
          -164 180 -107 callgsubr
        </CharString>
        <CharString name="Uhorntilde">
          70 callsubr
          -28 61 19 65 -10 65 91 callsubr
          hintmask 0100000000000000
          -36 callsubr
          hintmask 0010000010000000
          36 callgsubr
          hintmask 1100000110000000
          -45 callsubr
          hintmask 0010000100000000
          5 vlineto
          hintmask 0100000000000000
          15 -12 13 -16 vhcurveto
          -154 hlineto
          hintmask 0010010000000000
          36 callgsubr
          hintmask 1100001001000000
          -17 callsubr
          hintmask 0000100000000000
          -116 107 -74 callsubr
          hintmask 0001000000000000
          -78 callgsubr
          hintmask 0000100000000000
          -91 callgsubr
          hintmask 0001000000000000
          -16 15 -16 16 11 6 5 6 7 vhcurveto
          hintmask 0000100000000000
          -78 callsubr
          hintmask 0001000000000000
          -94 callsubr
        </CharString>
        <CharString name="Uhungarumlaut">
          70 callsubr
          57 callsubr
          vstemhm
          -104 callsubr
          -289 220 -79 callsubr
        </CharString>
        <CharString name="Umacron">
          70 callsubr
          72 63 57 callsubr
          hintmask 11011000
          -104 callsubr
          hintmask 00100000
          -68 133 -89 callgsubr
        </CharString>
        <CharString name="Uogonek">
          -203 54 138 71 callgsubr
          hstem
          75 69 71 69 96 69 vstem
          520 581 rmoveto
          30 54 callgsubr
          -129 -81 callgsubr
          -341 hlineto
          -107 -66 -52 -52 -53 -65 52 107 vhcurveto
          341 30 vlineto
          15 26 0 31 30 -26 0 -15 hvcurveto
          -129 -81 callgsubr
          -346 hlineto
          -113 73 -86 89 -14 vhcurveto
          -29 -26 -23 -36 -37 -84 callgsubr
          42 20 38 33 23 hvcurveto
          84 18 68 85 108 vvcurveto
          -8 callgsubr
          endchar
        </CharString>
        <CharString name="Upsilon">
          0 61 509 52 hstem
          193 69 -34 69 -34 69 cntrmask 00111000
          486 493 rmoveto
          57 -42 72 -73 -59 -37 -44 -98 -12 vhcurveto
          -1 hlineto
          105 -14 -40 37 -55 hhcurveto
          -72 -43 -71 -58 -32 25 0 9 11 23 0 31 1 hvcurveto
          38 1 10 40 36 hhcurveto
          74 0 -162 -52 hvcurveto
          -295 -35 vlineto
          -96 callsubr
          15 hvcurveto
          139 -22 callsubr
          59 callsubr
          hvcurveto
          -35 295 hlineto
          53 0 161 73 37 9 -43 -33 1 vhcurveto
          -33 1 21 0 13 hhcurveto
          9 25 0 32 hvcurveto
          endchar
        </CharString>
        <CharString name="Uring">
          70 callsubr
          12 38 68 38 hstemhm
          75 69 22 50 94 50 20 69 hintmask 11001001
          -104 callsubr
          hintmask 00110110
          -210 114 -37 callgsubr
        </CharString>
        <CharString name="Utilde">
          70 callsubr
          52 65 -10 65 57 callsubr
          hintmask 11001100
          -104 callsubr
          hintmask 00010000
          -82 170 -102 callsubr
        </CharString>
        <CharString name="V">
          -8 80 478 61 hstemhm
          18 184 -143 184 79 184 hintmask 11011000
          506 581 rmoveto
          30 54 callgsubr
          -102 63 callsubr
          21 0 35 hvcurveto
          -77 -306 -13 -53 -19 -76 -7 -43 rlinecurve
          -1 hlineto
          -5 35 -4 17 -9 37 -97 389 rcurveline
          hintmask 01100000
          35 21 0 31 30 -26 0 -15 hvcurveto
          hintmask 01010000
          -102 hlineto
          hintmask 11101000
          -76 callsubr
          21 0 36 hvcurveto
          132 -520 rlineto
          -38 10 16 0 29 hhcurveto
          27 19 0 37 9 hvcurveto
          132 521 rlineto
          36 21 67 callsubr
        </CharString>
        <CharString name="W">
          -8 84 474 61 141 callsubr
          hintmask 11101000
          -76 callgsubr
          hintmask 11011000
          -43 callgsubr
          endchar
        </CharString>
        <CharString name="Wacute">
          -8 84 474 61 83 -21 134 -20 141 callsubr
          hintmask 11001010
          -76 callgsubr
          hintmask 11000110
          -43 callgsubr
          hintmask 00110000
          -144 192 -107 callsubr
        </CharString>
        <CharString name="Wcircumflex">
          -8 84 474 61 141 callsubr
          hintmask 11101000
          -76 callgsubr
          hintmask 11011000
          -43 callgsubr
          hintmask 00000000
          -122 141 -105 callgsubr
          endchar
        </CharString>
        <CharString name="Wdieresis">
          -8 84 474 61 52 90 hstemhm
          11 160 -51 90 -48 160 -7 90 -52 160 hintmask 11010001
          -76 callgsubr
          hintmask 11000101
          -43 callgsubr
          hintmask 00101010
          -303 128 rmoveto
          -102 callgsubr
          195 hmoveto
          -102 callgsubr
          endchar
        </CharString>
        <CharString name="Wgrave">
          -8 84 474 61 83 -21 134 -20 141 callsubr
          hintmask 11001010
          -76 callgsubr
          hintmask 11000110
          -43 callgsubr
          hintmask 00110000
          -145 133 -101 callgsubr
        </CharString>
        <CharString name="X">
          -30 callsubr
        </CharString>
        <CharString name="Xi">
          0 59 229 59 205 59 hstemhm
          33 69 -65 69 3 69 168 69 3 69 -65 69 hintmask 0110111100000000
          487 551 rmoveto
          19 -44 callgsubr
          -369 97 callgsubr
          -19 vlineto
          -19 0 -22 34 35 0 20 22 vhcurveto
          312 hlineto
          -22 0 -20 35 34 0 22 19 vhcurveto
          -72 -258 rmoveto
          49 vlineto
          20 0 20 -35 -24 -10 -10 -25 vhcurveto
          -168 hlineto
          25 -10 10 -24 -35 0 -20 -20 vhcurveto
          -49 vlineto
          -20 0 -20 35 24 10 10 25 vhcurveto
          168 hlineto
          -25 10 -10 24 35 0 20 20 vhcurveto
          76 -252 rmoveto
          hintmask 1001000010000000
          24 vlineto
          19 0 22 -34 -35 0 -19 -28 vhcurveto
          -320 hlineto
          28 0 19 -35 -34 0 -22 -19 vhcurveto
          -24 vlineto
          -33 8 -8 33 vhcurveto
          377 88 callgsubr
        </CharString>
        <CharString name="Y">
          114 callsubr
          228 69 vstem
          -90 callgsubr
          endchar
        </CharString>
        <CharString name="Yacute">
          -15 callsubr
          83 -2 callgsubr
          228 69 hintmask 11001000
          -90 callgsubr
          hintmask 00110000
          -136 192 -107 callsubr
        </CharString>
        <CharString name="Ycircumflex">
          -15 callsubr
          hstemhm
          228 69 vstemhm
          -90 callgsubr
          -114 141 -105 callgsubr
          endchar
        </CharString>
        <CharString name="Ydieresis">
          110 callsubr
          hintmask 11001000
          -90 callgsubr
          hintmask 00110100
          -295 128 rmoveto
          -102 callgsubr
          195 hmoveto
          -102 callgsubr
          endchar
        </CharString>
        <CharString name="Ydotbelow">
          33 callgsubr
          hstemhm
          213 100 -85 69 hintmask 01101000
          -90 callgsubr
          hintmask 10010000
          -192 -730 rmoveto
          55 callsubr
        </CharString>
        <CharString name="Ygrave">
          -15 callsubr
          83 -2 callgsubr
          228 69 hintmask 11001000
          -90 callgsubr
          hintmask 00110000
          -137 133 -101 callgsubr
        </CharString>
        <CharString name="Yhookabove">
          -15 callsubr
          84 137 callsubr
          228 69 hintmask 11001000
          -90 callgsubr
          hintmask 00111000
          -144 244 -107 callgsubr
        </CharString>
        <CharString name="Ytilde">
          -15 callsubr
          52 76 callgsubr
          228 69 hintmask 11001000
          -90 callgsubr
          hintmask 00010000
          -67 171 -102 callsubr
        </CharString>
        <CharString name="Z">
          114 callsubr
          60 69 283 69 vstem
          -75 callsubr
          endchar
        </CharString>
        <CharString name="Zacute">
          -15 callsubr
          83 -2 callgsubr
          60 69 283 69 hintmask 11001100
          -75 callsubr
          hintmask 00110000
          -112 731 -107 callsubr
        </CharString>
        <CharString name="Zcaron">
          -15 callsubr
          hstemhm
          60 69 283 69 vstemhm
          -75 callsubr
          -91 667 rmoveto
          -82 callsubr
        </CharString>
        <CharString name="Zdotaccent">
          -15 callsubr
          63 100 hstemhm
          60 69 84 100 99 69 hintmask 11010100
          -75 callsubr
          hintmask 00101000
          -168 683 rmoveto
          55 callsubr
        </CharString>
        <CharString name="Zdotbelow">
          33 callgsubr
          hstemhm
          60 69 84 100 99 69 hintmask 01110100
          -75 callsubr
          hintmask 10001000
          -168 -191 rmoveto
          55 callsubr
        </CharString>
        <CharString name="Zeta">
          114 callsubr
          60 69 283 69 vstem
          -75 callsubr
          endchar
        </CharString>
        <CharString name="a">
          6 callsubr
          47 callgsubr
          hintmask 01111000
          -105 callsubr
          hintmask 10011000
          -70 callsubr
          endchar
        </CharString>
        <CharString name="aacute">
          6 callsubr
          69 -21 134 -53 callsubr
          19 369 -107 callsubr
        </CharString>
        <CharString name="abreve">
          112 callgsubr
          49 -53 callsubr
          1 callgsubr
          endchar
        </CharString>
        <CharString name="abreveacute">
          112 callgsubr
          69 64 -59 64 65 -20 47 callgsubr
          hintmask 0110000110000000
          -59 callsubr
          hintmask 1000000110000000
          -70 callsubr
          hintmask 0001011000000000
          1 callgsubr
          -70 150 rmoveto
          20 -15 15 -20 vhcurveto
          0 -8 0 -11 -5 -2 callsubr
          -60 rlineto
          -14 -6 -11 -5 -18 vvcurveto
          hintmask 0000100000000000
          -8 7 -32 26 vhcurveto
          hintmask 0000010000000000
          7 5 2 3 6 hvcurveto
          hintmask 0000100000000000
          133 59 rlineto
          24 11 4 13 11 vvcurveto
          endchar
        </CharString>
        <CharString name="abrevedotbelow">
          -200 100 94 15 callgsubr
          59 138 callsubr
          50 69 94 100 37 69 hintmask 0011001010000000
          519 31 rmoveto
          30 -25 0 -15 -42 -10 5 3 -8 vhcurveto
          216 vlineto
          71 -54 84 -144 -43 -102 0 -73 -30 21 -16 24 15 28 9 37 1 vhcurveto
          8 1 1 20 2 vhcurveto
          1 14 13 0 9 hhcurveto
          76 52 -31 -71 hvcurveto
          -177 -3 -123 -50 -96 vvcurveto
          hintmask 0100000000000000
          -69 63 -65 102 37 62 7 31 47 vhcurveto
          hintmask 0010000000000000
          -31 22 48 -1 38 hhcurveto
          28 22 0 31 hvcurveto
          -169 103 rmoveto
          -23 0 -21 -39 -18 vhcurveto
          hintmask 0100111010000000
          -70 callsubr
          1 callgsubr
          hintmask 1000000100000000
          -126 -731 rmoveto
          55 callsubr
        </CharString>
        <CharString name="abrevegrave">
          112 callgsubr
          49 -20 40 64 -59 64 47 callgsubr
          hintmask 0110000110000000
          -59 callsubr
          hintmask 1000000110000000
          -70 callsubr
          hintmask 0001110000000000
          1 callgsubr
          -70 91 rmoveto
          -8 -7 -32 -26 vhcurveto
          hintmask 0000001000000000
          -7 -5 2 3 -6 hvcurveto
          hintmask 0000010000000000
          -133 59 rlineto
          -24 11 -4 13 11 vvcurveto
          20 15 15 20 vhcurveto
          0 8 0 11 -5 vhcurveto
          hintmask 0000001000000000
          133 -60 rlineto
          14 -6 11 -5 -18 vvcurveto
          endchar
        </CharString>
        <CharString name="abrevehookabove">
          112 callgsubr
          279 -53 callsubr
          1 callgsubr
          -77 181 -107 callgsubr
        </CharString>
        <CharString name="abrevetilde">
          112 callgsubr
          89 65 -10 65 47 callgsubr
          hintmask 01100011
          -105 callsubr
          hintmask 10000011
          -70 callsubr
          hintmask 00010100
          89 363 21 callsubr
          hintmask 00001000
          -78 callgsubr
          hintmask 00000100
          -91 callgsubr
          hintmask 00001010
          -16 15 -16 16 11 6 5 6 7 vhcurveto
          hintmask 00000100
          -78 callsubr
          hintmask 00001000
          -94 callsubr
        </CharString>
        <CharString name="acaron">
          6 callsubr
          47 callgsubr
          hintmask 01111000
          -105 callsubr
          hintmask 10011000
          -70 callsubr
          hintmask 00000000
          47 349 -72 callgsubr
        </CharString>
        <CharString name="acircumflex">
          6 callsubr
          47 callgsubr
          hintmask 01111000
          -105 callsubr
          hintmask 10011000
          -70 callsubr
          hintmask 00000000
          47 324 -84 callsubr
          endchar
        </CharString>
        <CharString name="acircumflexacute">
          6 callsubr
          303 -20 -14 callgsubr
          41 327 -31 callsubr
          163 -107 callsubr
        </CharString>
        <CharString name="acircumflexdotbelow">
          -19 callsubr
          47 324 -84 callsubr
          hintmask 10000100
          -84 -692 rmoveto
          55 callsubr
        </CharString>
        <CharString name="acircumflexgrave">
          6 callsubr
          47 callgsubr
          hintmask 01111000
          -105 callsubr
          hintmask 10011000
          -70 callsubr
          hintmask 00000000
          41 327 -85 callgsubr
        </CharString>
        <CharString name="acircumflexhookabove">
          6 callsubr
          379 -20 -14 callgsubr
          41 327 -105 callgsubr
          69 194 -107 callgsubr
        </CharString>
        <CharString name="acircumflextilde">
          6 callsubr
          189 65 -10 65 47 callgsubr
          hintmask 01100110
          -105 callsubr
          hintmask 10000110
          -70 callsubr
          hintmask 00001000
          41 327 31 callgsubr
          hintmask 00010000
          -78 callgsubr
          hintmask 00001000
          13 -13 -20 21 -34 hhcurveto
          -27 -28 -16 -17 -23 hvcurveto
          -20 -15 -29 -22 -18 vvcurveto
          hintmask 00010100
          -55 callsubr
        </CharString>
        <CharString name="acute">
          509 -3 callgsubr
          hstem
          369 587 -107 callsubr
        </CharString>
        <CharString name="acute.cap">
          513 -3 callgsubr
          hstem
          369 591 -107 callsubr
        </CharString>
        <CharString name="acute.dup">
          509 -3 callgsubr
          hstem
          369 587 -107 callsubr
        </CharString>
        <CharString name="acute.ts1">
          499 -21 133 -20 21 -20 hstemhm
          hintmask 00100000
          408 576 rmoveto
          18 -15 18 -20 vhcurveto
          hintmask 11000000
          -6 -1 -13 -2 -13 -8 -12 -5 rlinecurve
          -42 -18 -93 -26 -33 vvcurveto
          -22 15 -19 22 vhcurveto
          16 2 17 10 15 7 80 35 rcurveline
          21 10 28 6 28 vvcurveto
          endchar
        </CharString>
        <CharString name="adblgrave">
          6 callsubr
          47 callgsubr
          hintmask 01111000
          -105 callsubr
          hintmask 10011000
          -70 callsubr
          hintmask 00000000
          74 279 -100 callgsubr
        </CharString>
        <CharString name="adieresis">
          6 callsubr
          70 90 hstemhm
          50 69 16 90 75 90 -40 69 hintmask 01101001
          -105 callsubr
          hintmask 10001001
          -70 callsubr
          hintmask 00010110
          -125 337 -61 callsubr
        </CharString>
        <CharString name="adotbelow">
          -19 callsubr
          hintmask 10000100
          -37 -368 rmoveto
          55 callsubr
        </CharString>
        <CharString name="ae">
          -6 61 21 61 52 62 128 61 102 callsubr
          hintmask 11111101
          -51 callsubr
          hintmask 11101110
          12 callsubr
          endchar
        </CharString>
        <CharString name="ae.dup">
          -6 61 21 61 52 62 128 61 102 callsubr
          hintmask 11111101
          -51 callsubr
          hintmask 11101110
          12 callsubr
          endchar
        </CharString>
        <CharString name="aeacute">
          -6 61 21 61 52 62 128 61 69 -21 134 -20 102 callsubr
          hintmask 1111001101000000
          -51 callsubr
          hintmask 1110001110000000
          12 callsubr
          hintmask 0000110000000000
          135 398 -107 callsubr
        </CharString>
        <CharString name="agrave">
          6 callsubr
          69 -21 134 -53 callsubr
          18 310 -101 callgsubr
        </CharString>
        <CharString name="ahookabove">
          6 callsubr
          230 -20 -13 callsubr
          hintmask 00110000
          11 372 -107 callgsubr
        </CharString>
        <CharString name="amacron">
          6 callsubr
          84 63 -14 callgsubr
          102 337 -89 callgsubr
        </CharString>
        <CharString name="ampersand">
          -11 61 320 61 130 61 hstemhm
          28 69 6 56 -8 56 32 69 -65 56 0 59 73 56 -56 59 hintmask 0110010010000000
          490 400 rmoveto
          31 -24 0 -16 vhcurveto
          -92 hlineto
          -86 callgsubr
          17 hvcurveto
          -27 -71 -33 -86 -27 -53 -13 21 -41 63 -20 54 rrcurveto
          101 105 0 59 23 vvcurveto
          61 -21 76 -71 vhcurveto
          hintmask 0001100000000000
          -50 -54 -45 -100 -43 7 -56 21 -63 hvcurveto
          -8 -8 -58 -64 -2 -1 rrcurveto
          -19 -24 -16 -35 -46 vvcurveto
          hintmask 1100011001000000
          -76 47 -72 76 52 41 32 38 31 vhcurveto
          -19 16 43 -51 58 hhcurveto
          66 29 68 48 33 -28 0 0 -26 -2 -26 -5 hvcurveto
          -44 -4 -19 -13 -16 hhcurveto
          -37 -38 46 12 -9 hvcurveto
          21 35 20 46 10 25 60 156 rcurveline
          31 hlineto
          hintmask 0000100000100000
          85 callsubr
          -247 85 rmoveto
          -29 -18 -36 -50 -56 vhcurveto
          -15 52 -1 53 8 vvcurveto
          hintmask 1011010100000000
          58 26 26 22 34 2 -67 -9 vhcurveto
          -4 -377 rmoveto
          -53 -37 -36 -5 -14 hhcurveto
          -45 -10 63 27 48 11 12 47 52 hvcurveto
          7 -16 19 -33 14 -23 rrcurveto
          hintmask 0000001000000000
          22 -39 5 -9 17 -24 rrcurveto
          endchar
        </CharString>
        <CharString name="anglearc">
          102 -21 450 -20 hstemhm
          346 70 0 70 hintmask 11010000
          486 116 rmoveto
          14 -8 12 -11 5 vhcurveto
          -74 37 rlineto
          15 39 8 41 42 vvcurveto
          42 -8 41 -15 39 vhcurveto
          74 37 rlineto
          11 5 8 12 14 vvcurveto
          148 callgsubr
          -6 -5 -1 -3 -5 vhcurveto
          -73 -37 -6 10 -7 9 -7 9 rlinecurve
          8 -6 -10 5 -11 hhcurveto
          -19 -16 -16 -19 -8 3 -8 4 -6 hvcurveto
          12 -15 -242 -122 rlineto
          -11 -5 -8 -12 -14 vvcurveto
          -14 8 -12 11 -5 vhcurveto
          242 -122 -12 -15 rlineto
          -4 -6 -3 -8 -8 vvcurveto
          116 callgsubr
          11 10 5 8 6 vhcurveto
          7 9 7 9 6 10 73 -37 rcurveline
          -3 5 5 -1 6 hhcurveto
          19 16 16 19 hvcurveto
          -140 190 rmoveto
          -31 -5 -30 -11 -29 vhcurveto
          -179 90 179 90 rlineto
          hintmask 00100000
          11 -29 5 -30 -31 vvcurveto
          endchar
        </CharString>
        <CharString name="angleleft">
          -62 -21 777 -20 21 -20 hstemhm
          hintmask 00100000
          449 -47 rmoveto
          21 -22 22 -12 19 vhcurveto
          -177 273 rlineto
          -4 5 -6 7 6 vvcurveto
          11 34 44 17 27 vhcurveto
          54 81 49 83 56 80 rrcurveto
          5 9 6 8 11 vvcurveto
          19 -15 16 -19 vhcurveto
          hintmask 11000000
          -7 -1 -25 -3 -25 -51 -17 -28 rlinecurve
          -144 -222 rlineto
          -18 -27 -30 -34 -24 vvcurveto
          -3 vlineto
          2 -19 22 -23 11 -19 185 -285 rcurveline
          -17 12 9 -22 24 hhcurveto
          19 16 18 18 hvcurveto
          endchar
        </CharString>
        <CharString name="angleright">
          -62 -21 777 -20 21 -20 hstemhm
          hintmask 00100000
          375 307 rmoveto
          3 vlineto
          -2 20 -24 25 -12 20 -99 152 rcurveline
          -85 131 rlineto
          16 -11 -10 21 -21 hhcurveto
          hintmask 11000000
          -7 -1 rlineto
          -17 -2 -12 -16 -16 vvcurveto
          -18 14 -14 9 -14 vhcurveto
          185 -285 4 -6 8 -9 1 -7 rlinecurve
          -13 -32 -41 -16 -24 vhcurveto
          -138 -213 rlineto
          -14 -20 -21 -25 -19 vvcurveto
          116 callgsubr
          19 10 14 15 9 vhcurveto
          33 51 181 278 rlineto
          7 10 6 9 13 vvcurveto
          endchar
        </CharString>
        <CharString name="aogonek">
          -203 54 143 15 callgsubr
          47 callgsubr
          hintmask 00111100
          -24 callsubr
          hintmask 01001100
          -70 callsubr
          endchar
        </CharString>
        <CharString name="aogonekacute">
          -203 54 143 15 callgsubr
          69 -21 134 -20 47 callgsubr
          hintmask 00110011
          -24 callsubr
          hintmask 01000011
          -70 callsubr
          hintmask 00001100
          19 369 -107 callsubr
        </CharString>
        <CharString name="aring">
          6 callsubr
          52 38 68 38 hstemhm
          50 69 47 50 94 50 -10 69 hintmask 0110010010000000
          -59 callsubr
          hintmask 1000010010000000
          -70 callsubr
          hintmask 0001101100000000
          -40 346 -37 callgsubr
        </CharString>
        <CharString name="aringacute">
          6 callsubr
          52 128 callgsubr
          hstemhm
          50 69 47 50 94 50 -10 69 hintmask 0110001001000000
          -59 callsubr
          hintmask 1000001001000000
          -70 callsubr
          hintmask 0001110110000000
          -40 346 -65 callgsubr
          56 41 35 37 vhcurveto
          9 191 -107 callsubr
        </CharString>
        <CharString name="asciicircum">
          437 543 rmoveto
          -163 79 -7 3 -9 0 -7 -3 rlinecurve
          -163 -79 -35 -17 24 -52 34 15 rlinecurve
          151 65 151 -65 35 -15 24 52 -35 17 rlinecurve
          endchar
        </CharString>
        <CharString name="asciitilde">
          438 334 -74 callsubr
          -78 callgsubr
          -91 callgsubr
          -16 15 -16 16 11 6 5 6 7 vhcurveto
          -78 callsubr
          -94 callsubr
        </CharString>
        <CharString name="asciitilde.low">
          438 88 -74 callsubr
          -78 callgsubr
          -91 callgsubr
          -16 15 -16 16 11 6 5 6 7 vhcurveto
          -78 callsubr
          -94 callsubr
        </CharString>
        <CharString name="asterisk">
          229 66 vstem
          456 214 rmoveto
          17 -12 9 -2 1 vhcurveto
          -25 17 -68 33 -26 14 108 59 rcurveline
          12 7 13 7 19 vvcurveto
          4 0 29 -40 vhcurveto
          -124 -72 rlineto
          2 26 1 66 29 vvcurveto
          9 0 33 -33 -33 0 -33 -9 -29 1 -66 2 -26 vhcurveto
          -108 63 rlineto
          9 -14 -2 0 -7 hhcurveto
          -20 -13 -18 -15 -19 11 -6 13 -7 hvcurveto
          109 -59 -108 -59 rlineto
          -12 -7 -13 -6 -20 vvcurveto
          -4 0 -29 40 vhcurveto
          124 72 rlineto
          -2 -26 -1 -66 -29 vvcurveto
          -9 0 -33 33 33 0 33 9 29 -1 66 -2 26 vhcurveto
          61 -34 -37 20 70 -42 rrcurveto
          -16 27 2 0 8 hhcurveto
          20 13 18 15 hvcurveto
          endchar
        </CharString>
        <CharString name="asterisk.math">
          113 -21 430 -20 hstemhm
          229 64 -62 64 hintmask 00100000
          455 217 rmoveto
          17 -13 11 -16 7 vhcurveto
          -27 15 -24 13 -24 16 -26 10 rlinecurve
          2 vlineto
          26 10 24 16 24 13 27 15 rcurveline
          16 7 13 11 17 vvcurveto
          16 -13 19 -20 -14 -12 -10 -7 -12 vhcurveto
          -30 -19 -31 -17 -30 -19 rrcurveto
          hintmask 01010000
          36 2 37 36 vvcurveto
          15 vlineto
          17 -8 21 -25 vhcurveto
          hintmask 00100000
          -19 -14 -13 -22 hvcurveto
          -10 vlineto
          -13 0 -13 1 -13 vhcurveto
          -33 vlineto
          hintmask 00010000
          -15 1 -15 -15 vvcurveto
          -30 19 -31 17 -30 19 rrcurveto
          7 -12 -12 10 -14 hhcurveto
          -20 -13 -19 -16 -17 13 -11 16 -7 hvcurveto
          27 -15 24 -13 24 -16 26 -10 rlinecurve
          -2 vlineto
          -26 -10 -24 -16 -24 -13 -27 -15 rcurveline
          -16 -7 -13 -11 -17 vvcurveto
          -16 13 -19 20 14 12 10 7 12 vhcurveto
          30 19 31 17 30 19 rrcurveto
          -15 -1 -15 -15 vvcurveto
          -33 vlineto
          hintmask 10100000
          -1 -13 0 -13 -13 vvcurveto
          -10 vlineto
          -22 14 -13 19 vhcurveto
          hintmask 00010000
          25 8 21 17 hvcurveto
          15 vlineto
          hintmask 00100000
          36 -2 37 36 vvcurveto
          30 -19 31 -17 30 -19 rrcurveto
          -7 12 12 -10 14 hhcurveto
          20 13 19 16 hvcurveto
          endchar
        </CharString>
        <CharString name="at">
          -6 61 51 61 277 61 51 61 hstem
          44 56 91 56 177 56 vstem
          480 80 rmoveto
          28 -28 0 -10 -17 -3 0 -10 -10 vhcurveto
          -32 -35 -38 -11 -34 hhcurveto
          -108 -97 108 142 149 101 102 103 28 45 -10 -61 23 hvcurveto
          2 -3 -28 18 -33 hhcurveto
          -80 -65 -86 -113 -119 70 -81 74 49 96 42 173 65 0 231 -176 -136 -124 -131 -180 -179 122 -133 140 90 84 57 29 hvcurveto
          -56 225 rmoveto
          -81 -45 -57 -43 -47 -42 60 78 84 46 55 42 45 44 -58 -81 vhcurveto
          endchar
        </CharString>
        <CharString name="atilde">
          6 callsubr
          55 65 -10 65 47 callgsubr
          hintmask 01100110
          -105 callsubr
          hintmask 10000110
          -70 callsubr
          hintmask 00001000
          88 365 -33 callsubr
          hintmask 00010100
          -55 callsubr
        </CharString>
        <CharString name="b">
          -6 143 callgsubr
          253 69 vstem
          64 callsubr
          182 -16 callgsubr
          -509 hlineto
          -20 0 -21 35 34 0 20 25 vhcurveto
          13 callsubr
          72 callsubr
        </CharString>
        <CharString name="backslash">
          466 -48 rmoveto
          8 -4 10 -3 6 vhcurveto
          -331 691 rlineto
          10 -5 -8 17 -22 hhcurveto
          -20 -15 -17 -18 -8 4 -10 3 -6 hvcurveto
          331 -691 rlineto
          -10 5 8 -17 22 hhcurveto
          20 15 17 18 hvcurveto
          endchar
        </CharString>
        <CharString name="baht">
          66 callsubr
          hstemhm
          91 69 63 62 -61 62 106 69 -48 69 hintmask 00100110
          482 167 rmoveto
          69 -48 65 -81 19 vhcurveto
          64 22 44 52 62 vvcurveto
          73 -61 82 -111 vhcurveto
          -3 62 hlineto
          17 -14 14 -17 -18 -13 -14 -17 vhcurveto
          hintmask 10111000
          -1 -62 rlineto
          -160 hlineto
          -14 33 callsubr
          27 -489 -27 -82 callgsubr
          hintmask 10000100
          161 -62 hlineto
          -17 13 -14 18 17 14 14 17 vhcurveto
          hintmask 10001001
          -1 62 rlineto
          24 hlineto
          113 60 89 78 hvcurveto
          -90 288 rmoveto
          hintmask 11110110
          -38 -27 -58 -79 -10 vhcurveto
          201 vlineto
          84 22 -62 -33 hvcurveto
          -168 -107 rmoveto
          -64 202 64 hlineto
          189 -381 rmoveto
          -49 -39 -59 -87 vhcurveto
          hintmask 10001000
          -2 hlineto
          hintmask 11010101
          1 226 rlineto
          12 hlineto
          85 30 -73 -45 hvcurveto
          -189 -108 rmoveto
          -64 226 hlineto
          hintmask 01001000
          63 hlineto
          hintmask 10000100
          endchar
        </CharString>
        <CharString name="bar">
          227 70 vstem
          297 -36 rmoveto
          37 callsubr
          endchar
        </CharString>
        <CharString name="bigcircle">
          114 callgsubr
          136 callgsubr
          vstem
          -54 callsubr
          endchar
        </CharString>
        <CharString name="blanksymbol">
          -6 61 321 61 -49 61 101 61 hstemhm
          63 69 -35 69 253 69 hintmask 01000000
          488 216 rmoveto
          123 -89 98 -106 vhcurveto
          hintmask 00110100
          -48 -45 -18 -31 -34 hvcurveto
          61 vlineto
          113 97 99 callsubr
          -73 -62 rlineto
          39 -16 callgsubr
          -78 hlineto
          -74 -64 rlineto
          -7 -5 -4 -9 -9 vvcurveto
          -17 14 -14 17 vhcurveto
          hintmask 00001000
          8 7 3 4 5 hvcurveto
          hintmask 00000100
          34 29 rlineto
          -349 vlineto
          hintmask 00001000
          -20 0 -21 35 vhcurveto
          hintmask 11000110
          34 0 20 25 hvcurveto
          13 callsubr
          72 callsubr
        </CharString>
        <CharString name="braceleft">
          104 callsubr
          -52 rmoveto
          29 -25 1 -9 vhcurveto
          -136 3 0 36 31 vvcurveto
          161 vlineto
          25 -3 41 -55 30 vhcurveto
          42 25 15 33 1 25 rrcurveto
          132 vlineto
          25 0 40 3 8 vhcurveto
          38 18 88 2 35 hhcurveto
          6 20 6 24 31 -24 0 -18 -70 -109 -13 -88 -17 hvcurveto
          -1 -6 0 -50 -28 vvcurveto
          -90 vlineto
          -36 0 -15 -36 -16 vhcurveto
          -15 -36 -50 -1 -23 hhcurveto
          -6 -20 -6 -24 -30 24 -1 10 hvcurveto
          26 -1 109 -3 2 -54 rrcurveto
          -166 vlineto
          -30 0 -45 52 -29 vhcurveto
          -23 42 55 -7 48 hhcurveto
          18 24 67 callsubr
        </CharString>
        <CharString name="braceright">
          104 callsubr
          305 rmoveto
          30 -24 1 -10 vhcurveto
          -24 1 -110 2 -2 56 rrcurveto
          167 vlineto
          28 0 45 -52 29 vhcurveto
          26 -48 -63 4 -35 hhcurveto
          -17 -25 0 -31 -26 19 -4 14 hvcurveto
          138 -2 0 -36 -33 vvcurveto
          -161 vlineto
          -40 15 -32 43 -23 vhcurveto
          -56 -32 -2 -47 -4 vvcurveto
          -178 vlineto
          -29 0 -36 -145 -2 vhcurveto
          -6 -20 -6 -24 -31 25 0 17 87 95 20 81 15 hvcurveto
          1 6 0 50 28 vvcurveto
          90 vlineto
          36 0 15 36 16 vhcurveto
          15 36 48 1 24 hhcurveto
          6 20 6 24 hvcurveto
          endchar
        </CharString>
        <CharString name="bracketleft">
          -83 61 655 61 hstem
          222 69 vstem
          483 -53 rmoveto
          31 -24 0 -16 vhcurveto
          -152 655 152 -87 callsubr
          -181 hlineto
          -33 -7 -9 -32 hvcurveto
          -695 vlineto
          -31 6 -10 34 vhcurveto
          181 -42 callsubr
          endchar
        </CharString>
        <CharString name="bracketright">
          -83 61 655 61 hstem
          233 69 vstem
          302 -42 rmoveto
          695 -44 callgsubr
          -181 -90 callsubr
          152 -655 -152 -90 callsubr
          181 88 callgsubr
        </CharString>
        <CharString name="breve">
          499 64 49 -20 hstem
          439 581 -94 callgsubr
        </CharString>
        <CharString name="breve.cap">
          492 64 49 -20 hstem
          439 574 -94 callgsubr
        </CharString>
        <CharString name="breve.ts1">
          497 65 50 -20 hstem
          459 581 rmoveto
          16 -9 15 -22 -11 -10 -5 -9 -5 vhcurveto
          -4 -6 1 -8 -5 -5 rrcurveto
          -15 -15 -36 -2 -32 hhcurveto
          -79 hlineto
          -31 -55 0 17 -17 hvcurveto
          -4 5 1 7 -3 6 rrcurveto
          10 -6 -10 5 -11 hhcurveto
          -3 -2 0 -1 -3 hvcurveto
          -17 -3 -6 -14 -15 vvcurveto
          -77 124 -5 55 vhcurveto
          32 hlineto
          70 113 3 81 hvcurveto
          endchar
        </CharString>
        <CharString name="brokenbar">
          227 70 vstem
          297 407 rmoveto
          240 vlineto
          12 0 35 -35 -35 0 -35 -12 vhcurveto
          -240 vlineto
          -18 16 -13 19 19 16 13 18 vhcurveto
          -443 vmoveto
          240 vlineto
          18 -16 13 -19 -19 -16 -13 -18 vhcurveto
          -240 vlineto
          -12 0 -35 35 35 0 35 12 vhcurveto
          endchar
        </CharString>
        <CharString name="bullet">
          96 276 hstem
          125 276 77 callgsubr
          endchar
        </CharString>
        <CharString name="c">
          19 callsubr
          hstem
          73 69 223 89 vstem
          -56 callsubr
          endchar
        </CharString>
        <CharString name="cacute">
          91 callgsubr
          73 69 223 89 hintmask 11001100
          -56 callsubr
          hintmask 00110000
          -70 478 -107 callsubr
        </CharString>
        <CharString name="caron">
          397 567 -72 callgsubr
        </CharString>
        <CharString name="caron.cap">
          390 527 rmoveto
          -82 callsubr
        </CharString>
        <CharString name="caron.ts1">
          498 -21 141 -20 hstem
          447 577 rmoveto
          16 -11 25 -22 -12 -12 -8 -5 -10 vhcurveto
          -82 -41 -25 -12 rlineto
          -2 -3 -4 -2 -4 hhcurveto
          -2 hlineto
          -5 1 -4 3 -4 2 -23 11 rcurveline
          -73 36 rlineto
          6 -12 -14 11 -15 hhcurveto
          0 -5 0 -2 -1 vhcurveto
          -16 -3 -11 -24 -13 vvcurveto
          -22 30 -10 23 -10 vhcurveto
          89 -41 24 -11 rlineto
          -2 7 6 -4 7 hhcurveto
          18 33 20 11 22 hvcurveto
          66 30 rlineto
          19 8 27 8 23 vvcurveto
          endchar
        </CharString>
        <CharString name="ccaron">
          127 callgsubr
          73 69 223 89 vstemhm
          -56 callsubr
          -42 458 -72 callgsubr
        </CharString>
        <CharString name="ccedilla">
          -66 61 -1 56 callgsubr
          hstemhm
          73 69 131 69 0 89 -66 89 -82 69 hintmask 01110100
          466 109 rmoveto
          28 -29 0 -6 -16 -10 -2 -20 -7 vhcurveto
          -13 -6 -19 -47 -74 hhcurveto
          -85 -72 70 91 48 28 115 135 hvcurveto
          hintmask 10111010
          21 39 0 -9 hvcurveto
          -35 1 19 -14 24 hhcurveto
          24 21 17 29 73 -104 0 -45 -172 -60 -136 -88 -114 84 -97 116 -10 hvcurveto
          -19 134 callgsubr
          hintmask 00001001
          18 callsubr
          39 -28 44 -71 14 vhcurveto
          8 vlineto
          98 19 26 76 15 vvcurveto
          endchar
        </CharString>
        <CharString name="ccircumflex">
          127 callgsubr
          73 69 223 89 vstemhm
          -56 callsubr
          -42 433 -84 callsubr
          endchar
        </CharString>
        <CharString name="cdotaccent">
          19 callsubr
          65 100 hstemhm
          73 69 98 100 25 89 hintmask 11010100
          -56 callsubr
          hintmask 00101000
          -126 446 rmoveto
          55 callsubr
        </CharString>
        <CharString name="cedilla">
          8 callsubr
        </CharString>
        <CharString name="cedilla.dup">
          8 callsubr
        </CharString>
        <CharString name="cent">
          -5 61 323 61 hstemhm
          73 69 116 62 0 89 -44 89 hintmask 11010100
          466 109 rmoveto
          28 -29 0 -6 -16 -10 -2 -20 -7 vhcurveto
          -5 -12 -16 -39 -57 -8 rrcurveto
          323 vlineto
          20 25 -2 -7 hvcurveto
          hintmask 00001000
          -35 1 19 -14 24 hhcurveto
          hintmask 11110100
          24 21 17 29 66 -85 6 -49 1 hvcurveto
          53 73 callsubr
          -57 vlineto
          -136 -22 -49 -119 -79 vvcurveto
          -109 77 -93 108 -17 vhcurveto
          -59 vlineto
          -17 14 -14 17 17 14 14 17 vhcurveto
          57 vlineto
          116 12 30 86 16 vvcurveto
          -208 -48 rmoveto
          -66 18 -50 61 76 vvcurveto
          42 21 92 95 24 vhcurveto
          endchar
        </CharString>
        <CharString name="cent.oldstyle">
          -6 61 -58 61 319 61 -59 61 -2 61 hstemhm
          73 69 68 89 -23 89 -62 62 0 89 hintmask 1000001000000000
          466 109 rmoveto
          28 -29 0 -6 -16 -10 -2 -20 -7 vhcurveto
          -13 -6 -19 -47 -74 hhcurveto
          hintmask 0100000010000000
          -10 -11 1 2 -10 hvcurveto
          71 320 rlineto
          14 -1 12 -2 -5 vvcurveto
          -35 1 19 -14 24 hhcurveto
          hintmask 0000100001000000
          24 21 17 29 53 -54 14 -47 4 hvcurveto
          10 48 rlineto
          19 5 -15 19 -20 hhcurveto
          hintmask 0000100010000000
          -15 -12 -11 -14 -3 hvcurveto
          hintmask 0101011000000000
          -13 -59 rlineto
          -161 -8 -56 -131 -85 vvcurveto
          -86 49 -77 74 -37 vhcurveto
          -16 -71 rlineto
          -20 -5 15 -18 20 hhcurveto
          15 12 10 14 3 hvcurveto
          15 66 rlineto
          hintmask 1000011000000000
          -2 12 13 -1 13 hhcurveto
          139 34 98 17 hvcurveto
          -190 268 rmoveto
          -66 -294 rlineto
          -41 29 -27 48 56 vvcurveto
          hintmask 0010000100000000
          44 24 102 110 15 vhcurveto
          endchar
        </CharString>
        <CharString name="centigrade">
          -10 61 438 61 0 61 -60 61 -50 61 hstemhm
          155 70 198 70 hintmask 10001110
          493 172 rmoveto
          25 -17 6 -18 -20 -15 -7 -30 vhcurveto
          -33 -3 -18 -82 -58 hhcurveto
          -53 -30 68 47 -16 hvcurveto
          -14 43 -6 46 45 vvcurveto
          79 12 91 53 63 vhcurveto
          16 12 19 13 21 hhcurveto
          72 -1 -109 -34 12 hvcurveto
          -15 6 14 -3 14 hhcurveto
          30 4 20 18 hvcurveto
          147 vlineto
          23 -10 14 -20 -21 -10 -18 -17 -5 vhcurveto
          -24 20 -24 10 -31 5 rrcurveto
          -8 hlineto
          -78 -47 -67 -64 -27 hvcurveto
          -24 -58 -9 -66 -63 vvcurveto
          -104 28 -143 96 -53 vhcurveto
          -10 18 20 -5 21 hhcurveto
          93 62 90 92 hvcurveto
          -370 379 rmoveto
          hintmask 00010000
          26 -21 35 -38 vhcurveto
          hintmask 00100000
          -3 -3 0 -1 -3 hvcurveto
          -36 -4 -17 -31 -26 vvcurveto
          hintmask 01010000
          -26 21 -35 38 41 21 33 29 vhcurveto
          -54 hmoveto
          -4 -4 -3 -4 -3 -2 2 3 vhcurveto
          1 vlineto
          4 4 3 4 3 2 -2 -4 vhcurveto
          endchar
        </CharString>
        <CharString name="circumflex">
          397 542 -84 callsubr
          endchar
        </CharString>
        <CharString name="circumflex.cap">
          391 540 -105 callgsubr
          endchar
        </CharString>
        <CharString name="circumflex.dup">
          397 542 -84 callsubr
          endchar
        </CharString>
        <CharString name="colon">
          0 125 181 73 callgsubr
          368 32 callgsubr
          -306 vmoveto
          55 callgsubr
        </CharString>
        <CharString name="colonmonetary">
          561 61 hstem
          40 69 149 62 95 69 vstem
          484 168 rmoveto
          33 -24 0 -11 -9 -23 0 -29 -2 vhcurveto
          -5 -75 -49 -32 -41 -10 rrcurveto
          501 vlineto
          45 -15 38 -42 11 -65 rrcurveto
          -17 3 2 -16 30 hhcurveto
          59 callgsubr
          hvcurveto
          139 30 callgsubr
          -18 -5 -10 -7 -5 vhcurveto
          -2 -4 0 -2 -13 -25 -24 21 -32 16 -35 7 rrcurveto
          55 73 callsubr
          -52 vlineto
          -119 -15 -99 -129 -171 vvcurveto
          -172 98 -128 120 -15 vhcurveto
          -53 vlineto
          -17 14 -14 17 17 14 14 17 vhcurveto
          54 vlineto
          96 17 68 79 80 vvcurveto
          -226 -115 rmoveto
          -80 20 -69 99 134 vvcurveto
          134 70 99 79 19 vhcurveto
          endchar
        </CharString>
        <CharString name="comma">
          0 125 hstem
          200 146 vstem
          346 25 rmoveto
          61 -39 39 -44 -40 -23 -30 -32 -38 29 -25 33 6 7 1 2 7 vhcurveto
          -15 -62 -47 -16 -12 -4 rrcurveto
          -10 -3 -18 -5 -20 vvcurveto
          -15 15 -17 17 32 102 54 110 vhcurveto
          endchar
        </CharString>
        <CharString name="copyleft">
          114 callgsubr
          136 callgsubr
          vstem
          -54 callsubr
          -85 hmoveto
          98 -60 72 -70 -27 -25 -10 -15 -18 vhcurveto
          -7 13 0 1 -1 2 rrcurveto
          4 -3 -2 5 -10 hhcurveto
          -16 0 -13 -9 hvcurveto
          -75 vlineto
          -11 0 -11 19 16 1 9 9 1 vhcurveto
          44 8 30 24 32 hhcurveto
          48 47 -57 -80 -81 -46 -57 -49 -23 -43 12 53 -4 hvcurveto
          16 -1 -13 0 -4 hhcurveto
          -6 -13 0 -18 -48 46 -48 63 70 60 72 99 hvcurveto
          endchar
        </CharString>
        <CharString name="copyright">
          114 callgsubr
          136 callgsubr
          vstem
          -54 callsubr
          -125 -75 rmoveto
          18 -13 0 -6 -4 -13 0 -16 -1 vhcurveto
          -52 -4 -43 -13 -23 hhcurveto
          -49 -46 57 81 80 47 57 48 32 30 -24 -44 8 hvcurveto
          -9 1 1 -9 16 hhcurveto
          19 0 11 11 hvcurveto
          75 vlineto
          9 0 13 -16 -10 -2 -5 -4 -3 vhcurveto
          -1 -2 0 -1 -7 -14 rrcurveto
          16 -18 -25 10 -27 hhcurveto
          -70 -60 -72 -98 -99 60 -72 70 63 46 48 48 hvcurveto
          endchar
        </CharString>
        <CharString name="currency">
          156 -20 21 70 158 70 22 -21 hstem
          114 70 157 70 vstem
          421 147 rmoveto
          25 25 -25 24 -8 9 -24 23 rcurveline
          14 23 8 26 29 vvcurveto
          29 -8 26 -14 23 vhcurveto
          23 22 8 9 25 25 -25 24 rlinecurve
          -24 25 -25 -25 -9 -8 -22 -23 rcurveline
          14 -23 -26 8 -28 hhcurveto
          -29 -27 -8 -14 -22 hvcurveto
          -24 24 -9 8 -24 25 -25 -25 rlinecurve
          -25 -25 25 -24 8 -9 24 -24 rcurveline
          -13 -22 -8 -27 -28 vvcurveto
          -28 8 -27 13 -22 vhcurveto
          -23 -23 -8 -9 -25 -25 25 -24 rlinecurve
          24 -25 25 25 9 8 23 23 rcurveline
          -14 22 27 -8 29 hhcurveto
          28 26 8 14 23 hvcurveto
          23 -24 9 -8 24 -25 25 25 rlinecurve
          -80 159 rmoveto
          -43 -35 -36 -43 -44 -35 36 43 43 35 36 44 43 35 -36 -43 vhcurveto
          endchar
        </CharString>
        <CharString name="cwm">
          -107 endchar
        </CharString>
        <CharString name="cwmascender">
          -107 endchar
        </CharString>
        <CharString name="cwmcapital">
          -107 endchar
        </CharString>
        <CharString name="d">
          -6 61 -55 61 315 61 113 90 callsubr
          cntrmask 00001110
          hintmask 01111110
          25 callgsubr
          -85 callsubr
          26 0 14 hvcurveto
          45 -158 hlineto
          29 -33 -41 16 -43 hhcurveto
          -109 -96 -95 -127 hvcurveto
          hintmask 10001110
          -124 90 -97 106 56 42 27 29 28 vhcurveto
          hintmask 01001110
          20 callsubr
          hintmask 10101110
          20 callgsubr
          endchar
        </CharString>
        <CharString name="dagger">
          -195 -21 613 67 241 -20 hstemhm
          194 79 -51 79 hintmask 01010000
          457 430 94 callsubr
          20 1 28 13 65 rrcurveto
          hintmask 01101000
          6 37 7 37 37 vvcurveto
          8 0 33 -39 -40 0 -32 -9 -35 11 -58 4 -24 vhcurveto
          9 -46 3 -32 1 -29 80 callsubr
          hintmask 00010000
          125 callgsubr
          -2 -25 -3 -20 -6 -25 rrcurveto
          hintmask 10001000
          -17 -72 0 -8 -53 vvcurveto
          -151 13 -168 11 -95 vhcurveto
          -14 1 1 -6 13 hhcurveto
          14 0 5 13 3 hvcurveto
          7 50 3 53 3 51 rrcurveto
          4 63 6 103 96 vvcurveto
          54 0 7 -16 71 vhcurveto
          hintmask 01010000
          -6 23 -4 21 -2 27 94 callgsubr
          endchar
        </CharString>
        <CharString name="daggerdbl">
          -184 -21 194 66 389 67 194 -20 hstemhm
          194 79 -51 79 37 79 hintmask 00101000
          457 477 94 callsubr
          30 8 34 4 14 rrcurveto
          hintmask 00110100
          7 33 8 40 28 vvcurveto
          7 0 32 -40 -12 -27 -3 -36 -20 5 -29 8 -35 vhcurveto
          8 -41 6 -28 1 -26 80 callsubr
          hintmask 00001000
          125 callgsubr
          -1 -30 -8 -34 -4 -14 rrcurveto
          hintmask 00000100
          -7 -33 -8 -40 -28 vvcurveto
          -35 26 -4 13 35 5 25 14 20 -5 29 -8 35 vhcurveto
          hintmask 01101010
          -8 41 -6 28 -1 26 94 callgsubr
          -455 vmoveto
          17 -14 16 -25 -23 -21 -3 -8 -36 vhcurveto
          -31 -8 -8 -2 -26 -2 2 28 5 24 8 42 rrcurveto
          hintmask 11000100
          13 56 0 23 5 vvcurveto
          35 -26 4 -13 -35 -5 -25 -14 -29 10 -43 7 -34 vhcurveto
          3 -11 6 -31 2 -30 -27 2 -3 1 -48 11 rrcurveto
          9 -37 -20 0 -9 hhcurveto
          -29 -11 -20 -13 -15 12 -18 28 29 28 6 4 13 hvcurveto
          46 10 8 1 20 2 -2 -28 -5 -24 -8 -42 rrcurveto
          -13 -56 0 -23 -5 vvcurveto
          -35 26 -4 13 35 5 25 14 29 -9 43 -7 34 vhcurveto
          hintmask 01001010
          -4 11 -6 31 -2 30 27 -2 4 -1 47 -11 rrcurveto
          -9 39 21 0 6 hhcurveto
          28 12 18 15 hvcurveto
          endchar
        </CharString>
        <CharString name="dblbracketleft">
          -82 70 637 70 1 -20 hstemhm
          145 70 92 70 hintmask 11001000
          496 -47 rmoveto
          19 -7 16 -28 vhcurveto
          -84 637 68 hlineto
          5 6 -1 6 hhcurveto
          28 6 18 19 hvcurveto
          hintmask 00100000
          20 -10 15 -25 vhcurveto
          hintmask 01000000
          -7 -7 -1 -6 hhcurveto
          -237 hlineto
          hintmask 10110000
          -7 -7 1 -8 hhcurveto
          -26 -11 -13 -25 hvcurveto
          -701 vlineto
          -28 11 -11 28 vhcurveto
          280 hlineto
          28 4 18 17 hvcurveto
          -189 35 rmoveto
          -92 hlineto
          hintmask 11011000
          637 92 vlineto
          endchar
        </CharString>
        <CharString name="dblbracketright">
          -82 70 637 70 hstem
          147 70 92 70 vstem
          379 -47 rmoveto
          706 vlineto
          17 -4 19 -29 vhcurveto
          -285 hlineto
          -26 -6 -18 -17 -19 7 -16 28 hvcurveto
          83 -637 -83 hlineto
          -28 -7 -16 -19 -17 6 -18 26 hvcurveto
          286 hlineto
          26 6 18 17 hvcurveto
          -70 35 rmoveto
          -92 637 92 hlineto
          endchar
        </CharString>
        <CharString name="dblgrave.ts1">
          500 -21 133 -20 hstem
          236 518 rmoveto
          44 callgsubr
          175 hmoveto
          44 callgsubr
          endchar
        </CharString>
        <CharString name="dblverticalbar">
          193 -36 rmoveto
          37 callsubr
          210 hmoveto
          37 callsubr
          endchar
        </CharString>
        <CharString name="dcaron">
          -6 61 -55 97 callsubr
          80 94 -61 61 hstemhm
          36 69 140 69 -41 48 callsubr
          -69 154 hintmask 0100101010000000
          25 callgsubr
          hintmask 0000100100000000
          -52 callsubr
          hintmask 1010110010000000
          27 callgsubr
          hintmask 0100000001000000
          20 callsubr
          hintmask 1010111010000000
          20 callgsubr
          233 271 rmoveto
          46 -29 29 -33 -30 -18 -22 -24 vhcurveto
          hintmask 0011000000000000
          -29 22 -19 25 4 6 1 2 5 vhcurveto
          -11 -47 -36 -12 -9 -3 rrcurveto
          -7 -2 -14 -4 -15 vvcurveto
          -11 12 -13 12 24 77 41 82 vhcurveto
          endchar
        </CharString>
        <CharString name="dcroat">
          -6 61 -55 97 callsubr
          22 62 29 90 callsubr
          cntrmask 00000111
          hintmask 01111111
          512 31 rmoveto
          30 -26 0 -14 vhcurveto
          -45 398 50 hlineto
          46 callgsubr
          -50 87 callsubr
          -148 38 callsubr
          148 -67 hlineto
          29 -33 -41 16 -43 hhcurveto
          -109 -96 -95 -127 hvcurveto
          hintmask 10000111
          -124 90 -97 106 56 42 27 29 28 vhcurveto
          hintmask 01000111
          20 callsubr
          hintmask 10100111
          20 callgsubr
          endchar
        </CharString>
        <CharString name="ddotbelow">
          -200 100 94 145 callsubr
          36 69 108 100 -68 69 -41 48 callsubr
          -69 154 hintmask 0010100101000000
          25 callgsubr
          hintmask 0000000010000000
          -16 -25 0 -31 hvcurveto
          hintmask 0101111001000000
          -30 26 0 14 vhcurveto
          27 callgsubr
          hintmask 0010000000100000
          20 callsubr
          hintmask 0101010101000000
          20 callgsubr
          hintmask 1000001000000000
          -45 -415 rmoveto
          55 callsubr
        </CharString>
        <CharString name="degree">
          319 70 152 70 hstem
          117 70 151 70 vstem
          408 465 rmoveto
          81 -65 65 -80 -81 -65 -65 -81 -80 65 -66 81 80 65 66 80 vhcurveto
          -70 hmoveto
          -42 -34 -34 -41 -42 -34 34 42 42 34 34 42 41 34 -34 -42 vhcurveto
          endchar
        </CharString>
        <CharString name="diameter">
          92 70 0 70 148 70 0 70 hstemhm
          48 70 0 70 148 70 0 70 hintmask 10011001
          486 496 rmoveto
          148 callgsubr
          -10 -8 -4 -6 -7 vhcurveto
          -40 -41 rlineto
          25 -35 -43 15 -46 hhcurveto
          -118 -96 -96 -118 -47 15 -43 25 -35 hvcurveto
          -40 -40 rlineto
          -6 -7 -4 -8 -10 vvcurveto
          116 callgsubr
          10 8 4 6 7 vhcurveto
          40 41 rlineto
          -25 35 43 -15 46 hhcurveto
          118 96 96 118 47 -15 43 -25 35 hvcurveto
          40 40 rlineto
          6 7 4 8 10 vvcurveto
          -80 -190 rmoveto
          -80 -64 -64 -80 vhcurveto
          hintmask 01100101
          -27 -25 7 13 -22 hvcurveto
          197 198 rlineto
          13 -21 8 -26 -27 vvcurveto
          -70 124 rmoveto
          -197 -198 rlineto
          -13 21 -8 26 27 vvcurveto
          80 64 64 80 vhcurveto
          hintmask 00000010
          27 25 -7 -13 22 hvcurveto
          endchar
        </CharString>
        <CharString name="died">
          4 -21 313 64 189 -20 hstem
          227 70 vstem
          495 329 rmoveto
          27 -20 5 -18 vhcurveto
          -17 hlineto
          -10 -11 -1 -10 hhcurveto
          -112 156 hlineto
          27 -17 6 -19 -29 -5 -17 -21 vhcurveto
          -151 -112 vlineto
          -10 -11 1 -10 hhcurveto
          -17 hlineto
          -18 -20 -5 -27 -18 11 -16 22 hvcurveto
          10 hlineto
          14 13 1 14 hhcurveto
          114 -272 hlineto
          -23 3 -18 34 33 0 23 19 vhcurveto
          271 114 vlineto
          14 13 -1 14 hhcurveto
          10 hlineto
          21 12 14 20 hvcurveto
          endchar
        </CharString>
        <CharString name="dieresis">
          510 90 hstem
          135 90 75 90 vstem
          -29 callgsubr
          endchar
        </CharString>
        <CharString name="dieresis.cap">
          482 90 hstem
          120 90 105 90 vstem
          5 callsubr
          endchar
        </CharString>
        <CharString name="dieresis.dup">
          510 90 hstem
          135 90 75 90 vstem
          -29 callgsubr
          endchar
        </CharString>
        <CharString name="dieresis.ts1">
          513 100 hstem
          413 563 rmoveto
          23 -18 27 -29 vhcurveto
          -3 -3 -1 -3 hhcurveto
          -29 -4 -14 -23 -22 vvcurveto
          -20 15 -30 32 28 24 19 31 vhcurveto
          -203 hmoveto
          22 -18 28 -30 vhcurveto
          -3 -3 -1 -3 hhcurveto
          -25 -4 -17 -20 -25 vvcurveto
          -23 18 -27 29 32 20 24 26 vhcurveto
          endchar
        </CharString>
        <CharString name="discount">
          22 -21 693 -20 21 -20 hstemhm
          121 114 54 114 -67 114 hintmask 00100000
          466 656 rmoveto
          3 vlineto
          20 -16 16 -19 vhcurveto
          hintmask 11010100
          -6 -1 -19 -3 -8 -17 -8 -16 rlinecurve
          -54 -99 -224 -414 -36 -66 rlineto
          -7 -13 -11 -14 -16 vvcurveto
          -19 15 -16 20 vhcurveto
          2 hlineto
          21 1 8 17 9 16 317 586 rcurveline
          6 11 8 12 2 12 rrcurveto
          -231 -47 rmoveto
          -31 -24 -19 -26 -6 vhcurveto
          108 callgsubr
          168 -524 rmoveto
          -31 -24 -19 -26 -6 vhcurveto
          hintmask 00001000
          108 callgsubr
          endchar
        </CharString>
        <CharString name="divide">
          31 125 115 70 114 125 hstem
          199 125 vstem
          486 306 29 callsubr
          -162 211 32 callgsubr
          -424 vmoveto
          55 callgsubr
        </CharString>
        <CharString name="divorced">
          -44 -21 156 66 299 66 157 -20 hstem
          -208 65 241 68 61 70 61 69 239 65 vstem
          166 308 rmoveto
          106 -73 108 -119 vhcurveto
          -9 hlineto
          -112 -12 -61 -104 -100 vvcurveto
          -106 73 -109 117 vhcurveto
          9 hlineto
          116 14 59 104 99 vvcurveto
          565 -2 rmoveto
          102 -70 115 -113 -5 -5 0 -1 -5 vhcurveto
          -113 -13 -62 -103 -101 vvcurveto
          -107 75 -107 116 vhcurveto
          9 hlineto
          116 14 57 103 98 vvcurveto
          -434 -330 rmoveto
          666 vlineto
          25 -12 12 -22 -5 -5 -1 -1 -4 vhcurveto
          -21 -1 -27 -14 hvcurveto
          -666 vlineto
          -28 15 -7 18 37 0 21 20 vhcurveto
          -199 329 rmoveto
          -69 -48 -79 -72 vhcurveto
          -5 hlineto
          -69 7 -38 63 -8 69 rrcurveto
          4 -1 5 4 vvcurveto
          70 51 77 70 vhcurveto
          6 hlineto
          69 -5 45 -76 -70 vvcurveto
          568 6 rmoveto
          -5 0 -6 -1 -5 vhcurveto
          -6 -55 -31 -77 -77 -6 rrcurveto
          -5 hlineto
          -76 -43 82 69 65 38 75 75 8 hvcurveto
          6 hlineto
          70 50 -76 -69 hvcurveto
          endchar
        </CharString>
        <CharString name="dlinebelow">
          -181 63 112 145 callsubr
          36 69 140 69 -41 48 callsubr
          -69 154 hintmask 0010101010000000
          25 callgsubr
          hintmask 0000100100000000
          -52 callsubr
          hintmask 0101110010000000
          27 callgsubr
          hintmask 0010000001000000
          20 callsubr
          hintmask 0101011010000000
          20 callgsubr
          hintmask 1000000000000000
          94 -415 -89 callgsubr
        </CharString>
        <CharString name="dollar">
          58 64 110 61 109 64 vstem
          466 171 rmoveto
          49 -28 99 -145 27 vhcurveto
          208 vlineto
          33 -4 50 -14 16 -51 rrcurveto
          -10 -8 -5 -12 -13 vvcurveto
          -23 17 -21 27 21 24 12 37 77 -55 72 -118 10 vhcurveto
          37 30 callgsubr
          -31 0 -25 -16 vhcurveto
          -38 vlineto
          -110 -13 -64 -76 -74 vvcurveto
          -24 6 -108 168 -31 vhcurveto
          -232 vlineto
          -45 6 -41 22 -15 51 rrcurveto
          6 4 10 8 23 vvcurveto
          28 -24 17 -20 -9 -36 -4 -46 -83 58 -77 116 -11 vhcurveto
          -37 vlineto
          -16 0 -25 31 30 0 25 16 vhcurveto
          38 vlineto
          122 19 51 86 70 vvcurveto
          -234 188 rmoveto
          -57 10 -53 36 51 vvcurveto
          48 48 40 62 10 vhcurveto
          170 -387 rmoveto
          -51 -45 -47 -64 -11 vhcurveto
          218 vlineto
          66 -13 43 -45 -51 vvcurveto
          endchar
        </CharString>
        <CharString name="dollar.oldstyle">
          -6 63 -60 60 -60 63 hstemhm
          47 65 -64 64 35 180 -161 62 -31 62 -62 64 2 64 -31 62 54 64 -64 65 cntrmask 1110000000000000
          hintmask 1110000000100000
          477 457 rmoveto
          65 -43 54 -58 23 vhcurveto
          -10 4 -8 2 0 vvcurveto
          52 vlineto
          hintmask 1110000001000000
          22 -9 16 -22 vhcurveto
          hintmask 1110001000100000
          -25 -6 -19 -21 hvcurveto
          -38 -68 38 vlineto
          hintmask 1110000100000000
          21 -7 19 -24 vhcurveto
          hintmask 1110001000000000
          -22 -9 -16 -23 hvcurveto
          -55 vlineto
          hintmask 1110110000000000
          0 -11 -3 -8 -5 vhcurveto
          -48 -19 -46 -53 -5 -55 rrcurveto
          -10 vlineto
          -65 44 -45 56 -30 vhcurveto
          hintmask 1111001000000000
          12 -5 6 -3 0 vvcurveto
          -228 vlineto
          -19 11 -23 27 18 9 13 8 18 vvcurveto
          23 -17 23 -27 -26 -20 -21 -30 -67 51 -77 68 -12 vhcurveto
          -58 vlineto
          hintmask 1110000100000000
          -20 10 -14 21 vhcurveto
          hintmask 1110001000000000
          24 7 19 21 hvcurveto
          39 vlineto
          hintmask 1110000100100000
          -2 9 13 -1 9 hhcurveto
          14 10 2 1 13 hvcurveto
          -39 vlineto
          hintmask 1110000001000000
          -21 7 -19 24 vhcurveto
          hintmask 1110000000110000
          21 10 14 21 hvcurveto
          61 vlineto
          63 15 55 76 67 vvcurveto
          10 vlineto
          63 -53 55 -54 23 vhcurveto
          -9 5 -2 -1 0 vvcurveto
          209 vlineto
          18 -9 23 -23 -15 vvcurveto
          -1 vlineto
          -11 -12 -8 -15 vvcurveto
          -23 16 -22 27 vhcurveto
          hintmask 1110001001001000
          26 21 17 31 hvcurveto
          -181 -111 rmoveto
          -68 17 rlineto
          192 vlineto
          0 21 2 14 vhcurveto
          hintmask 1110101000110000
          13 20 -2 0 hvcurveto
          -130 -170 rmoveto
          -27 17 -27 23 35 vvcurveto
          33 28 24 26 17 vhcurveto
          246 -369 rmoveto
          -35 -26 -29 -28 -19 vhcurveto
          168 vlineto
          27 -19 22 -20 5 -40 rrcurveto
          -116 -111 rmoveto
          hintmask 1110000010000000
          0 -22 -3 -13 vhcurveto
          hintmask 1110001000100000
          -13 -20 1 0 hvcurveto
          233 vlineto
          68 -17 rlineto
          endchar
        </CharString>
        <CharString name="dong">
          -62 62 -31 62 hstemhm
          hintmask 01000000
          486 60 rmoveto
          29 -24 0 -14 vhcurveto
          -42 378 47 hlineto
          16 14 13 16 16 -14 14 -16 hvcurveto
          -47 46 hlineto
          30 -6 9 -32 vhcurveto
          -70 hlineto
          -15 -24 0 -29 -29 25 0 13 hvcurveto
          43 -27 -141 hlineto
          -16 -13 -14 -16 -16 13 -13 16 hvcurveto
          141 -64 hlineto
          28 -31 -39 15 -41 hhcurveto
          -104 -91 -91 -120 -118 86 -92 100 54 39 26 27 27 hvcurveto
          -34 0 -13 38 vhcurveto
          69 hlineto
          16 23 0 29 hvcurveto
          -91 vmoveto
          hintmask 10000000
          17 -13 14 -18 vhcurveto
          -390 hlineto
          hintmask 01000000
          -17 -14 -14 -17 hvcurveto
          hintmask 10000000
          -17 14 -14 17 vhcurveto
          390 hlineto
          hintmask 01000000
          18 13 14 17 hvcurveto
          -146 246 rmoveto
          -53 -43 -79 -73 -67 -57 67 85 91 66 62 67 61 46 -53 -53 vhcurveto
          endchar
        </CharString>
        <CharString name="dotaccent">
          505 120 callgsubr
          555 rmoveto
          55 callsubr
        </CharString>
        <CharString name="dotaccent.alt">
          471 120 callgsubr
          521 rmoveto
          55 callsubr
        </CharString>
        <CharString name="dotaccent.cap">
          482 120 callgsubr
          532 rmoveto
          55 callsubr
        </CharString>
        <CharString name="dotlessi">
          30 callsubr
          hstem
          240 69 vstem
          -93 callgsubr
          endchar
        </CharString>
        <CharString name="dotlessj">
          65 callgsubr
          hstemhm
          48 89 162 69 hintmask 01111000
          -61 callgsubr
          hintmask 10001000
          41 callsubr
          endchar
        </CharString>
        <CharString name="e">
          -6 callsubr
          -100 callsubr
          endchar
        </CharString>
        <CharString name="eacute">
          -6 callsubr
          69 -21 134 -65 callsubr
          hintmask 00001100
          -24 336 -107 callsubr
        </CharString>
        <CharString name="ebreve">
          -6 callsubr
          59 64 49 -65 callsubr
          hintmask 00001100
          46 330 -94 callgsubr
        </CharString>
        <CharString name="ecaron">
          -6 callsubr
          -100 callsubr
          hintmask 00000000
          4 316 -72 callgsubr
        </CharString>
        <CharString name="ecircumflex">
          -6 callsubr
          -100 callsubr
          hintmask 00000000
          4 291 -84 callsubr
          endchar
        </CharString>
        <CharString name="ecircumflexacute">
          -6 callsubr
          303 -65 callsubr
          hintmask 00001000
          -2 294 -31 callsubr
          163 -107 callsubr
        </CharString>
        <CharString name="ecircumflexdotbelow">
          -1 callgsubr
          4 291 -84 callsubr
          hintmask 10000100
          -84 -692 rmoveto
          55 callsubr
        </CharString>
        <CharString name="ecircumflexgrave">
          -6 callsubr
          -100 callsubr
          hintmask 00000000
          -2 294 -85 callgsubr
        </CharString>
        <CharString name="ecircumflexhookabove">
          -6 callsubr
          379 -65 callsubr
          hintmask 00001000
          -2 294 -105 callgsubr
          69 194 -107 callgsubr
        </CharString>
        <CharString name="ecircumflextilde">
          -6 callsubr
          189 65 -10 65 -100 callsubr
          hintmask 00000100
          -2 294 31 callgsubr
          hintmask 00001000
          -78 callgsubr
          hintmask 00000100
          -91 callgsubr
          hintmask 00001000
          -16 15 -16 16 11 6 5 6 7 vhcurveto
          hintmask 00000100
          -78 callsubr
          hintmask 00001000
          -94 callsubr
        </CharString>
        <CharString name="edblgrave">
          -6 callsubr
          -100 callsubr
          hintmask 00000000
          31 246 -100 callgsubr
        </CharString>
        <CharString name="edieresis">
          -6 callsubr
          70 90 hstemhm
          135 90 75 90 -103 callgsubr
          hintmask 00001110
          -168 304 -61 callsubr
        </CharString>
        <CharString name="edotaccent">
          -6 callsubr
          65 100 hstemhm
          213 100 -103 callgsubr
          hintmask 00001100
          -80 304 rmoveto
          55 callsubr
        </CharString>
        <CharString name="edotbelow">
          -1 callgsubr
          hintmask 10000100
          -80 -401 rmoveto
          55 callsubr
        </CharString>
        <CharString name="egrave">
          -6 callsubr
          69 -21 134 -65 callsubr
          hintmask 00001100
          -25 277 -101 callgsubr
        </CharString>
        <CharString name="ehookabove">
          -6 callsubr
          230 -65 callsubr
          hintmask 00011000
          -32 339 -107 callgsubr
        </CharString>
        <CharString name="eight">
          -12 callgsubr
        </CharString>
        <CharString name="eight.taboldstyle">
          -12 callgsubr
        </CharString>
        <CharString name="ellipsis">
          0 125 hstem
          25 125 50 125 50 125 cntrmask 01110000
          150 62 32 callgsubr
          175 hmoveto
          -20 callsubr
          175 hmoveto
          55 callgsubr
        </CharString>
        <CharString name="emacron">
          -6 callsubr
          84 63 -100 callsubr
          hintmask 00001000
          59 304 -89 callgsubr
        </CharString>
        <CharString name="emdash">
          271 70 hstem
          468 306 rmoveto
          -42 callgsubr
        </CharString>
        <CharString name="emdash.alt">
          50 callsubr
        </CharString>
        <CharString name="endash">
          271 70 hstem
          468 306 rmoveto
          -42 callgsubr
        </CharString>
        <CharString name="eng">
          -198 60 138 35 callgsubr
          132 69 123 69 0 69 hintmask 00011010
          462 61 rmoveto
          232 vlineto
          101 -51 43 -79 -67 -45 -34 -19 -19 vhcurveto
          hintmask 01101000
          -67 callsubr
          hintmask 01010010
          100 74 38 51 53 14 -28 -60 vhcurveto
          -227 vlineto
          hintmask 10000100
          -101 0 -123 -69 -20 -15 -16 -19 -20 15 -15 20 60 34 38 57 20 vhcurveto
          hintmask 01000010
          19 56 5 73 70 vvcurveto
          endchar
        </CharString>
        <CharString name="eogonek">
          98 callgsubr
          hstemhm
          207 59 hintmask 00011010
          464 109 rmoveto
          28 -29 0 -6 -18 -8 -3 -19 -7 vhcurveto
          -51 -22 -54 -9 -28 hhcurveto
          -75 -75 50 86 -16 hvcurveto
          298 hlineto
          21 19 0 37 114 -64 98 -130 -119 -96 -100 -123 hvcurveto
          hintmask 11000001
          25 callsubr
          hintmask 00100110
          81 24 30 61 20 vvcurveto
          -71 142 rmoveto
          -266 hlineto
          73 14 59 55 70 hhcurveto
          52 62 -25 -103 9 hvcurveto
          endchar
        </CharString>
        <CharString name="eogonekacute">
          98 callgsubr
          69 -2 callgsubr
          207 59 hintmask 0001101000000000
          464 109 rmoveto
          28 -29 0 -6 -18 -8 -3 -19 -7 vhcurveto
          -51 -22 -54 -9 -28 hhcurveto
          -75 -75 50 86 -16 hvcurveto
          298 hlineto
          21 19 0 37 114 -64 98 -130 -119 -96 -100 -123 hvcurveto
          hintmask 1100000001000000
          25 callsubr
          hintmask 0010011000000000
          81 24 30 61 20 vvcurveto
          -71 142 rmoveto
          -266 hlineto
          73 14 59 55 70 hhcurveto
          52 62 -25 -103 9 hvcurveto
          hintmask 0000000110000000
          -24 336 -107 callsubr
        </CharString>
        <CharString name="equal">
          195 70 82 70 hstem
          486 382 29 callsubr
          -152 vmoveto
          35 -33 0 -12 vhcurveto
          -358 hlineto
          -12 -33 0 -35 -35 37 0 14 hvcurveto
          346 hlineto
          14 37 0 35 hvcurveto
          endchar
        </CharString>
        <CharString name="ereversed">
          -6 callsubr
          hstemhm
          hintmask 01110000
          464 217 rmoveto
          123 -96 100 -119 -130 -64 -98 -114 -37 19 0 21 vhcurveto
          298 hlineto
          -86 -16 -75 -50 -75 hhcurveto
          -28 -54 9 51 -22 hvcurveto
          19 -7 -8 3 -18 hhcurveto
          -6 -29 0 -28 hvcurveto
          hintmask 10110000
          -25 47 -90 132 129 101 101 122 vhcurveto
          -72 34 rmoveto
          -266 hlineto
          103 9 62 25 52 hhcurveto
          70 59 -55 -73 14 hvcurveto
          endchar
        </CharString>
        <CharString name="estimated">
          -5 61 235 60 209 61 hstem
          31 71 309 71 vstem
          482 111 rmoveto
          22 -21 5 -16 -29 -1 -21 -20 -16 vhcurveto
          -30 -27 -43 -11 -39 hhcurveto
          -108 -80 125 99 hvcurveto
          11 340 vlineto
          25 15 8 29 hvcurveto
          7 vlineto
          132 -60 154 -155 -162 -74 -181 -133 -140 84 -172 164 74 85 20 76 38 vhcurveto
          3 6 3 7 7 vvcurveto
          -71 240 rmoveto
          -307 hlineto
          88 5 62 121 97 hhcurveto
          104 39 -122 -87 hvcurveto
          endchar
        </CharString>
        <CharString name="eth">
          -6 61 323 61 111 61 hstem
          57 70 270 70 vstem
          467 231 rmoveto
          45 0 137 -144 117 vhcurveto
          51 21 rlineto
          14 5 10 13 14 vvcurveto
          16 -14 12 -18 -5 -5 -1 -2 -5 vhcurveto
          -90 -36 rlineto
          25 -48 -53 14 -54 hhcurveto
          -30 -12 -22 -12 0 0 -27 31 -1 hvcurveto
          10 12 -1 -2 14 hvcurveto
          14 -2 14 -4 14 -4 -35 -14 rcurveline
          -14 -6 -10 -12 -14 vvcurveto
          -16 14 -13 18 5 5 1 2 5 vhcurveto
          88 36 15 -9 18 -13 29 -25 20 -27 rlinecurve
          2 -6 -28 11 -35 hhcurveto
          -111 -94 -98 -126 -124 94 -97 111 49 58 20 53 45 hvcurveto
          53 63 0 66 35 vvcurveto
          -69 -12 rmoveto
          -82 -57 -82 -78 -73 -62 74 94 90 64 65 71 78 57 -79 -80 vhcurveto
          endchar
        </CharString>
        <CharString name="etilde">
          -6 callsubr
          55 65 -10 65 -100 callsubr
          hintmask 00000100
          45 332 -74 callsubr
          hintmask 00001000
          -78 callgsubr
          hintmask 00000100
          -91 callgsubr
          hintmask 00001000
          -16 15 -16 16 11 6 5 6 7 vhcurveto
          hintmask 00000100
          -78 callsubr
          hintmask 00001000
          -94 callsubr
        </CharString>
        <CharString name="eturned">
          2 callgsubr
        </CharString>
        <CharString name="exclam">
          0 100 522 -20 hstem
          222 81 vstem
          312 565 rmoveto
          53 -41 4 -9 -9 -41 -4 -53 vhcurveto
          7 -234 3 -121 rlineto
          -26 1 26 0 13 hhcurveto
          36 3 8 40 2 hvcurveto
          4 173 rlineto
          1 52 4 55 53 vvcurveto
          -515 vmoveto
          55 callsubr
        </CharString>
        <CharString name="exclamdown">
          289 100 hstem
          221 81 vstem
          312 339 -103 callsubr
          -515 vmoveto
          -7 234 -3 122 rlineto
          25 -1 -27 0 -12 hhcurveto
          -35 -4 -8 -40 -2 hvcurveto
          -4 -173 rlineto
          -1 -52 -4 -55 -53 vvcurveto
          -53 41 -4 9 9 41 4 53 vhcurveto
          endchar
        </CharString>
        <CharString name="f">
          -18 callgsubr
          309 122 -87 callsubr
          -122 47 63 callgsubr
        </CharString>
        <CharString name="five">
          -11 107 callgsubr
          190 -1 callsubr
        </CharString>
        <CharString name="five.taboldstyle">
          -196 107 callgsubr
          5 -1 callsubr
        </CharString>
        <CharString name="florin">
          -18 callgsubr
          309 122 -87 callsubr
          -122 47 63 callgsubr
        </CharString>
        <CharString name="four">
          0 61 108 61 393 146 callgsubr
          199 rmoveto
          31 -24 0 -16 vhcurveto
          -78 352 106 callgsubr
          -358 116 callsubr
          -108 -62 -92 callgsubr
          180 -87 callsubr
          -62 108 78 -42 callsubr
          -174 31 rmoveto
          -222 hlineto
          222 349 rlineto
          endchar
        </CharString>
        <CharString name="four.taboldstyle">
          -181 61 120 61 381 146 callgsubr
          30 rmoveto
          31 -24 0 -16 vhcurveto
          -78 340 106 callgsubr
          -346 116 callsubr
          -120 -62 -92 callgsubr
          180 -87 callsubr
          -62 120 78 -42 callsubr
          -174 31 rmoveto
          -222 hlineto
          222 337 rlineto
          endchar
        </CharString>
        <CharString name="fraction">
          455 34 callgsubr
        </CharString>
        <CharString name="fraction.alt">
          -107 193 34 callgsubr
        </CharString>
        <CharString name="g">
          -80 callsubr
          endchar
        </CharString>
        <CharString name="gacute">
          13 callgsubr
          72 -21 134 -20 hstemhm
          29 58 -19 69 -57 69 180 69 -26 58 -4 69 -58 58 hintmask 0001000000000000
          509 388 -88 callgsubr
          hintmask 0000011000000000
          -104 669 -107 callsubr
        </CharString>
        <CharString name="gbreve">
          13 callgsubr
          62 64 49 -20 hstemhm
          29 58 -19 69 -57 69 180 69 -26 58 -4 69 -58 58 hintmask 0001000000000000
          509 388 -88 callgsubr
          hintmask 0000011000010000
          -34 663 -94 callgsubr
        </CharString>
        <CharString name="gcaron">
          -80 callsubr
          hintmask 0000000000000000
          -76 649 -72 callgsubr
        </CharString>
</ttFont>
